<?xml version="1.0" encoding="UTF-8" standalone="no"?>
<!-- Created with Inkscape (http://www.inkscape.org/) -->

<svg
   width="140"
   height="40"
   version="1.1"
   viewBox="0 0 37.042069 10.583"
   id="svg36"
   sodipodi:docname="freecad-home.svg"
   inkscape:version="1.1.2 (0a00cf5339, 2022-02-04)"
   xmlns:inkscape="http://www.inkscape.org/namespaces/inkscape"
   xmlns:sodipodi="http://sodipodi.sourceforge.net/DTD/sodipodi-0.dtd"
   xmlns="http://www.w3.org/2000/svg"
   xmlns:svg="http://www.w3.org/2000/svg"
   xmlns:rdf="http://www.w3.org/1999/02/22-rdf-syntax-ns#"
   xmlns:cc="http://creativecommons.org/ns#"
   xmlns:dc="http://purl.org/dc/elements/1.1/">
  <sodipodi:namedview
     id="namedview38"
     pagecolor="#ffffff"
     bordercolor="#666666"
     borderopacity="1.0"
     inkscape:pageshadow="2"
     inkscape:pageopacity="0.0"
     inkscape:pagecheckerboard="0"
     showgrid="false"
     inkscape:lockguides="true"
     inkscape:zoom="5.6568543"
     inkscape:cx="79.019182"
     inkscape:cy="20.240931"
     inkscape:window-width="1920"
     inkscape:window-height="1051"
     inkscape:window-x="0"
     inkscape:window-y="0"
     inkscape:window-maximized="1"
     inkscape:current-layer="text4997-3-5-1" />
  <defs
     id="defs12">
    <linearGradient
       id="linearGradient954"
       x1="-146.74"
       x2="-157.32"
       y1="58.262"
       y2="26.521"
       gradientTransform="matrix(6.9077,0,0,6.9077,-4100,1055.2)"
       gradientUnits="userSpaceOnUse">
      <stop
         stop-color="#204a87"
         offset="0"
         id="stop2" />
      <stop
         stop-color="#729fcf"
         offset="1"
         id="stop4" />
    </linearGradient>
    <linearGradient
       id="linearGradient956"
       x1="-206.7"
       x2="-211.4"
       y1="68.842"
       y2="7.7114"
       gradientTransform="matrix(6.843,0,0,6.843,-3961.1,1029.7)"
       gradientUnits="userSpaceOnUse">
      <stop
         stop-color="#a40000"
         offset="0"
         id="stop7" />
      <stop
         stop-color="#ef2929"
         offset="1"
         id="stop9" />
    </linearGradient>
    <linearGradient
       id="linearGradient3864-9">
      <stop
         style="stop-color:#204a87;stop-opacity:1"
         offset="0"
         id="stop3866-1" />
      <stop
         style="stop-color:#729fcf;stop-opacity:1"
         offset="1"
         id="stop3868-1" />
    </linearGradient>
    <linearGradient
       id="linearGradient3682-0">
      <stop
         id="stop3684-0"
         offset="0"
         style="stop-color:#a40000;stop-opacity:1" />
      <stop
         id="stop3686-0"
         offset="1"
         style="stop-color:#ef2929;stop-opacity:1" />
    </linearGradient>
  </defs>
  <metadata
     id="metadata14">
    <rdf:RDF>
      <cc:Work
         rdf:about="">
        <dc:format>image/svg+xml</dc:format>
        <dc:type
           rdf:resource="http://purl.org/dc/dcmitype/StillImage" />
      </cc:Work>
    </rdf:RDF>
  </metadata>
  <g
     transform="matrix(.73278 0 0 .73278 -282.07 -84.832)"
     stroke-width="1.4134"
     id="g34">
    <g
       aria-label="CAD"
       id="text4997-3-5-1"
       style="font-size:7.66308px;font-family:Evolventa;-inkscape-font-specification:Evolventa;letter-spacing:0px;word-spacing:0px;stroke-width:0.478939px">
      <g
         aria-label="Free"
         id="text4997-6-5"
         style="font-size:11.9683px;line-height:2.15224px;fill:#ffffff;stroke-width:0.748012px">
        <path
           d="m 385.32106,127.67592 h 0.88565 v -4.04529 h 3.47081 v -0.80187 h -3.47081 v -3.19554 h 3.60246 v -0.80188 h -4.48811 z"
           id="path839" />
        <path
           d="m 390.83841,127.67592 h 0.88566 v -3.81789 c 0,-1.22077 0.62235,-1.89099 1.85508,-2.01067 v -0.87369 c -0.94549,0.0479 -1.508,0.37102 -1.85508,1.08912 v -0.93353 h -0.88566 z"
           id="path841" />
        <path
           d="m 400.66435,124.69581 c 0,-0.87368 -0.10772,-1.38832 -0.39496,-1.93886 -0.57447,-1.10109 -1.7354,-1.78328 -3.02798,-1.78328 -1.89099,0 -3.38702,1.49604 -3.38702,3.399 0,1.93886 1.51997,3.45884 3.45883,3.45884 1.42423,0 2.70484,-0.93353 3.18357,-2.30989 h -0.92156 c -0.37101,0.89763 -1.29257,1.49604 -2.28594,1.49604 -1.35242,0 -2.47744,-1.02927 -2.54925,-2.32185 z m -5.90037,-0.80187 c 0.23936,-1.25668 1.23273,-2.10642 2.47743,-2.10642 1.26864,0 2.23808,0.80187 2.53728,2.10642 z"
           id="path843" />
        <path
           d="m 408.44374,124.69581 c 0,-0.87368 -0.10772,-1.38832 -0.39496,-1.93886 -0.57447,-1.10109 -1.7354,-1.78328 -3.02798,-1.78328 -1.89099,0 -3.38702,1.49604 -3.38702,3.399 0,1.93886 1.51997,3.45884 3.45883,3.45884 1.42423,0 2.70484,-0.93353 3.18357,-2.30989 h -0.92156 c -0.37101,0.89763 -1.29257,1.49604 -2.28594,1.49604 -1.35242,0 -2.47744,-1.02927 -2.54925,-2.32185 z m -5.90037,-0.80187 c 0.23936,-1.25668 1.23273,-2.10642 2.47743,-2.10642 1.26864,0 2.23808,0.80187 2.53728,2.10642 z"
           id="path845" />
      </g>
      <g
         aria-label="CAD"
         id="text4997-3-5-1-3"
         style="font-size:11.9683px;line-height:2.15224px;fill:#ffffff;stroke-width:0.748012px">
        <path
           d="m 416.3353,125.21045 c -0.73006,0.754 -1.34045,1.04124 -2.1902,1.04124 -1.63965,0 -2.96813,-1.36439 -2.96813,-3.01601 0,-0.7181 0.27527,-1.48407 0.73006,-2.01068 0.53858,-0.63431 1.29258,-0.96943 2.20217,-0.96943 1.02927,0 1.72344,0.33512 2.32185,1.11305 h 1.83115 c -0.33511,-0.74203 -0.62235,-1.13698 -1.18486,-1.61572 -0.82581,-0.69416 -1.89099,-1.07714 -3.00404,-1.07714 -2.50138,0 -4.54796,2.04658 -4.54796,4.54795 0,2.56122 2.07052,4.6078 4.65567,4.6078 1.81918,0 3.38703,-1.00534 4.08119,-2.62106 z"
           style="font-weight:bold;-inkscape-font-specification:'Evolventa Bold'"
           id="path866" />
        <path
           d="m 418.45367,127.67592 h 1.80721 l 0.9814,-2.28595 h 3.14766 l 0.9455,2.28595 h 1.80721 l -3.71017,-8.84458 h -1.29258 z m 3.38702,-3.85379 0.9455,-2.6809 0.9455,2.6809 z"
           style="font-weight:bold;-inkscape-font-specification:'Evolventa Bold'"
           id="path868" />
        <path
           d="m 428.07617,127.67592 h 2.05855 c 1.30455,0 2.08249,-0.13165 2.78862,-0.4548 1.40029,-0.65825 2.23807,-2.11839 2.23807,-3.94954 0,-1.63965 -0.65826,-2.99207 -1.83115,-3.74607 -0.7181,-0.46677 -1.78328,-0.69417 -3.23144,-0.69417 h -2.02265 z m 1.63966,-1.56785 v -5.70888 h 0.32315 c 1.0173,0 1.55587,0.0838 2.05854,0.32315 0.87369,0.43086 1.41226,1.38832 1.41226,2.54924 0,1.06518 -0.4907,2.01068 -1.28061,2.44154 -0.4907,0.2633 -1.17289,0.39495 -2.15429,0.39495 z"
           style="font-weight:bold;-inkscape-font-specification:'Evolventa Bold'"
           id="path870" />
      </g>
    </g>
  </g>
</svg>
