<?xml version="1.0" encoding="UTF-8" standalone="no"?>
<!-- Created with Inkscape (http://www.inkscape.org/) -->

<svg
   width="140"
   height="40"
   version="1.1"
   viewBox="0 0 37.042069 10.583"
   id="svg36"
   sodipodi:docname="freecad-home.svg"
   inkscape:version="1.1.2 (0a00cf5339, 2022-02-04)"
   xmlns:inkscape="http://www.inkscape.org/namespaces/inkscape"
   xmlns:sodipodi="http://sodipodi.sourceforge.net/DTD/sodipodi-0.dtd"
   xmlns:xlink="http://www.w3.org/1999/xlink"
   xmlns="http://www.w3.org/2000/svg"
   xmlns:svg="http://www.w3.org/2000/svg"
   xmlns:rdf="http://www.w3.org/1999/02/22-rdf-syntax-ns#"
   xmlns:cc="http://creativecommons.org/ns#"
   xmlns:dc="http://purl.org/dc/elements/1.1/">
  <sodipodi:namedview
     id="namedview38"
     pagecolor="#ffffff"
     bordercolor="#666666"
     borderopacity="1.0"
     inkscape:pageshadow="2"
     inkscape:pageopacity="0.0"
     inkscape:pagecheckerboard="0"
     showgrid="false"
     inkscape:lockguides="true"
     inkscape:zoom="5.6568543"
     inkscape:cx="78.930794"
     inkscape:cy="20.240932"
     inkscape:window-width="1920"
     inkscape:window-height="1051"
     inkscape:window-x="0"
     inkscape:window-y="0"
     inkscape:window-maximized="1"
     inkscape:current-layer="text4997-3-5-1" />
  <defs
     id="defs12">
    <linearGradient
       id="linearGradient954"
       x1="-146.74"
       x2="-157.32"
       y1="58.262"
       y2="26.521"
       gradientTransform="matrix(6.9077,0,0,6.9077,-4100,1055.2)"
       gradientUnits="userSpaceOnUse">
      <stop
         stop-color="#204a87"
         offset="0"
         id="stop2" />
      <stop
         stop-color="#729fcf"
         offset="1"
         id="stop4" />
    </linearGradient>
    <linearGradient
       id="linearGradient956"
       x1="-206.7"
       x2="-211.4"
       y1="68.842"
       y2="7.7114"
       gradientTransform="matrix(6.843,0,0,6.843,-3961.1,1029.7)"
       gradientUnits="userSpaceOnUse">
      <stop
         stop-color="#a40000"
         offset="0"
         id="stop7" />
      <stop
         stop-color="#ef2929"
         offset="1"
         id="stop9" />
    </linearGradient>
    <linearGradient
       id="linearGradient3864-9">
      <stop
         style="stop-color:#204a87;stop-opacity:1"
         offset="0"
         id="stop3866-1" />
      <stop
         style="stop-color:#729fcf;stop-opacity:1"
         offset="1"
         id="stop3868-1" />
    </linearGradient>
    <linearGradient
       id="linearGradient3682-0">
      <stop
         id="stop3684-0"
         offset="0"
         style="stop-color:#a40000;stop-opacity:1" />
      <stop
         id="stop3686-0"
         offset="1"
         style="stop-color:#ef2929;stop-opacity:1" />
    </linearGradient>
    <linearGradient
       inkscape:collect="always"
       xlink:href="#linearGradient3864-9"
       id="linearGradient58625"
       gradientUnits="userSpaceOnUse"
       gradientTransform="matrix(1.0094494,0,0,1.0094493,-20.307973,3.7260081)"
       x1="-146.74467"
       y1="58.261547"
       x2="-157.32494"
       y2="26.520763" />
    <linearGradient
       inkscape:collect="always"
       xlink:href="#linearGradient3682-0"
       id="linearGradient3806-5-6-0-0"
       x1="-206.69949"
       y1="68.841812"
       x2="-211.40184"
       y2="7.7114096"
       gradientUnits="userSpaceOnUse" />
  </defs>
  <metadata
     id="metadata14">
    <rdf:RDF>
      <cc:Work
         rdf:about="">
        <dc:format>image/svg+xml</dc:format>
        <dc:type
           rdf:resource="http://purl.org/dc/dcmitype/StillImage" />
      </cc:Work>
    </rdf:RDF>
  </metadata>
  <g
     transform="matrix(.73278 0 0 .73278 -282.07 -84.832)"
     stroke-width="1.4134"
     id="g34">
    <g
       aria-label="CAD"
       id="text4997-3-5-1"
       style="font-size:7.66308px;font-family:Evolventa;-inkscape-font-specification:Evolventa;letter-spacing:0px;word-spacing:0px;stroke-width:0.478939px">
      <g
         transform="matrix(0.13252635,0,0,0.13252635,413.91442,118.07556)"
         id="g3813-3-2-2-7-5">
        <path
           style="display:inline;overflow:visible;visibility:visible;fill:url(#linearGradient58625);fill-opacity:1;fill-rule:evenodd;stroke:#000137;stroke-width:2.35117;stroke-linecap:round;stroke-linejoin:round;stroke-miterlimit:4;stroke-dasharray:none;stroke-dashoffset:0;stroke-opacity:1;marker:none;enable-background:accumulate"
           d="m -159.14682,27.762572 -7.26628,4.168914 -3.20873,-1.113515 -3.06139,-7.823962 -4.81574,0.253068 -2.19659,8.090466 -3.07424,1.472191 -7.66769,-3.354213 -3.23863,3.598875 4.16893,7.266276 -1.13925,3.199324 -7.82397,3.061399 0.27879,4.825129 8.09048,2.196583 1.47219,3.074238 -3.37993,7.658303 3.59887,3.238623 7.26627,-4.168916 3.22506,1.148635 3.03567,7.81457 4.85085,-0.269405 2.17086,-8.099855 3.07425,-1.472193 7.68401,3.389334 3.23863,-3.598876 -4.16892,-7.266274 1.1229,-3.234445 7.81458,-3.035677 -0.24366,-4.841457 -8.09987,-2.170857 -1.4722,-3.074238 3.36361,-7.693423 z m -10.88267,11.915801 1.49161,0.865459 1.29232,1.171703 1.03462,1.398312 0.74426,1.554681 0.43759,1.67593 0.0725,1.71754 -0.24807,1.717095 -0.56614,1.630089 -0.90058,1.507949 -1.13658,1.275982 -1.39832,1.034618 -1.55468,0.744257 -1.67593,0.43758 -1.72693,0.09823 -1.71711,-0.248055 -1.63008,-0.566152 -1.50794,-0.900579 -1.26661,-1.162311 -1.04399,-1.372584 -0.74428,-1.554679 -0.42818,-1.701656 -0.0982,-1.726934 0.24806,-1.717099 0.56616,-1.630085 0.89118,-1.482225 1.14599,-1.301706 1.3983,-1.034618 1.55468,-0.744261 1.70165,-0.428183 1.71754,-0.0725 1.7171,0.248053 1.63009,0.566153 z"
           id="path3659-5-9-6-17-0"
           inkscape:connector-curvature="0" />
        <path
           style="display:inline;overflow:visible;visibility:visible;fill:none;stroke:#729fcf;stroke-width:2.35117;stroke-linecap:round;stroke-linejoin:round;stroke-miterlimit:4;stroke-dasharray:none;stroke-dashoffset:0;stroke-opacity:1;marker:none;enable-background:accumulate"
           d="m -159.40722,30.604211 -6.78206,3.885229 -5.11355,-1.83873 -2.97765,-7.211069 -1.43915,0.07782 -2.07148,7.584439 -4.99186,2.2766 -7.06968,-3.072549 -0.94649,1.083504 3.90414,6.857637 -1.95648,5.010571 -7.1355,2.845405 0.0822,1.531739 7.52777,2.062954 2.33329,4.991861 -3.11471,7.061187 1.0457,0.908702 6.7065,-3.828556 5.39281,1.889398 2.65209,7.164787 1.44166,-0.01704 2.09636,-7.536257 4.8974,-2.446633 7.38672,3.161002 0.88982,-0.951258 -3.90413,-6.687603 1.6772,-5.250163 7.33482,-2.916596 -0.0504,-1.508727 -7.44181,-1.907432 -2.46554,-5.048537 3.11884,-7.22521 z"
           id="path3659-5-6-1-1-27-9"
           inkscape:connector-curvature="0"
           sodipodi:nodetypes="ccccccccccccccccccccccccccccccccc" />
        <circle
           style="fill:none;stroke:#729fcf;stroke-width:1.81197;stroke-linecap:round;stroke-linejoin:round;stroke-miterlimit:4;stroke-dasharray:none;stroke-dashoffset:6;stroke-opacity:1"
           id="path3898-2-8-22-6"
           transform="matrix(1.2975787,0,0,1.2975787,-227.20403,-4.4100648)"
           cx="41.15683"
           cy="40.103004"
           r="8.6941996" />
        <path
           style="display:inline;overflow:visible;visibility:visible;fill:url(#linearGradient3806-5-6-0-0);fill-opacity:1;fill-rule:evenodd;stroke:#280000;stroke-width:2.35117;stroke-linecap:butt;stroke-linejoin:miter;stroke-miterlimit:4;stroke-dasharray:none;stroke-dashoffset:0;stroke-opacity:1;marker:none;enable-background:accumulate"
           d="m -217.27976,4.1846558 1e-5,68.1839092 14.10701,-2e-6 v -28.21403 h 14.10701 V 30.047518 h -14.10701 V 18.291671 h 23.51169 V 4.1846558 Z"
           id="rect3663-8-7-7-61-3"
           sodipodi:nodetypes="ccccccccccc"
           inkscape:connector-curvature="0" />
        <path
           style="display:inline;overflow:visible;visibility:visible;fill:none;stroke:#ef2929;stroke-width:2.35117;stroke-linecap:butt;stroke-linejoin:miter;stroke-miterlimit:4;stroke-dasharray:none;stroke-dashoffset:0;stroke-opacity:1;marker:none;enable-background:accumulate"
           d="m -214.92859,6.535825 v 63.481569 h 9.40468 v -28.21403 h 14.10701 v -9.404677 h -14.10701 V 15.940502 h 23.51169 V 6.535825 Z"
           id="rect3663-8-3-0-9-0-8"
           sodipodi:nodetypes="ccccccccccc"
           inkscape:connector-curvature="0" />
      </g>
      <text
         xml:space="preserve"
         style="font-size:9.27064px;line-height:1.66713px;font-family:Evolventa;-inkscape-font-specification:Evolventa;letter-spacing:0px;word-spacing:0px;fill:#ffffff;fill-opacity:1;stroke:none;stroke-width:0.579411px;stroke-linecap:butt;stroke-linejoin:miter;stroke-opacity:1"
         x="395.8504"
         y="127.71099"
         id="text4997-6-5"><tspan
           sodipodi:role="line"
           id="tspan4995-1-6"
           style="fill:#ffffff;fill-opacity:1;stroke:none;stroke-width:0.579411px"
           x="395.8504"
           y="127.71099">Free</tspan></text>
      <text
         xml:space="preserve"
         style="font-size:9.27064px;line-height:1.66713px;font-family:Evolventa;-inkscape-font-specification:Evolventa;letter-spacing:0px;word-spacing:0px;fill:#ffffff;fill-opacity:1;stroke:none;stroke-width:0.579411px;stroke-linecap:butt;stroke-linejoin:miter;stroke-opacity:1"
         x="414.96991"
         y="127.71099"
         id="text4997-3-5-1-3"><tspan
           sodipodi:role="line"
           id="tspan4995-6-9-1"
           style="font-style:normal;font-variant:normal;font-weight:bold;font-stretch:normal;font-family:Evolventa;-inkscape-font-specification:'Evolventa Bold';fill:#ffffff;fill-opacity:1;stroke:none;stroke-width:0.579411px"
           x="414.96991"
           y="127.71099">CAD</tspan></text>
    </g>
  </g>
</svg>
