<svg xmlns="http://www.w3.org/2000/svg" width="64" height="64">
  <path fill="#fff" d="M22.76 3.8c4.07 1.85 5.28 4.07 5.38 8.12l-.28-.08c-2.54-1.42-5.59-4.58-5.09-8.04zm8.79 2.56c.27.15.44.41.65.62-.57.48-2.61 2.31-2.3 5.78.02.27.26.47.53.46 1.11-.04 1.86-.41 2.51-.71a4.3 4.3 0 0 1 2.21-.51c2.08.06 3.89 1.7 4.6 2.69.7 1.07 1.55 2.37 1.58 5.61a4.1 4.1 0 0 0-1.08.39h0 0 0 0 0 0 0 0l.04-.02-.04.01c-.72-1.6-2.22-2.8-4.09-2.8-2.22 0-4 1.62-4.43 3.72-.78-1.02-1.85-1.8-3.23-1.8-1.21 0-2.17.6-2.95 1.41-.22-2.25-2.06-4.04-4.37-4.04-1.56 0-2.92.82-3.7 2.05a7.9 7.9 0 0 1 .38-1.8c1.21-3.41 3.22-4.86 5.75-5.36a4.4 4.4 0 0 1 2.35.22c.77.25 1.6.62 2.6.81.35.07.66-.23.6-.58-.27-1.59.17-3.01.8-4.14a8.2 8.2 0 0 1 1.61-2.02zm11.49 27.45h2.71c.3 0 .55.25.55.55v12.38c0 .31-.25.55-.55.55h-2.71c-.3 0-.55-.24-.55-.55V34.36c0-.31.25-.55.55-.55zm0-1.02c-.87 0-1.57.71-1.57 1.57v12.38c0 .86.7 1.57 1.57 1.57h2.71c.88 0 1.57-.71 1.57-1.57V34.36c0-.87-.71-1.57-1.57-1.57zm-20.31-2.11c-.5 0-.91.5-.91 1.11v19.3c0 .61.41 1.11.91 1.11s.91-.5.91-1.11v-19.3c0-.61-.41-1.11-.91-1.11zm-2.69-2.05a48.7 48.7 0 0 0 11.42 1.11c.34.67.78 1.31 1.43 1.7h-.01c.23.14.42.53.42.75 0 1.33 1.09 2.42 2.42 2.42.63 0 1.23-.19 1.68-.57s.74-.97.74-1.63v-.36-.04a3.9 3.9 0 0 1 .45-2.12h0c.19-.36.28-.76.36-1.16l.15-.04v24.12c0 .12-.06.23-.16.29-.95.57-3.88 2.02-9.29 2.02-5.37 0-8.4-1.19-9.43-1.68-.1-.06-.17-.17-.17-.3zm21.43-.68v1.08c0 .75.61 1.36 1.36 1.36h3.16a3.3 3.3 0 0 1 3.32 3.32V47.5a3.3 3.3 0 0 1-3.33 3.32l-3.12-.01c-.76-.02-1.39.6-1.39 1.36v3.81c0 .06-.02.16-.12.25-.82.61-4.15 2.26-11.68 2.26-7.39 0-10.9-1.24-11.85-1.79-.09-.06-.15-.17-.15-.28l-.06-28.4a15.9 15.9 0 0 1 1.44.37v24.76c0 .78.61 1.15.71 1.19 1.14.54 4.34 1.79 9.89 1.79 5.6 0 8.73-1.52 9.81-2.17.4-.26.63-.68.63-1.14v-24.4a22.3 22.3 0 0 0 1.38-.46zM21.86 2.86c-1.04 3.62 1.63 6.76 3.11 8.16-.49-.06-1.01-.06-1.57.05-2.81.55-5.21 2.34-6.51 6.02a9.3 9.3 0 0 0-.47 3.51c-1.58.43-2.74 1.83-2.74 3.55 0 1.78 1.25 3.27 2.91 3.66l.06 28.62c0 .46.24.9.63 1.14l.02.01c1.28.74 4.86 1.93 12.38 1.93 7.97 0 11.23-1.69 12.33-2.49.31-.26.49-.64.49-1.04v-3.81c0-.2.15-.35.35-.34l3.14.01c2.39.01 4.35-1.94 4.35-4.34V33.71c0-2.39-1.95-4.34-4.34-4.34h-3.16c-.19 0-.34-.15-.34-.34v-1.36c1.84-.25 3.24-1.82 3.24-3.7 0-1.94-1.49-3.54-3.38-3.71-.06-3.42-1.04-5.05-1.75-6.13 0-.01-.01-.01-.01-.02-.87-1.21-2.84-3.04-5.41-3.12a5.5 5.5 0 0 0-2.67.6c-.48.22-.99.34-1.53.45.06-2.98 2.19-4.63 2.19-4.63.23-.16.28-.48.12-.71-.29-.4-.95-1.24-1.61-1.52-.17-.07-.38-.05-.53.09a10.4 10.4 0 0 0-2.08 2.62 7.6 7.6 0 0 0-.32.63c-.96-3.15-3.36-4.86-6.2-6-.27-.11-.59.03-.68.33z"/>
</svg>
