<svg width="32" height="32" version="1.1" viewBox="0 0 8.47 8.47" xmlns="http://www.w3.org/2000/svg"><g transform="translate(0 -289)"><path transform="matrix(.265 0 0 .265 0 289)" d="m16 0a16 16 0 0 0-16 16 16 16 0 0 0 16 16 16 16 0 0 0 16-16 16 16 0 0 0-16-16zm-1.97 10.5c0.168 0 0.319 0.0273 0.453 0.0801 0.139 0.0527 0.258 0.127 0.354 0.223s0.17 0.211 0.223 0.346c0.0527 0.129 0.0781 0.273 0.0781 0.432 1e-6 0.158-0.0254 0.303-0.0781 0.438-0.0527 0.129-0.127 0.245-0.223 0.346-0.0959 0.0959-0.214 0.17-0.354 0.223-0.134 0.0527-0.285 0.0801-0.453 0.0801-0.168 0-0.32-0.0273-0.459-0.0801-0.134-0.0527-0.25-0.127-0.346-0.223-0.0959-0.101-0.17-0.216-0.223-0.346-0.0527-0.134-0.0801-0.279-0.0801-0.438 0-0.158 0.0273-0.302 0.0801-0.432 0.0527-0.134 0.127-0.25 0.223-0.346s0.211-0.17 0.346-0.223c0.139-0.0527 0.291-0.0801 0.459-0.0801zm-6.61 0.404h1.25l-0.439 2.99h0.965l0.438-2.99h1.26l-0.439 2.99h1.29v1.25h-1.47l-0.303 2.04h1.31v1.24h-1.49l-0.432 2.95h-1.26l0.432-2.95h-0.963l-0.426 2.95h-1.26l0.432-2.95h-1.32v-1.24h1.5l0.303-2.04h-1.35v-1.25h1.53l0.438-2.99zm12.5 2.54c0.0911 0 0.189 0.0101 0.295 0.0293 0.11 0.0144 0.2 0.0357 0.268 0.0645l-0.0215 2.01c-0.0911-0.00959-0.206-0.0208-0.34-0.0352-0.129-0.0144-0.242-0.0215-0.338-0.0215-0.292 0-0.529 0.0609-0.711 0.186-0.182 0.125-0.322 0.307-0.418 0.547v5.14h-2.04v-7.78h1.92l0.0566 0.842c0.153-0.312 0.34-0.554 0.561-0.727 0.225-0.173 0.482-0.26 0.77-0.26zm4.29 0c0.417 0 0.796 0.0669 1.14 0.201 0.345 0.129 0.637 0.323 0.877 0.582 0.245 0.254 0.431 0.572 0.561 0.951 0.134 0.379 0.204 0.816 0.209 1.31h-1.91c-0.0048-0.436-0.0778-0.771-0.217-1.01-0.139-0.235-0.368-0.354-0.689-0.354-0.225 0-0.407 0.0456-0.541 0.137-0.129 0.0911-0.229 0.227-0.301 0.404-0.0671 0.173-0.113 0.388-0.137 0.646-0.0192 0.254-0.0293 0.549-0.0293 0.885v0.561c0 0.34 0.0101 0.64 0.0293 0.898 0.0192 0.254 0.0618 0.468 0.129 0.641 0.0719 0.173 0.174 0.302 0.309 0.389s0.317 0.129 0.547 0.129c0.283 0 0.501-0.0852 0.654-0.258 0.158-0.177 0.241-0.475 0.246-0.893h1.91c-0.0048 0.441-0.0788 0.839-0.223 1.19-0.144 0.35-0.341 0.648-0.59 0.893-0.245 0.245-0.535 0.431-0.871 0.561-0.336 0.129-0.698 0.195-1.09 0.195-0.523 0-0.977-0.0841-1.37-0.252-0.388-0.168-0.712-0.41-0.971-0.727-0.254-0.321-0.447-0.715-0.576-1.18-0.125-0.465-0.188-0.995-0.188-1.59v-0.561c0-0.595 0.0628-1.12 0.188-1.59 0.129-0.47 0.322-0.864 0.576-1.19 0.254-0.321 0.575-0.567 0.963-0.734s0.842-0.252 1.36-0.252zm-11.2 0.145h2.04v7.78h-2.04v-7.78zm-4.96 1.55-0.301 2.04h0.963l0.303-2.04h-0.965z" fill="#fff" style="paint-order:stroke fill markers"/></g></svg>
