<svg width="24" height="24" version="1.1" viewBox="0 0 24 24" xmlns="http://www.w3.org/2000/svg"><path d="m20.1 17.6c-0.302 0.697-0.66 1.34-1.07 1.93-0.566 0.803-1.03 1.37-1.38 1.67-0.55 0.506-1.14 0.766-1.78 0.781-0.453 0-1-0.13-1.64-0.391-0.641-0.262-1.23-0.391-1.77-0.391-0.566 0-1.17 0.13-1.81 0.391-0.647 0.263-1.17 0.4-1.57 0.413-0.606 0.0258-1.21-0.242-1.81-0.803-0.384-0.334-0.866-0.913-1.45-1.73-0.619-0.872-1.13-1.88-1.53-3.04-0.428-1.25-0.641-2.45-0.641-3.63 0-1.33 0.289-2.48 0.866-3.44 0.453-0.775 1.06-1.39 1.81-1.84 0.756-0.45 1.58-0.678 2.45-0.694 0.481 0 1.12 0.15 1.9 0.441 0.785 0.294 1.28 0.444 1.51 0.444 0.165 0 0.722-0.174 1.67-0.522 0.894-0.322 1.65-0.456 2.27-0.403 1.67 0.135 2.94 0.797 3.78 1.99-1.5 0.91-2.24 2.18-2.23 3.81 0.0135 1.27 0.475 2.33 1.38 3.16 0.413 0.391 0.872 0.691 1.38 0.906-0.111 0.322-0.227 0.628-0.353 0.925zm-3.84-15.2c0 0.997-0.363 1.93-1.09 2.79-0.875 1.03-1.93 1.61-3.09 1.52-0.0146-0.12-0.0231-0.246-0.0231-0.378 0-0.956 0.416-1.98 1.16-2.82 0.369-0.425 0.841-0.778 1.41-1.06 0.569-0.277 1.11-0.431 1.61-0.456 0.0147 0.133 0.021 0.266 0.021 0.4z" fill="#1f2932"/></svg>
