<svg width="64" height="64" version="1.1" viewBox="0 0 64 64" xmlns="http://www.w3.org/2000/svg"><path d="m57.8 49.9c-0.965 2.23-2.11 4.3-3.43 6.18-1.81 2.57-3.28 4.37-4.41 5.35-1.76 1.62-3.66 2.45-5.69 2.5-1.45 0-3.21-0.415-5.24-1.25-2.05-0.837-3.92-1.25-5.65-1.25-1.81 0-3.74 0.415-5.8 1.25-2.07 0.84-3.74 1.28-5.01 1.32-1.94 0.0825-3.88-0.773-5.8-2.57-1.23-1.07-2.77-2.92-4.64-5.54-1.98-2.79-3.61-6.03-4.9-9.72-1.37-3.99-2.05-7.84-2.05-11.6 0-4.26 0.923-7.95 2.77-11 1.45-2.48 3.39-4.45 5.8-5.88 2.42-1.44 5.05-2.17 7.84-2.22 1.54 0 3.57 0.479 6.07 1.41 2.51 0.942 4.11 1.42 4.82 1.42 0.528 0 2.31-0.558 5.35-1.67 2.86-1.03 5.28-1.46 7.27-1.29 5.35 0.433 9.42 2.55 12.1 6.37-4.79 2.91-7.16 6.97-7.12 12.2 0.0433 4.07 1.52 7.46 4.41 10.1 1.32 1.25 2.79 2.21 4.41 2.9-0.355 1.03-0.727 2.01-1.13 2.96zm-12.3-48.6c0 3.19-1.16 6.18-3.49 8.93-2.8 3.28-6.18 5.16-9.87 4.86-0.0467-0.384-0.0739-0.788-0.0739-1.21 0-3.06 1.33-6.33 3.7-9.01 1.18-1.36 2.69-2.49 4.52-3.39 1.82-0.886 3.54-1.38 5.16-1.46 0.0471 0.426 0.0671 0.852 0.0671 1.28z" fill="#1f2932"/></svg>
