<svg width="32" height="32" enable-background="new 0 0 793.322 340.809" version="1.1" viewBox="0 0 32 32" xml:space="preserve" xmlns="http://www.w3.org/2000/svg">
<path d="m16 0a16 16 0 0 0-16 16 16 16 0 0 0 16 16 16 16 0 0 0 16-16 16 16 0 0 0-16-16zm-10.9 11.3h0.889c0.0306 0 0.0547 0.0241 0.0547 0.0547v0.213c0 0.0306-0.0241 0.0566-0.0547 0.0566h-0.586v8.8h0.586c0.0306 0 0.0547 0.026 0.0547 0.0566v0.213c0 0.0306-0.0241 0.0547-0.0547 0.0547h-0.889c-0.0306 0-0.0547-0.0241-0.0547-0.0547v-9.34c0-0.0306 0.0241-0.0547 0.0547-0.0547zm21 0h0.889c0.0306 0 0.0547 0.0241 0.0547 0.0547v9.34c0 0.0306-0.0241 0.0547-0.0547 0.0547h-0.889c-0.0306 0-0.0547-0.0241-0.0547-0.0547v-0.213c0-0.0306 0.0241-0.0566 0.0547-0.0566h0.586v-8.8h-0.586c-0.0306 0-0.0547-0.026-0.0547-0.0566v-0.213c0-0.0306 0.0241-0.0547 0.0547-0.0547zm-5.22 1.77h0.916c0.0306 0 0.0547 0.0241 0.0547 0.0547v0.754c-3e-5 0.0306-0.0241 0.0547-0.0547 0.0547h-0.916c-0.0306 0-0.0547-0.0241-0.0547-0.0547v-0.754c0-0.0306 0.0241-0.0547 0.0547-0.0547zm-4.55 0.27h0.916c0.0306 0 0.0547 0.026 0.0547 0.0566v0.943h0.615c0.0306 0 0.0547 0.0241 0.0547 0.0547v0.611c0 0.0306-0.0241 0.0566-0.0547 0.0566h-0.615v1.59c0 0.173 0.0327 0.242 0.0605 0.27 0.0278 0.0279 0.0987 0.0605 0.271 0.0605 0.05 0 0.0977-0.00176 0.143-0.00586 0.0445-0.00399 0.0874-0.00928 0.129-0.0176 0.00363-7.36e-4 0.00812-0.00195 0.0117-0.00195 0.0127 0 0.0251 0.00547 0.0352 0.0137 0.0128 0.0105 0.0195 0.0263 0.0195 0.043v0.707c0 0.0272-0.0201 0.0502-0.0469 0.0547-0.0786 0.0131-0.167 0.0228-0.264 0.0273-0.1 0.0043-0.191 0.00586-0.279 0.00586-0.144 0-0.283-0.00967-0.412-0.0293-0.133-0.0203-0.252-0.0601-0.354-0.119-0.105-0.0606-0.189-0.148-0.25-0.26-0.06-0.111-0.0898-0.257-0.0898-0.434v-1.91h-0.5c-0.0306 0-0.0547-0.026-0.0547-0.0566v-0.611c0-0.0306 0.0241-0.0547 0.0547-0.0547h0.5v-0.943c0-0.0306 0.0241-0.0566 0.0547-0.0566zm-7.47 0.908c0.218 0 0.421 0.0442 0.602 0.129 0.161 0.0755 0.289 0.201 0.383 0.375 0.0956-0.121 0.216-0.231 0.361-0.326 0.178-0.117 0.391-0.178 0.633-0.178 0.18 0 0.351 0.0223 0.506 0.0664 0.158 0.0451 0.295 0.119 0.408 0.219 0.113 0.1 0.202 0.233 0.266 0.393 0.0624 0.159 0.0938 0.35 0.0938 0.57v2.23c-2.1e-5 0.0306-0.024 0.0566-0.0547 0.0566h-0.916c-0.0306 0-0.0547-0.026-0.0547-0.0566v-1.89c0-0.11-0.00527-0.214-0.0137-0.311-0.00801-0.091-0.0296-0.17-0.0645-0.236-0.0334-0.0631-0.0828-0.115-0.148-0.152-0.0664-0.0378-0.161-0.0566-0.279-0.0566-0.118 0-0.213 0.0208-0.283 0.0645-0.0711 0.0443-0.128 0.103-0.168 0.174-0.0415 0.0733-0.0681 0.158-0.082 0.252-0.0146 0.0974-0.0234 0.197-0.0234 0.297v1.86c0 0.0306-0.0241 0.0566-0.0547 0.0566h-0.916c-0.0306 0-0.0547-0.026-0.0547-0.0566v-1.87c0-0.0953-0.0017-0.193-0.00586-0.291-0.0041-0.0902-0.021-0.175-0.0508-0.25-0.0282-0.0713-0.0746-0.126-0.141-0.17-0.0658-0.043-0.167-0.0645-0.301-0.0645-0.038 0-0.0907 0.00937-0.156 0.0273-0.0632 0.0173-0.125 0.0491-0.186 0.0977-0.0597 0.048-0.113 0.12-0.156 0.213-0.0435 0.0931-0.0664 0.219-0.0664 0.373v1.93c0 0.0306-0.024 0.0566-0.0547 0.0566h-0.914c-0.0306 0-0.0566-0.026-0.0566-0.0566v-3.33c0-0.0306 0.026-0.0547 0.0566-0.0547h0.863c0.0306 0 0.0547 0.0241 0.0547 0.0547v0.305c0.106-0.125 0.229-0.225 0.365-0.301 0.177-0.0987 0.382-0.15 0.609-0.15zm5.19 0c0.169 0 0.342 0.0133 0.516 0.0371 0.177 0.0244 0.342 0.0717 0.488 0.143 0.149 0.0722 0.272 0.175 0.367 0.305 0.097 0.132 0.146 0.306 0.146 0.52v1.73c1e-6 0.147 0.0085 0.291 0.0254 0.426 0.016 0.129 0.0435 0.224 0.082 0.285 0.0107 0.0171 0.0118 0.039 0.00195 0.0566-0.00979 0.0176-0.0286 0.0293-0.0488 0.0293h-0.928c-0.0239 0-0.0451-0.0164-0.0527-0.0391-0.0179-0.0538-0.032-0.109-0.043-0.164-0.00391-0.0193-0.00667-0.0387-0.00977-0.0586-0.134 0.116-0.287 0.2-0.457 0.252-0.202 0.0615-0.413 0.0938-0.623 0.0938-0.163 0-0.317-0.0208-0.459-0.0605-0.144-0.0406-0.273-0.104-0.381-0.189-0.109-0.0864-0.196-0.198-0.258-0.33-0.0612-0.131-0.0918-0.289-0.0918-0.469 0-0.198 0.0366-0.362 0.107-0.492 0.0705-0.13 0.163-0.235 0.275-0.312 0.11-0.0763 0.236-0.134 0.377-0.172 0.136-0.0367 0.277-0.0679 0.416-0.0898 0.138-0.0215 0.275-0.0378 0.408-0.0508 0.13-0.0125 0.246-0.0317 0.346-0.0566 0.0946-0.0237 0.171-0.0577 0.225-0.102 0.0462-0.038 0.0659-0.0951 0.0625-0.172-5e-5 -0.0912-0.0136-0.16-0.041-0.209-0.0277-0.0499-0.0638-0.0878-0.109-0.115-0.0472-0.0283-0.103-0.0489-0.166-0.0586-0.0685-0.0103-0.143-0.0137-0.221-0.0137-0.167 0-0.3 0.0339-0.393 0.104-0.0897 0.0672-0.143 0.184-0.158 0.348-0.00272 0.0284-0.0261 0.0508-0.0547 0.0508h-0.916c-0.0153 0-0.0286-0.00649-0.0391-0.0176-0.0104-0.0112-0.0165-0.0258-0.0156-0.041 0.0134-0.224 0.0703-0.413 0.17-0.562 0.0984-0.148 0.226-0.269 0.379-0.359 0.15-0.0885 0.322-0.152 0.51-0.189 0.185-0.037 0.375-0.0566 0.562-0.0566zm6.26 0c0.0649 0 0.137 0.0123 0.215 0.0352 0.0236 0.00693 0.041 0.0281 0.041 0.0527v0.852c0 0.0166-0.00864 0.0324-0.0215 0.043-0.01 0.00817-0.0225 0.0117-0.0352 0.0117-0.00369 0-0.00606 7.21e-4 -0.00976 0-0.0412-0.00832-0.0924-0.0172-0.15-0.0234-0.0582-0.0062-0.115-0.00781-0.168-0.00781-0.158 0-0.292 0.0262-0.4 0.0781-0.107 0.0516-0.195 0.122-0.26 0.211-0.0662 0.0905-0.115 0.198-0.143 0.318-0.0289 0.124-0.043 0.261-0.043 0.406v1.5c-2e-5 0.0306-0.026 0.0566-0.0566 0.0566h-0.914c-0.0306 0-0.0547-0.026-0.0547-0.0566v-3.33c0-0.0306 0.0241-0.0547 0.0547-0.0547h0.869c0.0306 0 0.0566 0.0241 0.0566 0.0547v0.418c0.0268-0.042 0.0556-0.0822 0.0879-0.121 0.0764-0.0918 0.165-0.171 0.264-0.236 0.0983-0.0647 0.205-0.116 0.316-0.152 0.112-0.036 0.231-0.0547 0.352-0.0547zm0.586 0.0918h0.916c0.0306 0 0.0547 0.0241 0.0547 0.0547v3.33c-3e-5 0.0306-0.0241 0.0566-0.0547 0.0566h-0.916c-0.0306 0-0.0547-0.026-0.0547-0.0566v-3.33c0-0.0306 0.0241-0.0547 0.0547-0.0547zm1.39 0h1.04c0.0184 0 0.0366 0.00813 0.0469 0.0234l0.539 0.801 0.535-0.801c0.0103-0.0154 0.0264-0.0234 0.0449-0.0234h1.01c0.0207 0 0.0392 0.0109 0.0488 0.0293 0.00956 0.0183 0.00992 0.0397-0.00195 0.0566l-1.07 1.53 1.21 1.74c0.0117 0.0169 0.0135 0.0403 0.00391 0.0586-0.00952 0.0184-0.0282 0.0293-0.0488 0.0293h-1.04c-0.0186 0-0.0366-0.00983-0.0469-0.0254l-0.648-0.98-0.65 0.98c-0.0102 0.0156-0.0263 0.0254-0.0449 0.0254h-1.03c-0.0206 0-0.0392-0.0111-0.0488-0.0293-0.00952-0.0181-0.00768-0.0416 0.00391-0.0586l1.18-1.72-1.07-1.55c-0.0118-0.017-0.0135-0.0383-0.00391-0.0566 0.00952-0.0182 0.0282-0.0293 0.0488-0.0293zm-7.74 1.86c-0.0224 0.0113-0.0468 0.0208-0.0723 0.0293-0.0599 0.02-0.125 0.0374-0.193 0.0508-0.0677 0.0132-0.139 0.0245-0.213 0.0332-0.073 0.00862-0.147 0.0188-0.217 0.0312-0.0646 0.012-0.13 0.0278-0.195 0.0488-0.0608 0.0197-0.114 0.0475-0.158 0.0801-0.0425 0.0313-0.0773 0.0707-0.104 0.119-0.0254 0.0474-0.0391 0.111-0.0391 0.188 0 0.072 0.0136 0.132 0.0391 0.18 0.0257 0.0478 0.0599 0.0841 0.104 0.111 0.0456 0.0285 0.0987 0.0471 0.16 0.0586 0.065 0.0122 0.134 0.0195 0.203 0.0195 0.169 0 0.301-0.0275 0.391-0.082 0.09-0.0547 0.157-0.12 0.199-0.195 0.0435-0.0771 0.0704-0.156 0.0801-0.234 0.0104-0.0837 0.0156-0.151 0.0156-0.199v-0.238z" fill="#fff" style="paint-order:stroke fill markers"/>























</svg>
