<svg width="32" height="32" version="1.1" viewBox="0 0 8.47 8.47" xmlns="http://www.w3.org/2000/svg"><g transform="translate(0 -289)"><path transform="matrix(.265 0 0 .265 0 289)" d="m16 0a16 16 0 0 0-16 16 16 16 0 0 0 16 16 16 16 0 0 0 16-16 16 16 0 0 0-16-16zm-7.77 5h0.881 0.879v6.84 6.85h-0.879-0.881v-6.85-6.84zm4.6 3.71h0.881 0.879v9.14 9.14h-0.879-0.881v-9.14-9.14zm4.6 0h0.879 0.881v9.14 9.14h-0.881-0.879v-9.14-9.14zm4.6 0h0.879 0.881v4.99 4.99h-0.881-0.879v-4.99-4.99z" fill="#fff" style="paint-order:stroke fill markers"/></g></svg>
