<svg width="32" height="32" data-name="Reddit logo" version="1.1" viewBox="0 0 32 32" xmlns="http://www.w3.org/2000/svg"><defs><style>.cls-1{fill:#ff4500;}.cls-2{fill:#fff;}</style></defs><path d="m16 0a16 16 0 0 0-16 16 16 16 0 0 0 16 16 16 16 0 0 0 16-16 16 16 0 0 0-16-16zm1.37 5.4a0.529 0.529 0 0 1 0.139 0.0117l4.32 0.957a1.71 1.71 0 1 1-0.18 0.957l-3.92-0.869-1.33 5.71a12.3 12.3 0 0 1 7.11 2.35 2.52 2.52 0 0 1 3.86 0.303 2.46 2.46 0 0 1 0.135 0.238 2.61 2.61 0 0 1-1.18 3.49 6.1 6.1 0 0 1-2.61 5.71 12.9 12.9 0 0 1-7.72 2.33 12.9 12.9 0 0 1-7.72-2.33 6.1 6.1 0 0 1-2.61-5.71 2.46 2.46 0 0 1-0.238-0.133 2.61 2.61 0 0 1-0.803-3.59 2.7 2.7 0 0 1 0.293-0.346 2.53 2.53 0 0 1 3.57 0.0371 12.3 12.3 0 0 1 6.92-2.35l1.47-6.37a0.529 0.529 0 0 1 0.49-0.41zm-5.41 10.9a1.73 1.73 0 0 0-1.73 1.73 1.73 1.73 0 1 0 1.73-1.73zm8.09 0a1.73 1.73 0 0 0-1.73 1.73 1.73 1.73 0 1 0 1.73-1.73zm-8.15 5.82a0.398 0.398 0 0 0-0.27 0.678 7.4 7.4 0 0 0 8.75 0 0.398 0.398 0 0 0-0.426-0.652 6.75 6.75 0 0 1-7.89 0 0.398 0.398 0 0 0-0.156-0.0254z" fill="#fff" stroke-width=".327"/></svg>
