<svg width="32" height="32" aria-labelledby="simpleicons-mastodon-icon" role="img" version="1.1" viewBox="0 0 32 32" xmlns="http://www.w3.org/2000/svg"><path d="m16 0a16 16 0 0 0-16 16 16 16 0 0 0 16 16 16 16 0 0 0 16-16 16 16 0 0 0-16-16zm-0.0293 6h0.0625c2.56 0.0208 5.02 0.297 6.45 0.955 0 0 2.84 1.27 2.84 5.61 0 0 0.0344 3.2-0.396 5.42-0.274 1.41-2.45 2.96-4.96 3.26-1.31 0.155-2.6 0.297-3.97 0.234-2.24-0.103-4.01-0.535-4.01-0.535a4.58 4.58 0 0 0 0.0391 0.621c0.292 2.22 2.2 2.35 4 2.41 1.82 0.0617 3.44-0.449 3.44-0.449l0.0742 1.65s-1.27 0.686-3.54 0.811c-1.25 0.0692-2.8-0.0314-4.61-0.51-3.92-1.04-4.6-5.22-4.7-9.46-0.0317-1.26-0.0117-2.45-0.0117-3.44 0-4.34 2.84-5.61 2.84-5.61 1.43-0.658 3.89-0.934 6.45-0.955zm-2.89 3.39c-0.921 0-1.66 0.323-2.23 0.955-0.549 0.631-0.822 1.48-0.822 2.56v5.25h2.08v-5.1c0-1.07 0.451-1.62 1.36-1.62 1 0 1.5 0.646 1.5 1.93v2.79h2.07v-2.79c0-1.28 0.502-1.93 1.5-1.93 0.904 0 1.36 0.546 1.36 1.62v5.1h2.08v-5.25c0-1.07-0.272-1.93-0.82-2.56-0.567-0.632-1.31-0.955-2.23-0.955-1.07 0-1.87 0.409-2.41 1.23l-0.518 0.869-0.518-0.869c-0.533-0.819-1.34-1.23-2.41-1.23z" fill="#fff" style="paint-order:stroke fill markers"/></svg>
