<svg width="24" height="24" version="1.1" viewBox="0 0 24 24" xmlns="http://www.w3.org/2000/svg"><g transform="matrix(.313 0 0 .313 2 14.5)"><path d="m56.5 10.5c-7.45e-4 -7.49e-4 -0.0016-0.0016-0.0016-0.0022-0.453-0.511-0.668-1.46-0.9-2.47-0.231-1.01-0.49-2.1-1.32-2.8-0.0016-0.0016-0.0038-3e-3 -0.0053-0.0045-0.164-0.143-0.333-0.264-0.502-0.365-0.17-0.101-0.342-0.183-0.515-0.248 1.15-3.41 0.7-6.81-0.462-9.89-1.43-3.77-3.92-7.06-5.82-9.3-2.13-2.69-4.21-5.23-4.17-9 0.0633-5.75 0.632-16.4-9.48-16.4-0.411-7.46e-4 -0.84 0.0164-1.29 0.0522-11.3 0.909-8.3 12.8-8.47 16.8-0.207 2.92-0.799 5.23-2.81 8.08-2.36 2.81-5.69 7.35-7.26 12.1-0.743 2.23-1.1 4.51-0.771 6.66-0.102 0.0918-0.199 0.188-0.292 0.287-0.693 0.741-1.21 1.64-1.78 2.24-0.533 0.533-1.29 0.735-2.13 1.03-0.836 0.3-1.75 0.742-2.31 1.81 0 0 0 8.2e-4 -7.46e-4 8.2e-4 -7.46e-4 0.0015-0.00149 0.0037-0.00298 0.0053-0.262 0.489-0.347 1.02-0.347 1.55 0 0.495 0.0731 0.996 0.147 1.48 0.154 1 0.31 1.95 0.103 2.6-0.661 1.81-0.746 3.06-0.281 3.96 0.467 0.909 1.43 1.31 2.51 1.54 2.17 0.452 5.1 0.34 7.42 1.57l0.199-0.375-0.197 0.376c2.48 1.3 4.99 1.75 6.99 1.3 1.45-0.331 2.63-1.2 3.24-2.53 1.57-0.0076 3.29-0.671 6.04-0.823 1.87-0.151 4.2 0.664 6.89 0.515 0.0702 0.291 0.172 0.572 0.31 0.838 0.0016 0.0022 3e-3 0.0053 0.0045 0.0076 1.04 2.08 2.97 3.03 5.04 2.87 2.06-0.163 4.26-1.38 6.03-3.49l-0.325-0.273 0.328 0.27c1.69-2.05 4.5-2.9 6.36-4.02 0.93-0.561 1.68-1.26 1.74-2.28 0.058-1.02-0.541-2.16-1.92-3.69z" fill="#1f2932" stroke-width="3.2"/><g transform="translate(0,-40)" fill="#fff" stroke-width="3.2"><path d="m57.6 54.1c-0.0359 0.63-0.492 1.1-1.33 1.6-1.68 1.02-4.67 1.9-6.57 4.21-1.65 1.97-3.67 3.05-5.45 3.19s-3.31-0.597-4.21-2.41l-0.0016-0.0037-0.0022-0.0045c-0.561-1.07-0.328-2.75 0.145-4.52 0.472-1.77 1.15-3.6 1.24-5.08v-0.0045c0.0954-1.9 0.202-3.56 0.521-4.84s0.821-2.14 1.71-2.63c0.0418-0.0223 0.0827-0.044 0.124-0.0642 0.101 1.64 0.915 3.32 2.35 3.68 1.57 0.415 3.84-0.936 4.8-2.04 0.192-0.0076 0.378-0.017 0.56-0.0215 0.841-0.02 1.55 0.0284 2.27 0.658l0.0022 0.0022 0.0022 0.0016c0.554 0.469 0.817 1.36 1.05 2.35 0.228 0.993 0.41 2.07 1.1 2.84l7.49e-4 7.48e-4 7.44e-4 0.0016c1.32 1.46 1.74 2.45 1.7 3.08z"/><path d="m25.6 58.8-7.46e-4 0.0045v0.0053c-0.152 2-1.28 3.08-3.01 3.48-1.73 0.395-4.07 0.0016-6.41-1.22-7.46e-4 0-0.0015-7.45e-4 -0.0022-7.45e-4 -2.59-1.37-5.67-1.23-7.64-1.65-0.987-0.206-1.63-0.516-1.93-1.09-0.295-0.577-0.302-1.58 0.326-3.3l0.00298-0.0076 0.00224-0.0076c0.311-0.959 0.0806-2.01-0.0701-2.99-0.151-0.984-0.225-1.88 0.112-2.5l0.00298-6e-3c0.43-0.83 1.06-1.13 1.85-1.41 0.784-0.281 1.71-0.502 2.45-1.24l0.0045-0.0037 0.0037-0.0037c0.678-0.716 1.19-1.61 1.78-2.25 0.503-0.537 1.01-0.893 1.77-0.898 9e-3 8.2e-4 0.0172 8.2e-4 0.0261 0 0.133 8.2e-4 0.274 0.0121 0.423 0.0352 1.01 0.152 1.89 0.856 2.73 2l2.44 4.45 7.46e-4 0.0022 0.0015 0.0015c0.65 1.36 2.02 2.85 3.19 4.37 1.16 1.52 2.06 3.05 1.95 4.22z"/><path d="m37.8 17.3c-0.196-0.384-0.597-0.75-1.28-1.03l-0.0015-7.46e-4 -0.0022-7.46e-4c-1.42-0.607-2.03-0.651-2.83-1.17-1.29-0.828-2.35-1.12-3.24-1.11-0.463 0.0015-0.877 0.0836-1.25 0.212-1.08 0.371-1.79 1.14-2.24 1.57l-7.46e-4 7.46e-4c0 7.46e-4 -7.46e-4 7.46e-4 -7.46e-4 0.0015-0.088 0.0836-0.201 0.16-0.476 0.361-0.277 0.202-0.692 0.507-1.29 0.954-0.53 0.398-0.703 0.915-0.519 1.52 0.183 0.607 0.768 1.31 1.84 1.91l0.0015 0.0015 0.0022 7.47e-4c0.664 0.39 1.12 0.916 1.64 1.33 0.26 0.209 0.534 0.395 0.864 0.536s0.715 0.237 1.2 0.265c1.13 0.0657 1.96-0.274 2.7-0.695 0.736-0.42 1.36-0.934 2.08-1.17l0.0015-7.46e-4 0.0016-7.47e-4c1.47-0.458 2.51-1.38 2.84-2.26 0.164-0.439 0.159-0.855-0.0366-1.24z"/></g><path d="m34.1-20.5c-1.17 0.608-2.53 1.35-3.98 1.35s-2.59-0.67-3.42-1.32c-0.412-0.326-0.746-0.651-0.998-0.886-0.438-0.345-0.385-0.83-0.205-0.815 0.301 0.0376 0.347 0.434 0.537 0.612 0.257 0.24 0.578 0.551 0.968 0.86 0.779 0.617 1.82 1.22 3.12 1.22s2.81-0.762 3.74-1.28c0.524-0.294 1.19-0.821 1.74-1.22 0.416-0.306 0.401-0.674 0.745-0.634 0.344 0.0401 0.0895 0.407-0.392 0.828-0.481 0.42-1.23 0.978-1.85 1.3z" fill="#202020" stroke-width="5.12"/><g stroke-width="3.2"><g transform="translate(0,-40)" fill="#fff"><path d="m51.9 44.4c-0.162-6e-3 -0.322-0.0053-0.477-0.0015-0.0144 7.45e-4 -0.0284 7.45e-4 -0.0433 7.45e-4 0.401-1.27-0.486-2.2-2.85-3.27-2.45-1.08-4.4-0.971-4.73 1.22-0.0208 0.114-0.0381 0.231-0.0507 0.349-0.184 0.0642-0.367 0.145-0.552 0.245-1.15 0.63-1.78 1.77-2.13 3.17-0.348 1.4-0.449 3.09-0.545 4.99v0.0015c-0.0589 0.956-0.453 2.25-0.851 3.62-4.01 2.86-9.58 4.1-14.3 0.875-0.32-0.507-0.688-1.01-1.07-1.5-0.242-0.316-0.49-0.63-0.736-0.941 0.485 7.45e-4 0.898-0.0791 1.23-0.23 0.415-0.189 0.706-0.49 0.851-0.878 0.288-0.775-0.0015-1.87-0.924-3.12-0.923-1.25-2.49-2.66-4.78-4.07v-7.48e-4c-1.69-1.05-2.63-2.34-3.07-3.73-0.442-1.4-0.38-2.91-0.0395-4.4 0.654-2.86 2.33-5.65 3.4-7.39 0.288-0.212 0.103 0.394-1.08 2.6-1.06 2.02-3.05 6.67-0.33 10.3 0.0731-2.58 0.69-5.22 1.73-7.69 1.51-3.42 4.67-9.35 4.92-14.1 0.13 0.094 0.574 0.394 0.771 0.507 7.46e-4 7.46e-4 7.46e-4 7.46e-4 0.0015 7.46e-4 0.579 0.341 1.01 0.839 1.58 1.29 0.565 0.454 1.27 0.845 2.34 0.907 0.102 6e-3 0.202 9e-3 0.3 9e-3 1.1 0 1.95-0.358 2.67-0.766 0.775-0.443 1.39-0.934 1.98-1.13 7.46e-4 -7.46e-4 0.0015-7.46e-4 0.0022-7.46e-4 1.24-0.388 2.23-1.07 2.79-1.87 0.964 3.8 3.21 9.29 4.65 12 0.766 1.42 2.29 4.44 2.95 8.08 0.417-0.0128 0.877 0.0477 1.37 0.174 1.72-4.46-1.46-9.27-2.91-10.6-0.587-0.57-0.616-0.825-0.324-0.813 1.58 1.4 3.65 4.2 4.4 7.37 0.344 1.44 0.417 2.96 0.0484 4.46 0.18 0.0746 0.363 0.156 0.549 0.244 2.76 1.35 3.78 2.52 3.29 4.11z"/><path d="m37.9 12.9c6e-3 0.753-0.124 1.39-0.41 2.05-0.163 0.373-0.35 0.686-0.574 0.958-0.0762-0.0366-0.155-0.0716-0.237-0.105-0.284-0.122-0.536-0.222-0.761-0.307s-0.401-0.143-0.583-0.206c0.131-0.159 0.39-0.346 0.487-0.581 0.146-0.354 0.218-0.701 0.231-1.11 0-0.0164 0.0052-0.0306 0.0052-0.05 0.0082-0.395-0.044-0.733-0.16-1.08-0.121-0.363-0.275-0.624-0.497-0.842-0.223-0.217-0.445-0.316-0.713-0.325-0.0127-7.46e-4 -0.0246-7.46e-4 -0.0373-7.46e-4 -0.251 7.46e-4 -0.469 0.0873-0.694 0.275-0.237 0.198-0.412 0.451-0.558 0.803-0.145 0.352-0.217 0.701-0.231 1.12-0.0022 0.0164-0.0022 0.0306-0.0022 0.047-0.0052 0.228 0.0097 0.437 0.0448 0.64-0.513-0.256-1.17-0.442-1.62-0.551-0.0261-0.196-0.041-0.398-0.0455-0.61v-0.0574c-0.0082-0.751 0.115-1.39 0.404-2.05 0.289-0.654 0.646-1.12 1.15-1.51 0.504-0.382 0.998-0.557 1.58-0.563h0.0276c0.573 0 1.06 0.169 1.57 0.533 0.511 0.372 0.88 0.836 1.18 1.48 0.291 0.633 0.431 1.25 0.445 1.98-7.2e-5 0.0194-7.2e-5 0.0358 0.0053 0.0552z"/><path d="m29.2 13.7c-0.0754 0.0216-0.148 0.0448-0.221 0.0694-0.41 0.142-0.736 0.298-1.05 0.506 0.0306-0.218 0.0351-0.439 0.0112-0.686-0.0022-0.0134-0.0022-0.0246-0.0022-0.038-0.0328-0.328-0.102-0.602-0.218-0.88-0.123-0.289-0.261-0.492-0.442-0.649-0.164-0.142-0.319-0.207-0.491-0.206-0.0172 0-0.0351 7.46e-4 -0.053 0.0022-0.192 0.0164-0.352 0.11-0.504 0.295-0.151 0.184-0.25 0.412-0.322 0.715-0.0716 0.302-0.0903 0.599-0.0604 0.94 0 0.0134 3e-3 0.0246 3e-3 0.038 0.0328 0.331 0.0992 0.605 0.217 0.883 0.121 0.286 0.261 0.489 0.442 0.646 0.0306 0.0261 0.0604 0.05 0.0903 0.0709-0.188 0.145-0.314 0.249-0.47 0.362-0.0992 0.0724-0.217 0.159-0.354 0.26-0.299-0.281-0.533-0.633-0.737-1.1-0.242-0.549-0.371-1.1-0.41-1.75v-0.0052c-0.0358-0.649 0.0276-1.21 0.206-1.78 0.179-0.577 0.418-0.995 0.765-1.34 0.346-0.344 0.695-0.517 1.12-0.539 0.0328-0.00149 0.0649-0.00224 0.097-0.00224 0.381 7.46e-4 0.721 0.128 1.07 0.409 0.382 0.305 0.671 0.695 0.912 1.25 0.242 0.55 0.372 1.1 0.407 1.75v0.0052c0.0172 0.272 0.0149 0.529-0.0067 0.777z"/></g><path d="m31.2-24.8c0.0483 0.155 0.298 0.129 0.442 0.204 0.127 0.0652 0.228 0.208 0.371 0.212 0.136 0.0039 0.347-0.047 0.365-0.182 0.0234-0.178-0.237-0.291-0.404-0.356-0.215-0.0839-0.491-0.126-0.693-0.0142-0.0463 0.0257-0.0968 0.086-0.081 0.137z" fill="#202020"/><path d="m29.7-24.8c-0.0483 0.155-0.298 0.129-0.442 0.204-0.127 0.0652-0.228 0.208-0.371 0.212-0.136 0.0039-0.347-0.047-0.365-0.182-0.0234-0.178 0.237-0.291 0.404-0.356 0.215-0.0839 0.491-0.126 0.693-0.0142 0.0463 0.0257 0.0968 0.086 0.081 0.137z" fill="#202020"/></g></g></svg>
