<svg xmlns="http://www.w3.org/2000/svg" fill="#ffffff" width="64" height="64">
  <path d="M32 7.89a2.16 2.16 0 0 1 1.08.29l19.01 10.97a2.16 2.16 0 0 1 .79.79L32 32v24.1a2.16 2.16 0 0 1-1.08-.29L11.91 44.84a2.16 2.16 0 0 1-1.08-1.87V21.03a2.16 2.16 0 0 1 .29-1.08L32 32V7.9zM32 2a8.05 8.05 0 0 0-4.02 1.08L8.97 14.05a8.05 8.05 0 0 0-4.02 6.97v21.95a8.05 8.05 0 0 0 4.02 6.97l19.01 10.97a8.05 8.05 0 0 0 8.05 0l19.01-10.97a8.05 8.05 0 0 0 4.02-6.98V21.03a8.05 8.05 0 0 0-4.02-6.97L36.02 3.08A8.05 8.05 0 0 0 32 2z"/>
</svg>
