<svg xmlns="http://www.w3.org/2000/svg" width="64" height="64">
  <path fill="#fff" d="M59.87 55.34h1v.15h-.41v1.16h-.18v-1.16h-.41zm1.12 0h.24l.23.67.23-.67h.24v1.31h-.16v-1.16l-.23.69h-.13l-.23-.69v1.16h-.16zM32 3c-2.58 6.33-4.14 10.48-7.02 16.62a45.3 45.3 0 0 0 7.44 6.49c-3.78-1.55-6.35-3.1-8.28-4.72C20.47 29.07 14.69 39.99 3 61c9.19-5.31 16.32-8.57 22.96-9.82-.43-1.83-.45-3.38-.42-4.23.15-5.89 3.21-10.43 6.84-10.12s6.45 5.34 6.31 11.23a16.6 16.6 0 0 1-.37 3.16C44.88 52.51 51.93 55.77 61 61l-4.92-9.08c-2.4-1.86-4.9-4.28-10.01-6.9 3.51.91 6.03 1.96 7.99 3.14C38.57 19.31 37.31 15.47 32 3z"/>
</svg>
