<svg version="1.1" viewBox="0 0 16 16" xmlns="http://www.w3.org/2000/svg"><defs><linearGradient id="c" x1="-207" x2="-211" y1="68.8" y2="7.71" gradientTransform="matrix(.227 0 0 .227 49.6 -.681)" gradientUnits="userSpaceOnUse"><stop stop-color="#a40000" offset="0"/><stop stop-color="#ef2929" offset="1"/></linearGradient><linearGradient id="d" x1="-147" x2="-157" y1="58.3" y2="26.5" gradientTransform="matrix(.229 0 0 .229 44.9 .164)" gradientUnits="userSpaceOnUse"><stop stop-color="#204a87" offset="0"/><stop stop-color="#729fcf" offset="1"/></linearGradient></defs><g stroke-width=".533"><g stroke-linecap="round" stroke-linejoin="round"><path d="m13.5 5.61-1.65 0.946-0.728-0.253-0.694-1.77-1.09 0.0575-0.498 1.84-0.697 0.334-1.74-0.761-0.735 0.816l0.946 1.65-0.258 0.726-1.77 0.695 0.0635 1.09 1.84 0.498 0.334 0.697-0.767 1.74 0.816 0.735 1.65-0.946 0.732 0.261 0.689 1.77 1.1-0.0615 0.492-1.84 0.697-0.334 1.74 0.769 0.735-0.816-0.946-1.65 0.255-0.734 1.77-0.689-0.0555-1.1-1.84-0.492-0.334-0.697 0.763-1.75zm-2.47 2.7 0.338 0.196 0.293 0.266 0.235 0.317 0.169 0.353 0.0998 0.38 0.0162 0.39-0.0564 0.389-0.128 0.37-0.204 0.342-0.258 0.289-0.317 0.235-0.353 0.169-0.38 0.0998-0.392 0.0222l-0.39-0.0565-0.37-0.128-0.342-0.204-0.287-0.264-0.237-0.311-0.169-0.353-0.0968-0.386-0.0221-0.392 0.0564-0.389 0.128-0.37 0.202-0.336 0.26-0.295 0.317-0.235 0.353-0.169 0.386-0.0968 0.39-0.0162 0.389 0.0564 0.37 0.128z" fill="url(#d)" fill-rule="evenodd" stroke="#000137"/><path d="m13.4 6.26-1.54 0.881-1.16-0.417-0.675-1.64-0.326 0.017-0.47 1.72-1.13 0.516-1.6-0.697-0.215 0.246 0.886 1.56-0.444 1.14-1.62 0.645l0.019 0.348 1.71 0.468 0.529 1.13-0.707 1.6 0.237 0.206 1.52-0.868 1.22 0.429 0.602 1.63h0.327l0.475-1.71 1.11-0.555 1.68 0.717 0.202-0.216-0.886-1.52 0.38-1.19 1.66-0.662-0.0111-0.342-1.69-0.433-0.559-1.15 0.707-1.64z" fill="none" stroke="#729fcf"/><circle cx="10.1" cy="10.1" r="2.56" fill="none" stroke="#729fcf" stroke-dashoffset="6"/></g><path d="m0.267 0.267v15.5h3.2v-6.4h3.2v-3.2h-3.2v-2.67h5.33v-3.2z" fill="url(#c)" fill-rule="evenodd" stroke="#280000"/><path d="m0.8 0.8v14.4h2.13v-6.4h3.2v-2.13h-3.2v-3.73h5.33v-2.13z" fill="none" stroke="#ef2929"/></g></svg>
