<?xml version="1.0" encoding="UTF-8"?>
<!-- Created with Inkscape (http://www.inkscape.org/) -->
<svg width="64" height="64" version="1.1" viewBox="0 0 16.933 16.933" xmlns="http://www.w3.org/2000/svg" xmlns:cc="http://creativecommons.org/ns#" xmlns:dc="http://purl.org/dc/elements/1.1/" xmlns:rdf="http://www.w3.org/1999/02/22-rdf-syntax-ns#">
 <metadata>
  <rdf:RDF>
   <cc:Work rdf:about="">
    <dc:format>image/svg+xml</dc:format>
    <dc:type rdf:resource="http://purl.org/dc/dcmitype/StillImage"/>
    <dc:title/>
   </cc:Work>
  </rdf:RDF>
 </metadata>
 <path d="m15.299 13.196c-0.25608 0.59159-0.55919 1.1362-0.91039 1.6368-0.47871 0.68252-0.87068 1.155-1.1727 1.4173-0.46826 0.43065-0.96997 0.65119-1.5072 0.66372-0.38569 0-0.8508-0.10976-1.3922-0.33236-0.54321-0.2216-1.0424-0.33136-1.4988-0.33136-0.47871 0-0.99213 0.10976-1.5413 0.33136-0.54999 0.22264-0.99307 0.33864-1.3318 0.35014-0.51519 0.021919-1.0287-0.20484-1.5413-0.68149-0.32715-0.28532-0.73636-0.77448-1.2266-1.4675-0.52596-0.74002-0.95837-1.5982-1.2971-2.5764-0.36279-1.0567-0.54466-2.08-0.54466-3.0707 0-1.1348 0.24521-2.1136 0.73636-2.9337 0.38599-0.65881 0.89952-1.1785 1.5422-1.56 0.64271-0.38148 1.3371-0.5759 2.0849-0.58834 0.40921 0 0.94583 0.12656 1.6126 0.37535 0.66497 0.24958 1.0919 0.37617 1.2791 0.37617 0.13996 0 0.61428-0.148 1.4184-0.44308 0.7604-0.27363 1.4022-0.38694 1.928-0.3423 1.4246 0.11488 2.495 0.67657 3.2067 1.6883-1.2741 0.772-1.9045 1.8533-1.8918 3.2404 0.01152 1.0804 0.40345 1.9795 1.1738 2.6934 0.3491 0.33134 0.73896 0.5874 1.1727 0.76928-0.09406 0.27281-0.19337 0.5341-0.29894 0.78496zm-3.2673-12.857c0 0.84685-0.30939 1.6376-0.92607 2.3694-0.7442 0.87003-1.6443 1.3728-2.6204 1.2935-0.01243-0.1016-0.01965-0.20854-0.01965-0.32089 0-0.81298 0.35392-1.683 0.9824-2.3944 0.31377-0.3602 0.71284-0.65967 1.1968-0.89858 0.48289-0.23534 0.93965-0.36548 1.3692-0.38777 0.01248 0.11328 0.01776 0.22643 0.01776 0.33875z" fill="#1f2932" stroke-width=".42332"/>
</svg>
