<svg xmlns="http://www.w3.org/2000/svg" width="64" height="64">
  <path fill="#fff" d="M28 10.71v8h-4.25L32 28.04l8.25-9.33H36v-8zm2.96 18.67c-.23 0-.37.39-.37.88v3.04A8.3 8.3 0 0 0 28 34.38l-2.17-2.17c-.34-.34-.71-.5-.87-.33l-2.04 2.04c-.16.16-.01.53.33.88l2.17 2.17a8.3 8.3 0 0 0-1.08 2.58h-3.04c-.48 0-.87.14-.87.38v2.92c0 .23.39.38.88.38h3.04a8.3 8.3 0 0 0 1.08 2.58l-2.17 2.17c-.34.34-.5.71-.33.88l2.04 2.04c.16.16.53.01.88-.33L28 48.38a8.3 8.3 0 0 0 2.58 1.08v3.04c0 .48.14.88.38.88h2.92c.23 0 .38-.39.38-.87v-3.04a8.3 8.3 0 0 0 2.58-1.08L39 50.54c.34.34.71.5.88.33l2.04-2.04c.16-.16.01-.53-.33-.87l-2.17-2.17a8.3 8.3 0 0 0 1.08-2.58h3.04c.48 0 .88-.14.88-.37v-2.92c0-.23-.39-.37-.87-.37H40.5a8.3 8.3 0 0 0-1.08-2.58l2.17-2.17c.34-.34.5-.71.33-.87l-2.04-2.04c-.16-.16-.53-.01-.87.33l-2.17 2.17a8.3 8.3 0 0 0-2.58-1.08v-3.04c0-.48-.14-.87-.37-.87zm1.46 8.29c2.04 0 3.71 1.67 3.71 3.71s-1.67 3.71-3.71 3.71-3.71-1.67-3.71-3.71 1.67-3.71 3.71-3.71zM8.98 6h46.05C56.67 6 58 7.33 58 8.98v46.05c0 1.65-1.33 2.98-2.98 2.98H8.98C7.33 58 6 56.67 6 55.02V8.98C6 7.33 7.33 6 8.98 6z"/>
</svg>