<?xml version="1.0" encoding="UTF-8"?>
<svg version="1.1" viewBox="0 0 32 32" xmlns="http://www.w3.org/2000/svg">
 <g transform="translate(-106,-93.645)">
  <path d="m122 93.645a16.001 16.001 0 0 0-16 16 16.001 16.001 0 0 0 16 16 16.001 16.001 0 0 0 16-16 16.001 16.001 0 0 0-16-16zm4.4747 7.6595c-0.0805 0.32916-0.30954 0.59146-0.76002 0.76 0.4546-0.17443 0.91434-0.32153 1.3917-0.40812 0.44251-0.0802 0.43805 0.27061 0.18784 0.44759-0.50808 0.35845-1.0492 0.39983-1.5792 0.57238 1.6252 0.0382 2.9528 0.81235 3.9909 2.4906 0.34507 0.55774 0.57683 1.1156 0.6316 1.7273 0.6932 0.19484 1.3826 0.23498 2.0793 0.11203 0.19087-0.0321 0.37002-0.0726 0.53927-0.15152-0.27062 0.40619-0.58194 0.74051-1.02 0.89165-0.41831 0.14453-0.83716 0.28713-1.2996 0.29923 0.7525 0.28459 1.5806 0.29922 2.4314 0.24003-1.0409 1.0018-1.8359 0.97916-2.6354 0.96731-0.35074 1.4803-1.0689 2.9551-2.5827 4.3069-1.986 1.7733-4.1247 2.618-6.3335 2.8032-2.0708 0.17318-4.0724 0.15088-6.2581-0.87187-1.6203-0.75816-2.979-1.8026-4.0304-3.2507 1.4212 1.3144 5.0712 2.559 8.041-0.35206-0.5342 0.0834-0.97757-0.0193-1.3161-0.35206-0.32164-0.31835-0.33941-0.64796-0.16819-0.94757 0.13984-0.24386 0.43423-0.41703 0.72385-0.59529-0.52524 0.098-0.97485 0.0446-1.3753-0.1579-0.53734-0.27504-1.061-0.56156-1.2074-1.1581 0.3292-0.34571 0.69585-0.65608 1.4871-0.53928-0.74434-0.24827-1.412-0.57366-1.8951-1.0594-0.47051-0.47307-0.51696-0.78056-0.59214-1.1515 0.41069-0.15217 0.83944-0.22923 1.2997-0.18399-1.0408-0.53227-1.4829-1.2656-1.7274-2.0629-0.0737-0.24133-0.0873-0.46925-0.0575-0.70412 4.2154 1.5912 6.1879 2.7342 7.278 3.8067 0.49025-1.3047 1.6336-4.2597 3.3428-5.2742 8e-3 0.16104-0.0574 0.33362-0.18369 0.51955 0.50616-0.28207 0.89957-0.73276 1.5957-0.72386z" fill="#fff" stroke-width=".38486"/>
 </g>
</svg>
