<svg width="32" height="32" version="1.1" viewBox="0 0 8.47 8.47" xmlns="http://www.w3.org/2000/svg"><g transform="translate(0 -289)"><path d="m4.23 289c-2.34 0-4.23 1.9-4.23 4.23 0 1.87 1.21 3.46 2.9 4.02 0.212 0.0387 0.289-0.092 0.289-0.204 0-0.101-0.00364-0.367-0.00572-0.72-1.18 0.256-1.43-0.568-1.43-0.568-0.193-0.489-0.47-0.619-0.47-0.619-0.384-0.262 0.0291-0.257 0.0291-0.257 0.425 0.0299 0.648 0.436 0.648 0.436 0.378 0.647 0.991 0.46 1.23 0.352 0.0385-0.273 0.148-0.46 0.269-0.566-0.94-0.107-1.93-0.47-1.93-2.09 0-0.462 0.165-0.84 0.436-1.14-0.0437-0.107-0.189-0.537 0.0416-1.12 0 0 0.355-0.114 1.16 0.434 0.338-0.0938 0.7-0.141 1.06-0.142 0.36 9.7e-4 0.722 0.0486 1.06 0.142 0.808-0.548 1.16-0.434 1.16-0.434 0.231 0.583 0.0858 1.01 0.0424 1.12 0.271 0.296 0.435 0.674 0.435 1.14 0 1.63-0.99 1.98-1.93 2.09 0.152 0.131 0.287 0.389 0.287 0.784 0 0.566-0.00523 1.02-0.00523 1.16 0 0.113 0.0764 0.245 0.291 0.204 1.68-0.561 2.89-2.15 2.89-4.02 0-2.34-1.9-4.23-4.23-4.23" fill="#fff" fill-rule="evenodd"/></g></svg>
