<svg xmlns="http://www.w3.org/2000/svg" width="64" height="64">
  <path fill="#fff" d="M34.27 3a20.1 20.1 0 0 1 3.48 4.11c.53-.5 2.32-2.12 4.47-3.19-3.06-.69-4.69-.92-7.95-.92zm-4.02.27c-3.03.5-5.55 1.29-8.22 2.38a22.7 22.7 0 0 1 5.47 2.36c.65-1.73 1.69-3.25 2.76-4.74zm2.07 1.46c-1.67 2.07-2.5 4.12-2.76 4.82 1.49 1.23 2.74 2.75 3.7 4.39.64-1.63.99-2.28 2.74-4.79a16.6 16.6 0 0 0-3.68-4.42zm14.41.76c.73 2.82 1.7 5.62 1.85 8.55-3.97.95-6 2.82-6.39 3.21.24.11 1.65.78 3.28 2.2.84.77 2.45 1.48 3.48.67l5.64-5.64c1.08-1.14.81-3.02-.33-3.9-2.25-1.88-4.87-3.8-7.53-5.08zm-2.94.58c-1.74.87-3.38 1.97-4.7 3.41.84 1.67 1.33 3.49 1.75 5.3 1.56-1.25 3.07-2.04 4.89-2.82-.32-3.19-1.6-5.35-1.95-5.89zM18.97 7.22c-2.59 1.36-4.51 3.28-6.53 5.33a18.8 18.8 0 0 1 6.01.18c0-.21.51-5.44.52-5.51zm2.19.69a17.9 17.9 0 0 0-.41 5.5c2.8.9 4.87 2.43 5.24 2.71 0-1.06.11-3.21.86-5.8-.57-.43-2.32-1.58-5.68-2.42zm14.19 7.61a17.1 17.1 0 0 1 2.94.37c-.1-1.14-.49-2.44-1.12-4.12-.68.99-1.17 1.95-1.82 3.75zm-6.6-3.5a15.9 15.9 0 0 0-.41 4.76 11.8 11.8 0 0 1 3.1-1.03 14.7 14.7 0 0 0-2.7-3.73zM12.7 14.86c.02.31.25 3.57 1.66 6.1 2.8-.52 6.06.01 6.51.08a21.5 21.5 0 0 1-2.02-5.92c-2.02-.49-4.11-.53-6.16-.26zm-2.14-.04c-2.67 3.82-3.92 7.11-4.48 9.14 2.97-2.01 5.48-2.6 6.09-2.72-.98-2.02-1.48-4.18-1.61-6.41zm10.48 1.03c.18.96.84 2.93 1.93 4.76.51-.49 1.16-1.21 2.38-2.14-.91-.86-2.33-1.7-4.31-2.62zm-5.63 6.94c.05.06 2.08 2.67 4.12 4.09.55-1.65 1.06-2.64 1.65-3.76-.13-.02-3.51-.62-5.76-.34zm-2.22.31c-1.05.22-3.54.79-5.99 2.5.48.88 1.99 3.2 4.12 4.73a15.5 15.5 0 0 1 6.25-2.4c-2.44-1.91-4.04-4.28-4.39-4.83zm-7.65 3.21c-.26 1.18-1 5.34-.13 10.56a18.4 18.4 0 0 1 4.46-5.45c-.27-.21-2.75-2.25-4.32-5.11zm13.38 3.26c-2.33.21-3.67.49-5.99 1.85 1.86 1.17 3.86 2.08 5.99 2.65-.24-1.47-.17-3.54 0-4.49zm-7.6 2.94c-2.51 1.91-3.95 4.19-5.46 6.89C9.66 53.28 21.38 60.1 32.57 60.92c8.1.59 16.24-1.94 21.76-7.73 1.12-1.19 1.18-2.23.84-3.06-.33-.81-4.72-5.46-5.9-6.27-1.25-.85-2.39-.7-4.05.58-11.4 8.97-24.51-.09-25.92-8.58-1.3 0-6.25-1.98-7.97-3.36zm.75 5.69a14.4 14.4 0 0 0 4.36 1.08c2.09 5.51 9.36 12.94 18.45 12.94 4.97 0 9.49-1.76 13.02-4.77 1.28 1.27 2.54 2.56 3.75 3.89-11.85 10.32-31.92 8.82-41.44-9.06.77-2.54 1.83-4.05 1.85-4.08z"/>
</svg>
