<?xml version="1.0" encoding="UTF-8" standalone="no"?>
<svg
   width="32"
   height="32"
   version="1.1"
   viewBox="0 0 8.47 8.47"
   id="svg4"
   sodipodi:docname="icon-linkedin-light.svg"
   inkscape:version="1.1.2 (0a00cf5339, 2022-02-04)"
   xmlns:inkscape="http://www.inkscape.org/namespaces/inkscape"
   xmlns:sodipodi="http://sodipodi.sourceforge.net/DTD/sodipodi-0.dtd"
   xmlns="http://www.w3.org/2000/svg"
   xmlns:svg="http://www.w3.org/2000/svg">
  <defs
     id="defs8">





		<linearGradient
   id="path1950_1_"
   gradientUnits="userSpaceOnUse"
   x1="-808.87268"
   y1="199.8918"
   x2="-860.56921"
   y2="49.2029"
   gradientTransform="matrix(-0.02454185,0,0,-0.02454185,-28.834304,5.1345314)">
		<stop
   offset="0"
   style="stop-color:#FFFFFF"
   id="stop845" />

		<stop
   offset="1"
   style="stop-color:#FFFFFF;stop-opacity:0"
   id="stop847" />

	</linearGradient>






	</defs>
  <sodipodi:namedview
     id="namedview6"
     pagecolor="#ffffff"
     bordercolor="#666666"
     borderopacity="1.0"
     inkscape:pageshadow="2"
     inkscape:pageopacity="0.0"
     inkscape:pagecheckerboard="0"
     showgrid="false"
     inkscape:zoom="9.2476309"
     inkscape:cx="23.519537"
     inkscape:cy="15.571556"
     inkscape:window-width="1920"
     inkscape:window-height="1015"
     inkscape:window-x="0"
     inkscape:window-y="28"
     inkscape:window-maximized="1"
     inkscape:current-layer="svg4" />
  <path
     id="path2"
     style="stroke:none;stroke-opacity:1;fill:#ffffff;fill-opacity:1"
     d="M 15.980469 0.001953125 C 7.1398546 0.0023305512 -1.1842379e-15 7.1795882 0 15.982422 C 0.00036911452 24.823036 7.1776349 31.962891 15.980469 31.962891 C 24.821083 31.964285 31.962891 24.823036 31.962891 15.982422 C 31.962483 7.1418078 24.783302 0.001953125 15.980469 0.001953125 z M 8.0800781 4.9160156 C 9.6655285 4.9160156 10.643755 5.9575243 10.673828 7.3261719 C 10.673828 8.6651252 9.6665932 9.7363281 8.0507812 9.7363281 L 8.0195312 9.7363281 C 6.4629682 9.7363281 5.4570312 8.6651252 5.4570312 7.3261719 C 5.4570312 5.9575243 6.4932896 4.9160156 8.0800781 4.9160156 z M 21.75 11.314453 C 24.801197 11.314453 27.087891 13.306637 27.087891 17.591797 L 27.087891 25.591797 L 22.451172 25.591797 L 22.451172 18.128906 C 22.451172 16.253755 21.779702 14.974609 20.101562 14.974609 C 18.820921 14.974609 18.058981 15.8364 17.724609 16.669922 C 17.602103 16.967777 17.570312 17.383622 17.570312 17.800781 L 17.570312 25.591797 L 12.933594 25.591797 C 12.933594 25.591797 12.9951 12.949486 12.933594 11.640625 L 17.570312 11.640625 L 17.570312 13.617188 C 18.186026 12.666383 19.287666 11.314453 21.75 11.314453 z M 5.7304688 11.640625 L 10.367188 11.640625 L 10.367188 25.591797 L 5.7304688 25.591797 L 5.7304688 11.640625 z "
     transform="scale(0.2646875)" />
</svg>
