<?xml version="1.0" encoding="utf-8"?>
<svg version="1.1" id="Layer_1" xmlns="http://www.w3.org/2000/svg" xmlns:xlink="http://www.w3.org/1999/xlink" x="0px" y="0px"
	 viewBox="0 0 32 32" enable-background="new 0 0 32 32" xml:space="preserve">
<path fill="#FFFFFF" d="M32,16c0,8.8-7.2,16-16,16S0,24.8,0,16S7.2,0,16,0S32,7.2,32,16z M25.6,20.4c0-5.3-2.4-9.6-2.4-9.6
	c-2.4-1.8-4.6-1.7-4.6-1.7l-0.2,0.3c2.8,0.9,4.1,2.1,4.1,2.1c-2.5-1.4-5.4-1.9-8.2-1.5c-0.1,0-0.2,0-0.3,0c-0.6,0-2,0.3-3.7,1
	c-0.6,0.3-1,0.5-1,0.5s1.4-1.3,4.3-2.1l-0.2-0.2c0,0-2.2,0-4.6,1.7c0,0-2.4,4.3-2.4,9.6c0,0,1.4,2.4,5,2.5c0,0,0.6-0.7,1.1-1.4
	c-2.1-0.6-2.9-1.9-2.9-1.9s0.2,0.1,0.5,0.3c0,0,0,0,0.1,0c0,0,0.1,0,0.1,0.1c0.4,0.2,0.8,0.4,1.2,0.6c0.8,0.3,1.6,0.5,2.4,0.7
	c1.4,0.3,2.8,0.3,4.2,0c0.8-0.1,1.6-0.4,2.4-0.7c0.6-0.2,1.2-0.5,1.9-1c0,0-0.8,1.3-3,2c0.5,0.6,1.1,1.3,1.1,1.3
	C24.2,22.8,25.6,20.4,25.6,20.4z M14.6,17c0,1-0.7,1.8-1.7,1.8c-0.9,0-1.7-0.8-1.7-1.8c0-1,0.7-1.8,1.7-1.8
	C13.9,15.2,14.6,16,14.6,17z M20.6,17c0,1-0.7,1.8-1.7,1.8c-0.9,0-1.7-0.8-1.7-1.8c0-1,0.7-1.8,1.7-1.8C19.9,15.2,20.6,16,20.6,17z"
	/>
</svg>
