<svg width="32" height="32" enable-background="new 0 0 1000 1000" version="1.1" viewBox="0 0 32 32" xml:space="preserve" xmlns="http://www.w3.org/2000/svg">

<path d="m16 0a16 16 0 0 0-16 16 16 16 0 0 0 16 16 16 16 0 0 0 16-16 16 16 0 0 0-16-16zm-6.3 7.74h12.6c2.04 0 3.7 1.66 3.7 3.7v7.1c0 2.05-1.66 3.7-3.7 3.7h-8.92c-2.17 2.21-4.42 2.81-5.68 2.81-0.815 0-1.22-0.246-0.922-0.471 1.13-0.853 1.72-1.69 1.98-2.46-1.59-0.416-2.76-1.86-2.76-3.57v-7.1c0-2.04 1.66-3.7 3.7-3.7zm2.21 6.23c-0.309 0-0.616 0.129-0.836 0.346-0.22 0.22-0.344 0.525-0.344 0.834 0 0.309 0.127 0.616 0.344 0.836 0.22 0.22 0.527 0.348 0.836 0.348 0.309 0 0.619-0.128 0.836-0.348 0.22-0.22 0.344-0.527 0.344-0.836 0.0025-0.309-0.124-0.614-0.344-0.834-0.22-0.22-0.527-0.346-0.836-0.346zm4.09 0c-0.309 0-0.616 0.129-0.836 0.346-0.22 0.22-0.348 0.525-0.348 0.834 0 0.309 0.128 0.616 0.348 0.836 0.22 0.22 0.527 0.348 0.836 0.348s0.619-0.128 0.836-0.348c0.22-0.22 0.344-0.527 0.344-0.836 0.0025-0.309-0.124-0.614-0.344-0.834-0.22-0.22-0.527-0.346-0.836-0.346zm4.09 0c-0.309 0-0.619 0.129-0.836 0.346-0.22 0.22-0.344 0.525-0.344 0.834 0 0.309 0.127 0.616 0.344 0.836 0.22 0.22 0.527 0.348 0.836 0.348 0.309 0 0.619-0.128 0.836-0.348 0.22-0.22 0.348-0.527 0.348-0.836-0.0025-0.309-0.128-0.614-0.348-0.834-0.22-0.22-0.527-0.346-0.836-0.346z" fill="#fff" style="paint-order:stroke fill markers"/>
</svg>
