<?xml version="1.0" encoding="UTF-8"?>
<!-- Created with Inkscape (http://www.inkscape.org/) -->
<svg width="145" height="40" version="1.1" viewBox="0 0 38.365 10.583" xmlns="http://www.w3.org/2000/svg" xmlns:cc="http://creativecommons.org/ns#" xmlns:dc="http://purl.org/dc/elements/1.1/" xmlns:rdf="http://www.w3.org/1999/02/22-rdf-syntax-ns#" xmlns:xlink="http://www.w3.org/1999/xlink">
 <defs>
  <linearGradient id="linearGradient954" x1="-146.74" x2="-157.32" y1="58.262" y2="26.521" gradientTransform="matrix(6.9077 0 0 6.9077 -4100 1055.2)" gradientUnits="userSpaceOnUse">
   <stop stop-color="#204a87" offset="0"/>
   <stop stop-color="#729fcf" offset="1"/>
  </linearGradient>
  <linearGradient id="linearGradient956" x1="-206.7" x2="-211.4" y1="68.842" y2="7.7114" gradientTransform="matrix(6.843 0 0 6.843 -3961.1 1029.7)" gradientUnits="userSpaceOnUse">
   <stop stop-color="#a40000" offset="0"/>
   <stop stop-color="#ef2929" offset="1"/>
  </linearGradient>
 </defs>
 <metadata>
  <rdf:RDF>
   <cc:Work rdf:about="">
    <dc:format>image/svg+xml</dc:format>
    <dc:type rdf:resource="http://purl.org/dc/dcmitype/StillImage"/>
    <dc:title/>
   </cc:Work>
  </rdf:RDF>
 </metadata>
 <g transform="translate(0 -286.42)">
  <g transform="matrix(.7075 0 0 .7075 -271.68 204.07)" stroke-width="1.4134">
   <g transform="matrix(.85366 0 0 .85366 56.172 18.926)" stroke-width="1.6557">
    <path d="m392.54 115.52c-4.1108 0-7.4202 3.3094-7.4202 7.4202s3.3094 7.4202 7.4202 7.4202h46.49c4.1108 0 7.4202-3.3094 7.4202-7.4202s-3.3094-7.4202-7.4202-7.4202zm33.998 4.4336c0.89015 0 1.864 0.41604 2.4629 1.0649l-1.1146 1.3228c-0.3494-0.47419-0.87353-0.78226-1.3228-0.78226-0.69881 0-1.2066 0.55785-1.2066 1.3315 0 0.782 0.50782 1.3476 1.2066 1.3476 0.41595 0 0.94008-0.25776 1.3228-0.6654l1.1146 1.1891c-0.64889 0.70712-1.639 1.165-2.5374 1.165-1.7886 0-3.0867-1.2728-3.0867-3.0114 0-1.7137 1.331-2.9618 3.1612-2.9618zm-22.124 0.0584h4.6921v1.4637h-2.7624v1.0072h2.5878v1.4637h-2.5878v1.8969h-1.9297zm26.856 0h1.9801l2.3709 5.8316h-2.0546l-0.29143-0.8239h-2.1876l-0.3002 0.8239h-1.9794zm4.6826 0h2.6039c1.9217 0 3.1692 1.1394 3.1692 2.9114s-1.2728 2.9202-3.2444 2.9202h-2.5287zm-22.987 1.1979v1.6887c-0.84022-0.12479-1.3892 0.17452-1.3892 0.7735v2.1715h-1.872v-4.5504h1.872v0.6654c0.31612-0.47419 0.79857-0.74867 1.3892-0.74867zm2.6375 0.0168c1.5889 0 2.5204 1.0812 2.4206 2.7617h-2.9611c0.12478 0.35772 0.39066 0.5405 0.7567 0.5405 0.31612 0 0.64038-0.14136 0.92323-0.40757l0.97363 0.95683c-0.48251 0.53243-1.1816 0.83193-2.0634 0.83193-1.5557 0-2.479-0.91529-2.479-2.3212 0-1.4392 0.96517-2.3621 2.4293-2.3621zm5.1019 0c1.589 0 2.5204 1.0812 2.4206 2.7617h-2.9611c0.12479 0.35772 0.39066 0.5405 0.7567 0.5405 0.31613 0 0.64038-0.14136 0.92323-0.40757l0.97363 0.95683c-0.4825 0.53243-1.1816 0.83193-2.0634 0.83193-1.5557 0-2.479-0.91529-2.479-2.3212 0-1.4392 0.96516-2.3621 2.4293-2.3621zm17.178 0.28267v2.8369h0.72383c0.6988 0 1.1482-0.54916 1.1482-1.406 0-0.86519-0.49078-1.4309-1.2395-1.4309zm-5.6804 0.42436-0.61573 1.7055h1.2147zm-16.582 0.5405c-0.32445 0-0.52406 0.26665-0.59894 0.64933h1.1314c0.025-0.37436-0.20802-0.64933-0.53246-0.64933zm5.1019 0c-0.32444 0-0.52406 0.26665-0.59893 0.64933h1.1314c0.0249-0.37436-0.20802-0.64933-0.53247-0.64933z" fill="#fff" style="paint-order:normal"/>
    <g transform="matrix(.019619 0 0 .019619 499.19 97.597)">
     <g stroke-linecap="round" stroke-linejoin="round" stroke-width="16.089">
      <path d="m-5050.1 1219.6-49.724 28.528-21.957-7.6191-20.949-53.543-32.952 1.7338-15.032 55.363-21.037 10.073-52.469-22.952-22.165 24.628 28.528 49.724-7.7957 21.891-53.539 20.952 1.9155 33.016 55.364 15.032 10.073 21.037-23.129 52.405 24.628 22.162 49.724-28.528 22.067 7.8625 20.772 53.472 33.196-1.8546 14.856-55.427 21.037-10.073 52.581 23.192 22.162-24.627-28.529-49.724 7.6833-22.131 53.476-20.776-1.673-33.128-55.427-14.856-10.075-21.037 23.019-52.646zm-74.47 81.539 10.207 5.9222 8.8412 8.0176 7.0818 9.5689 5.0925 10.638 3.0099 11.468 0.4885 11.755-1.7029 11.747-3.8738 11.156-6.163 10.319-7.7777 8.7324-9.568 7.0783-10.638 5.0926-11.469 3.0099-11.818 0.6685-11.752-1.703-11.152-3.8738-10.32-6.163-8.6681-7.9533-7.1452-9.3923-5.0925-10.638-2.9191-11.645-0.6685-11.819 1.7021-11.748 3.8738-11.155 6.0987-10.143 7.842-8.9081 9.568-7.0783 10.638-5.0925 11.646-2.9191 11.754-0.4885 11.748 1.7029 11.155 3.8739z" fill="url(#linearGradient954)" fill-rule="evenodd" stroke="#000137"/>
      <path d="m-5051.9 1239.1-46.41 26.589-34.992-12.585-20.377-49.343-9.8483 0.5142-14.175 51.901-34.159 15.579-48.376-21.028-6.4767 7.416 26.714 46.926-13.387 34.287-48.826 19.471 0.5742 10.483 51.511 14.117 15.966 34.159-21.314 48.319 7.1572 6.2178 45.893-26.2 36.902 12.931 18.149 49.027h9.8662l14.344-51.569 33.512-16.744 50.547 21.63 6.0901-6.5066-26.716-45.764 11.478-35.926 50.192-19.957-0.3342-10.326-50.924-13.053-16.872-34.548 21.341-49.441z" fill="none" stroke="#729fcf"/>
      <circle cx="-5150.4" cy="1355.6" r="77.199" fill="none" stroke="#729fcf" stroke-dashoffset="6"/>
     </g>
     <path d="m-5447.9 1058.3v466.58h96.534v-193.07h96.534v-96.534h-96.534v-80.444h160.89v-96.534z" fill="url(#linearGradient956)" fill-rule="evenodd" stroke="#280000" stroke-width="16.089"/>
     <path d="m-5431.8 1074.4v434.4h64.354v-193.07h96.535v-64.357h-96.535v-112.62h160.89v-64.354z" fill="none" stroke="#ef2929" stroke-width="16.089"/>
    </g>
   </g>
  </g>
 </g>
</svg>
