<?xml version="1.0" encoding="UTF-8"?>
<!-- Created with Inkscape (http://www.inkscape.org/) -->
<svg width="140" height="40" version="1.1" viewBox="0 0 37.042069 10.583" xmlns="http://www.w3.org/2000/svg" xmlns:cc="http://creativecommons.org/ns#" xmlns:dc="http://purl.org/dc/elements/1.1/" xmlns:rdf="http://www.w3.org/1999/02/22-rdf-syntax-ns#">
 <defs>
  <linearGradient id="linearGradient954" x1="-146.74" x2="-157.32" y1="58.262" y2="26.521" gradientTransform="matrix(6.9077,0,0,6.9077,-4100,1055.2)" gradientUnits="userSpaceOnUse">
   <stop stop-color="#204a87" offset="0"/>
   <stop stop-color="#729fcf" offset="1"/>
  </linearGradient>
  <linearGradient id="linearGradient956" x1="-206.7" x2="-211.4" y1="68.842" y2="7.7114" gradientTransform="matrix(6.843,0,0,6.843,-3961.1,1029.7)" gradientUnits="userSpaceOnUse">
   <stop stop-color="#a40000" offset="0"/>
   <stop stop-color="#ef2929" offset="1"/>
  </linearGradient>
 </defs>
 <metadata>
  <rdf:RDF>
   <cc:Work rdf:about="">
    <dc:format>image/svg+xml</dc:format>
    <dc:type rdf:resource="http://purl.org/dc/dcmitype/StillImage"/>
    <dc:title/>
   </cc:Work>
  </rdf:RDF>
 </metadata>
 <g transform="matrix(.73278 0 0 .73278 -282.07 -84.832)" stroke-width="1.4134">
  <g transform="matrix(.85156 0 0 .85156 56.981 19.2)">
   <path d="m393.6 113.4c-4.6981 0-8.4802 3.7822-8.4802 8.4802 0 4.698 3.7822 8.4802 8.4802 8.4802h42.401c4.6981 0 8.4802-3.7822 8.4802-8.4802 0-4.6981-3.7822-8.4802-8.4802-8.4802zm30.264 5.9045c0.76767 0 1.6076 0.3588 2.124 0.91839l-0.96126 1.1408c-0.30132-0.40897-0.75334-0.67468-1.1408-0.67468-0.60265 0-1.0406 0.48112-1.0406 1.1483 0 0.67442 0.43799 1.1622 1.0406 1.1622 0.35873 0 0.81076-0.2223 1.1408-0.57385l0.96126 1.0255c-0.55959 0.60987-1.4135 1.0047-2.1883 1.0047-1.5425 0-2.662-1.0977-2.662-2.5971 0-1.4779 1.1479-2.5543 2.7263-2.5543zm-19.08 0.0504h4.0466v1.2623h-2.3824v0.86863h2.2318v1.2623h-2.2318v1.6359h-1.6642zm23.161 0h1.7077l2.0447 5.0293h-1.7719l-0.25135-0.71056h-1.8866l-0.2589 0.71056h-1.7071zm4.0384 0h2.2457c1.6573 0 2.7332 0.98264 2.7332 2.5109 0 1.5282-1.0977 2.5184-2.798 2.5184h-2.1808zm-19.825 1.0331v1.4564c-0.72462-0.10761-1.1981 0.15051-1.1981 0.6671v1.8728h-1.6144v-3.9244h1.6144v0.57384c0.27263-0.40895 0.6887-0.64568 1.1981-0.64568zm2.2746 0.0144c1.3703 0 2.1736 0.93246 2.0876 2.3818h-2.5537c0.10761 0.3085 0.33692 0.46615 0.65259 0.46615 0.27263 0 0.55229-0.12193 0.79622-0.35153l0.83968 0.82521c-0.41612 0.45918-1.019 0.71747-1.7795 0.71747-1.3417 0-2.1379-0.78937-2.1379-2.0018 0-1.2412 0.83239-2.0371 2.0951-2.0371zm4.4 0c1.3704 0 2.1736 0.93246 2.0876 2.3818h-2.5537c0.10763 0.3085 0.33693 0.46615 0.6526 0.46615 0.27264 0 0.55228-0.12193 0.79623-0.35153l0.83967 0.82521c-0.41612 0.45918-1.019 0.71747-1.7795 0.71747-1.3417 0-2.138-0.78937-2.138-2.0018 0-1.2412 0.83238-2.0371 2.0951-2.0371zm14.815 0.24378v2.4466h0.62424c0.60266 0 0.99025-0.47362 0.99025-1.2126 0-0.74615-0.42329-1.234-1.069-1.234zm-4.8989 0.36596-0.53103 1.4709h1.0476zm-14.301 0.46615c-0.27981 0-0.45196 0.22997-0.51653 0.56001h0.97573c0.0216-0.32286-0.17941-0.56001-0.4592-0.56001zm4.4 0c-0.2798 0-0.45198 0.22997-0.51653 0.56001h0.97573c0.0215-0.32286-0.17941-0.56001-0.4592-0.56001z" fill="#fff" stroke-width="1.4279" style="paint-order:normal"/>
   <g transform="matrix(.01895 0 0 .01895 496.38 97.405)" stroke-width="16.089">
    <g stroke-linecap="round" stroke-linejoin="round">
     <path d="m-5050.1 1219.6-49.724 28.528-21.957-7.6191-20.949-53.543-32.952 1.7338-15.032 55.363-21.037 10.073-52.469-22.952-22.165 24.628 28.528 49.724-7.7957 21.891-53.539 20.952 1.9155 33.016 55.364 15.032 10.073 21.037-23.129 52.405 24.628 22.162 49.724-28.528 22.067 7.8625 20.772 53.472 33.196-1.8546 14.856-55.427 21.037-10.073 52.581 23.192 22.162-24.627-28.529-49.724 7.6833-22.131 53.476-20.776-1.673-33.128-55.427-14.856-10.075-21.037 23.019-52.646zm-74.47 81.539 10.207 5.9222 8.8412 8.0176 7.0818 9.5689 5.0925 10.638 3.0099 11.468 0.4885 11.755-1.7029 11.747-3.8738 11.156-6.163 10.319-7.7777 8.7324-9.568 7.0783-10.638 5.0926-11.469 3.0099-11.818 0.6685-11.752-1.703-11.152-3.8738-10.32-6.163-8.6681-7.9533-7.1452-9.3923-5.0925-10.638-2.9191-11.645-0.6685-11.819 1.7021-11.748 3.8738-11.155 6.0987-10.143 7.842-8.9081 9.568-7.0783 10.638-5.0925 11.646-2.9191 11.754-0.4885 11.748 1.7029 11.155 3.8739z" fill="url(#linearGradient954)" fill-rule="evenodd" stroke="#000137"/>
     <path d="m-5051.9 1239.1-46.41 26.589-34.992-12.585-20.377-49.343-9.8483 0.5142-14.175 51.901-34.159 15.579-48.376-21.028-6.4767 7.416 26.714 46.926-13.387 34.287-48.826 19.471 0.5742 10.483 51.511 14.117 15.966 34.159-21.314 48.319 7.1572 6.2178 45.893-26.2 36.902 12.931 18.149 49.027h9.8662l14.344-51.569 33.512-16.744 50.547 21.63 6.0901-6.5066-26.716-45.764 11.478-35.926 50.192-19.957-0.3342-10.326-50.924-13.053-16.872-34.548 21.341-49.441z" fill="none" stroke="#729fcf"/>
     <circle cx="-5150.4" cy="1355.6" r="77.199" fill="none" stroke="#729fcf" stroke-dashoffset="6"/>
    </g>
    <path d="m-5447.9 1058.3v466.58h96.534v-193.07h96.534v-96.534h-96.534v-80.444h160.89v-96.534z" fill="url(#linearGradient956)" fill-rule="evenodd" stroke="#280000"/>
    <path d="m-5431.8 1074.4v434.4h64.354v-193.07h96.535v-64.357h-96.535v-112.62h160.89v-64.354z" fill="none" stroke="#ef2929"/>
   </g>
  </g>
 </g>
</svg>
