<?xml version="1.0" encoding="UTF-8" standalone="no"?>
<!-- Created with Inkscape (http://www.inkscape.org/) -->

<svg
   width="140"
   height="40"
   version="1.1"
   viewBox="0 0 37.042069 10.583"
   id="svg36"
   sodipodi:docname="logo-freecad.svg"
   inkscape:version="1.1.2 (0a00cf5339, 2022-02-04)"
   xmlns:inkscape="http://www.inkscape.org/namespaces/inkscape"
   xmlns:sodipodi="http://sodipodi.sourceforge.net/DTD/sodipodi-0.dtd"
   xmlns:xlink="http://www.w3.org/1999/xlink"
   xmlns="http://www.w3.org/2000/svg"
   xmlns:svg="http://www.w3.org/2000/svg"
   xmlns:rdf="http://www.w3.org/1999/02/22-rdf-syntax-ns#"
   xmlns:cc="http://creativecommons.org/ns#"
   xmlns:dc="http://purl.org/dc/elements/1.1/">
  <sodipodi:namedview
     id="namedview38"
     pagecolor="#ffffff"
     bordercolor="#666666"
     borderopacity="1.0"
     inkscape:pageshadow="2"
     inkscape:pageopacity="0.0"
     inkscape:pagecheckerboard="0"
     showgrid="false"
     inkscape:lockguides="true"
     inkscape:zoom="6.6771083"
     inkscape:cx="66.570734"
     inkscape:cy="-0.82370987"
     inkscape:window-width="1920"
     inkscape:window-height="1051"
     inkscape:window-x="0"
     inkscape:window-y="0"
     inkscape:window-maximized="1"
     inkscape:current-layer="g34" />
  <defs
     id="defs12">
    <linearGradient
       id="linearGradient954"
       x1="-146.74"
       x2="-157.32"
       y1="58.262"
       y2="26.521"
       gradientTransform="matrix(6.9077,0,0,6.9077,-4100,1055.2)"
       gradientUnits="userSpaceOnUse">
      <stop
         stop-color="#204a87"
         offset="0"
         id="stop2" />
      <stop
         stop-color="#729fcf"
         offset="1"
         id="stop4" />
    </linearGradient>
    <linearGradient
       id="linearGradient956"
       x1="-206.7"
       x2="-211.4"
       y1="68.842"
       y2="7.7114"
       gradientTransform="matrix(6.843,0,0,6.843,-3961.1,1029.7)"
       gradientUnits="userSpaceOnUse">
      <stop
         stop-color="#a40000"
         offset="0"
         id="stop7" />
      <stop
         stop-color="#ef2929"
         offset="1"
         id="stop9" />
    </linearGradient>
    <linearGradient
       inkscape:collect="always"
       xlink:href="#linearGradient3864-9"
       id="linearGradient58625"
       gradientUnits="userSpaceOnUse"
       gradientTransform="matrix(1.0094494,0,0,1.0094493,-20.307973,3.7260081)"
       x1="-146.74467"
       y1="58.261547"
       x2="-157.32494"
       y2="26.520763" />
    <linearGradient
       id="linearGradient3864-9">
      <stop
         style="stop-color:#204a87;stop-opacity:1"
         offset="0"
         id="stop3866-1" />
      <stop
         style="stop-color:#729fcf;stop-opacity:1"
         offset="1"
         id="stop3868-1" />
    </linearGradient>
    <linearGradient
       inkscape:collect="always"
       xlink:href="#linearGradient3682-0"
       id="linearGradient3806-5-6-0-0"
       x1="-206.69949"
       y1="68.841812"
       x2="-211.40184"
       y2="7.7114096"
       gradientUnits="userSpaceOnUse" />
    <linearGradient
       id="linearGradient3682-0">
      <stop
         id="stop3684-0"
         offset="0"
         style="stop-color:#a40000;stop-opacity:1" />
      <stop
         id="stop3686-0"
         offset="1"
         style="stop-color:#ef2929;stop-opacity:1" />
    </linearGradient>
  </defs>
  <metadata
     id="metadata14">
    <rdf:RDF>
      <cc:Work
         rdf:about="">
        <dc:format>image/svg+xml</dc:format>
        <dc:type
           rdf:resource="http://purl.org/dc/dcmitype/StillImage" />
      </cc:Work>
    </rdf:RDF>
  </metadata>
  <g
     transform="matrix(.73278 0 0 .73278 -282.07 -84.832)"
     stroke-width="1.4134"
     id="g34">
    <g
       transform="matrix(0.10954572,0,0,0.10954572,413.88668,118.76627)"
       id="g3813-3-2-2-7-5">
      <path
         style="display:inline;overflow:visible;visibility:visible;fill:url(#linearGradient58625);fill-opacity:1;fill-rule:evenodd;stroke:#000137;stroke-width:2.35117;stroke-linecap:round;stroke-linejoin:round;stroke-miterlimit:4;stroke-dasharray:none;stroke-dashoffset:0;stroke-opacity:1;marker:none;enable-background:accumulate"
         d="m -159.14682,27.762572 -7.26628,4.168914 -3.20873,-1.113515 -3.06139,-7.823962 -4.81574,0.253068 -2.19659,8.090466 -3.07424,1.472191 -7.66769,-3.354213 -3.23863,3.598875 4.16893,7.266276 -1.13925,3.199324 -7.82397,3.061399 0.27879,4.825129 8.09048,2.196583 1.47219,3.074238 -3.37993,7.658303 3.59887,3.238623 7.26627,-4.168916 3.22506,1.148635 3.03567,7.81457 4.85085,-0.269405 2.17086,-8.099855 3.07425,-1.472193 7.68401,3.389334 3.23863,-3.598876 -4.16892,-7.266274 1.1229,-3.234445 7.81458,-3.035677 -0.24366,-4.841457 -8.09987,-2.170857 -1.4722,-3.074238 3.36361,-7.693423 z m -10.88267,11.915801 1.49161,0.865459 1.29232,1.171703 1.03462,1.398312 0.74426,1.554681 0.43759,1.67593 0.0725,1.71754 -0.24807,1.717095 -0.56614,1.630089 -0.90058,1.507949 -1.13658,1.275982 -1.39832,1.034618 -1.55468,0.744257 -1.67593,0.43758 -1.72693,0.09823 -1.71711,-0.248055 -1.63008,-0.566152 -1.50794,-0.900579 -1.26661,-1.162311 -1.04399,-1.372584 -0.74428,-1.554679 -0.42818,-1.701656 -0.0982,-1.726934 0.24806,-1.717099 0.56616,-1.630085 0.89118,-1.482225 1.14599,-1.301706 1.3983,-1.034618 1.55468,-0.744261 1.70165,-0.428183 1.71754,-0.0725 1.7171,0.248053 1.63009,0.566153 z"
         id="path3659-5-9-6-17-0"
         inkscape:connector-curvature="0" />
      <path
         style="display:inline;overflow:visible;visibility:visible;fill:none;stroke:#729fcf;stroke-width:2.35117;stroke-linecap:round;stroke-linejoin:round;stroke-miterlimit:4;stroke-dasharray:none;stroke-dashoffset:0;stroke-opacity:1;marker:none;enable-background:accumulate"
         d="m -159.40722,30.604211 -6.78206,3.885229 -5.11355,-1.83873 -2.97765,-7.211069 -1.43915,0.07782 -2.07148,7.584439 -4.99186,2.2766 -7.06968,-3.072549 -0.94649,1.083504 3.90414,6.857637 -1.95648,5.010571 -7.1355,2.845405 0.0822,1.531739 7.52777,2.062954 2.33329,4.991861 -3.11471,7.061187 1.0457,0.908702 6.7065,-3.828556 5.39281,1.889398 2.65209,7.164787 1.44166,-0.01704 2.09636,-7.536257 4.8974,-2.446633 7.38672,3.161002 0.88982,-0.951258 -3.90413,-6.687603 1.6772,-5.250163 7.33482,-2.916596 -0.0504,-1.508727 -7.44181,-1.907432 -2.46554,-5.048537 3.11884,-7.22521 z"
         id="path3659-5-6-1-1-27-9"
         inkscape:connector-curvature="0"
         sodipodi:nodetypes="ccccccccccccccccccccccccccccccccc" />
      <circle
         style="fill:none;stroke:#729fcf;stroke-width:1.81197;stroke-linecap:round;stroke-linejoin:round;stroke-miterlimit:4;stroke-dasharray:none;stroke-dashoffset:6;stroke-opacity:1"
         id="path3898-2-8-22-6"
         transform="matrix(1.2975787,0,0,1.2975787,-227.20403,-4.4100648)"
         cx="41.15683"
         cy="40.103004"
         r="8.6941996" />
      <path
         style="display:inline;overflow:visible;visibility:visible;fill:url(#linearGradient3806-5-6-0-0);fill-opacity:1;fill-rule:evenodd;stroke:#280000;stroke-width:2.35117;stroke-linecap:butt;stroke-linejoin:miter;stroke-miterlimit:4;stroke-dasharray:none;stroke-dashoffset:0;stroke-opacity:1;marker:none;enable-background:accumulate"
         d="m -217.27976,4.1846558 1e-5,68.1839092 14.10701,-2e-6 v -28.21403 h 14.10701 V 30.047518 h -14.10701 V 18.291671 h 23.51169 V 4.1846558 Z"
         id="rect3663-8-7-7-61-3"
         sodipodi:nodetypes="ccccccccccc"
         inkscape:connector-curvature="0" />
      <path
         style="display:inline;overflow:visible;visibility:visible;fill:none;stroke:#ef2929;stroke-width:2.35117;stroke-linecap:butt;stroke-linejoin:miter;stroke-miterlimit:4;stroke-dasharray:none;stroke-dashoffset:0;stroke-opacity:1;marker:none;enable-background:accumulate"
         d="m -214.92859,6.535825 v 63.481569 h 9.40468 v -28.21403 h 14.10701 v -9.404677 h -14.10701 V 15.940502 h 23.51169 V 6.535825 Z"
         id="rect3663-8-3-0-9-0-8"
         sodipodi:nodetypes="ccccccccccc"
         inkscape:connector-curvature="0" />
    </g>
    <g
       aria-label="Free"
       id="text4997-6-5"
       style="font-size:7.66308px;line-height:1.37804px;font-family:Evolventa;-inkscape-font-specification:Evolventa;letter-spacing:0px;word-spacing:0px;stroke-width:0.478939px;fill:#ffffff;fill-opacity:1">
      <path
         d="m 399.53741,126.73089 h 0.56707 v -2.59012 h 2.22229 v -0.51343 h -2.22229 v -2.04604 h 2.30659 v -0.51343 h -2.87366 z"
         id="path1605"
         style="fill:#ffffff;fill-opacity:1" />
      <path
         d="m 403.07007,126.73089 h 0.56707 v -2.44452 c 0,-0.78164 0.39848,-1.21077 1.18777,-1.2874 v -0.55941 c -0.60538,0.0307 -0.96554,0.23756 -1.18777,0.69734 v -0.59772 h -0.56707 z"
         id="path1607"
         style="fill:#ffffff;fill-opacity:1" />
      <path
         d="m 409.36143,124.82278 c 0,-0.5594 -0.069,-0.88892 -0.25288,-1.24142 -0.36783,-0.705 -1.11114,-1.1418 -1.93876,-1.1418 -1.21076,0 -2.16865,0.95789 -2.16865,2.17632 0,1.24142 0.97321,2.21463 2.21463,2.21463 0.91191,0 1.73186,-0.59772 2.03838,-1.47898 h -0.59006 c -0.23755,0.57473 -0.82761,0.95789 -1.46364,0.95789 -0.86593,0 -1.58626,-0.65903 -1.63224,-1.48664 z m -3.77789,-0.51342 c 0.15326,-0.80463 0.78929,-1.34871 1.58625,-1.34871 0.81229,0 1.433,0.51343 1.62458,1.34871 z"
         id="path1609"
         style="fill:#ffffff;fill-opacity:1" />
      <path
         d="m 414.34243,124.82278 c 0,-0.5594 -0.069,-0.88892 -0.25288,-1.24142 -0.36783,-0.705 -1.11114,-1.1418 -1.93876,-1.1418 -1.21076,0 -2.16865,0.95789 -2.16865,2.17632 0,1.24142 0.97321,2.21463 2.21463,2.21463 0.91191,0 1.73186,-0.59772 2.03838,-1.47898 h -0.59006 c -0.23755,0.57473 -0.82761,0.95789 -1.46364,0.95789 -0.86593,0 -1.58626,-0.65903 -1.63224,-1.48664 z m -3.77789,-0.51342 c 0.15326,-0.80463 0.78929,-1.34871 1.58625,-1.34871 0.81229,0 1.433,0.51343 1.62458,1.34871 z"
         id="path1611"
         style="fill:#ffffff;fill-opacity:1" />
    </g>
    <g
       aria-label="CAD"
       id="text4997-3-5-1"
       style="font-size:7.66308px;font-family:Evolventa;-inkscape-font-specification:Evolventa;letter-spacing:0px;word-spacing:0px;stroke-width:0.478939px;fill:#ffffff;fill-opacity:1">
      <path
         d="m 419.39526,125.15229 c -0.46745,0.48278 -0.85827,0.66669 -1.40235,0.66669 -1.04984,0 -1.90044,-0.87359 -1.90044,-1.93109 0,-0.45979 0.17625,-0.95023 0.46745,-1.2874 0.34484,-0.40615 0.82761,-0.62071 1.41,-0.62071 0.65903,0 1.10349,0.21456 1.48664,0.71267 h 1.17245 c -0.21456,-0.47512 -0.39848,-0.728 -0.75864,-1.03452 -0.52875,-0.44446 -1.21077,-0.68968 -1.92343,-0.68968 -1.60159,0 -2.91197,1.31039 -2.91197,2.91197 0,1.6399 1.32571,2.95029 2.98093,2.95029 1.16479,0 2.16866,-0.6437 2.61311,-1.67822 z"
         style="-inkscape-font-specification:'Evolventa Bold';fill:#ffffff;fill-opacity:1"
         id="path1632" />
      <path
         d="m 420.75161,126.73089 h 1.15712 l 0.62837,-1.46365 h 2.01539 l 0.60539,1.46365 h 1.15712 l -2.37555,-5.66302 h -0.82762 z m 2.16865,-2.46751 0.60538,-1.71653 0.60538,1.71653 z"
         style="-inkscape-font-specification:'Evolventa Bold';fill:#ffffff;fill-opacity:1"
         id="path1634" />
      <path
         d="m 426.91272,126.73089 h 1.31805 c 0.83528,0 1.33338,-0.0843 1.7855,-0.2912 0.89658,-0.42147 1.43299,-1.35636 1.43299,-2.52882 0,-1.04984 -0.42147,-1.91577 -1.17245,-2.39854 -0.45978,-0.29886 -1.1418,-0.44446 -2.06903,-0.44446 h -1.29506 z m 1.04984,-1.00387 v -3.65528 h 0.2069 c 0.65137,0 0.99621,0.0536 1.31805,0.2069 0.55941,0.27587 0.90425,0.88892 0.90425,1.63223 0,0.68202 -0.31419,1.2874 -0.81995,1.56327 -0.31419,0.16859 -0.75098,0.25288 -1.37936,0.25288 z"
         style="-inkscape-font-specification:'Evolventa Bold';fill:#ffffff;fill-opacity:1"
         id="path1636" />
    </g>
  </g>
</svg>
