<?xml version="1.0" encoding="UTF-8" standalone="no"?>
<!-- Created with Inkscape (http://www.inkscape.org/) -->

<svg
   width="70"
   height="40"
   viewBox="0 0 70 40"
   version="1.1"
   id="svg1"
   xmlns="http://www.w3.org/2000/svg"
   xmlns:svg="http://www.w3.org/2000/svg">
  <defs
     id="defs1">
    <linearGradient
       id="swatch24">
      <stop
         style="stop-color:#000000;stop-opacity:1;"
         offset="0"
         id="stop24" />
    </linearGradient>
    <rect
       x="0"
       y="0"
       width="512"
       height="512"
       id="rect1" />
    <clipPath
       clipPathUnits="userSpaceOnUse"
       id="clipPath51">
      <path
         id="path51"
         style="fill:#cb333b;stroke-linecap:round;stroke-linejoin:round;paint-order:stroke markers fill"
         d="M 102.27734,123.63867 50.5625,175.35352 v 48.28515 h 40 v 84.72266 h -40 v 80 h 60 40 60 v -80 h -40 V 123.63867 Z m 286.37891,0 c -33.93725,0 -60.23305,21.77801 -75.5039,46.50195 C 298.14299,194.44124 290.5625,224.21308 290.5625,256 c 0,31.78692 7.58049,61.55879 22.58985,85.85938 15.27085,24.72393 41.56664,46.50195 75.5039,46.50195 33.93727,0 60.23448,-21.77714 75.50586,-46.50195 C 479.17201,317.55791 486.75,287.7859 486.75,256 c 0,-31.7859 -7.57798,-61.5579 -22.58789,-85.85938 -15.27138,-24.7248 -41.56859,-46.50195 -75.50586,-46.50195 z m -278.09375,20 h 40 v 184.72266 h 40 v 40 h -40 -40 -40 v -40 h 40 V 183.63867 l -20,20 h -20 v -20 z m 278.09375,0 c 25.28188,0 45.76637,16.41335 58.49024,37.01367 C 459.87035,201.25264 466.75,227.42443 466.75,256 c 0,28.57557 -6.87965,54.74735 -19.60351,75.34766 -12.72387,20.60031 -33.20836,37.01367 -58.49024,37.01367 -25.28186,0 -45.76441,-16.41336 -58.48828,-37.01367 C 317.44411,310.74735 310.5625,284.57557 310.5625,256 c 0,-28.57557 6.88161,-54.74736 19.60547,-75.34766 12.72387,-20.60032 33.20642,-37.01367 58.48828,-37.01367 z m 0,44.09961 c -5.5254,0 -12.93337,3.80251 -20.39844,15.88867 C 360.79275,215.7131 355.1875,234.6977 355.1875,256 c 0,21.3023 5.60525,40.28689 13.07031,52.37305 7.46507,12.08616 14.87304,15.88867 20.39844,15.88867 5.52542,0 12.93338,-3.80251 20.39844,-15.88867 C 416.51975,296.28689 422.125,277.3023 422.125,256 c 0,-21.3023 -5.60525,-40.2869 -13.07031,-52.37305 -7.46506,-12.08616 -14.87302,-15.88867 -20.39844,-15.88867 z m 0.002,21.66211 c 0.86831,1.00615 1.98226,2.46878 3.38282,4.73633 4.89615,7.92701 10.08398,24.06881 10.08398,41.86328 0,17.79447 -5.18782,33.93625 -10.08398,41.86328 -1.40056,2.26755 -2.51451,3.73019 -3.38282,4.73633 -0.86828,-1.0062 -1.98128,-2.46721 -3.38281,-4.73633 C 380.37821,289.93475 375.1875,273.7931 375.1875,256 c 0,-17.7931 5.19082,-33.93477 10.08789,-41.86328 1.40153,-2.26912 2.51453,-3.73013 3.38281,-4.73633 z" />
    </clipPath>
    <rect
       x="0"
       y="0"
       width="512"
       height="512"
       id="rect1-9" />
    <clipPath
       clipPathUnits="userSpaceOnUse"
       id="clipPath51-6">
      <path
         id="path51-4"
         style="fill:#cb333b;stroke-linecap:round;stroke-linejoin:round;paint-order:stroke markers fill"
         d="M 102.27734,123.63867 50.5625,175.35352 v 48.28515 h 40 v 84.72266 h -40 v 80 h 60 40 60 v -80 h -40 V 123.63867 Z m 286.37891,0 c -33.93725,0 -60.23305,21.77801 -75.5039,46.50195 C 298.14299,194.44124 290.5625,224.21308 290.5625,256 c 0,31.78692 7.58049,61.55879 22.58985,85.85938 15.27085,24.72393 41.56664,46.50195 75.5039,46.50195 33.93727,0 60.23448,-21.77714 75.50586,-46.50195 C 479.17201,317.55791 486.75,287.7859 486.75,256 c 0,-31.7859 -7.57798,-61.5579 -22.58789,-85.85938 -15.27138,-24.7248 -41.56859,-46.50195 -75.50586,-46.50195 z m -278.09375,20 h 40 v 184.72266 h 40 v 40 h -40 -40 -40 v -40 h 40 V 183.63867 l -20,20 h -20 v -20 z m 278.09375,0 c 25.28188,0 45.76637,16.41335 58.49024,37.01367 C 459.87035,201.25264 466.75,227.42443 466.75,256 c 0,28.57557 -6.87965,54.74735 -19.60351,75.34766 -12.72387,20.60031 -33.20836,37.01367 -58.49024,37.01367 -25.28186,0 -45.76441,-16.41336 -58.48828,-37.01367 C 317.44411,310.74735 310.5625,284.57557 310.5625,256 c 0,-28.57557 6.88161,-54.74736 19.60547,-75.34766 12.72387,-20.60032 33.20642,-37.01367 58.48828,-37.01367 z m 0,44.09961 c -5.5254,0 -12.93337,3.80251 -20.39844,15.88867 C 360.79275,215.7131 355.1875,234.6977 355.1875,256 c 0,21.3023 5.60525,40.28689 13.07031,52.37305 7.46507,12.08616 14.87304,15.88867 20.39844,15.88867 5.52542,0 12.93338,-3.80251 20.39844,-15.88867 C 416.51975,296.28689 422.125,277.3023 422.125,256 c 0,-21.3023 -5.60525,-40.2869 -13.07031,-52.37305 -7.46506,-12.08616 -14.87302,-15.88867 -20.39844,-15.88867 z m 0.002,21.66211 c 0.86831,1.00615 1.98226,2.46878 3.38282,4.73633 4.89615,7.92701 10.08398,24.06881 10.08398,41.86328 0,17.79447 -5.18782,33.93625 -10.08398,41.86328 -1.40056,2.26755 -2.51451,3.73019 -3.38282,4.73633 -0.86828,-1.0062 -1.98128,-2.46721 -3.38281,-4.73633 C 380.37821,289.93475 375.1875,273.7931 375.1875,256 c 0,-17.7931 5.19082,-33.93477 10.08789,-41.86328 1.40153,-2.26912 2.51453,-3.73013 3.38281,-4.73633 z" />
    </clipPath>
    <clipPath
       clipPathUnits="userSpaceOnUse"
       id="clipPath54">
      <path
         id="path54"
         style="fill:#ff585d;fill-opacity:1;stroke:none;stroke-width:10;stroke-linecap:square;paint-order:fill markers stroke"
         d="m 262.18007,296 56.56854,56.56854 -80,80 L 182.18006,376 Z" />
    </clipPath>
    <rect
       x="0"
       y="0"
       width="512"
       height="512"
       id="rect1-6" />
    <clipPath
       clipPathUnits="userSpaceOnUse"
       id="clipPath51-3">
      <path
         id="path51-2"
         style="fill:#cb333b;stroke-linecap:round;stroke-linejoin:round;paint-order:stroke markers fill"
         d="M 102.27734,123.63867 50.5625,175.35352 v 48.28515 h 40 v 84.72266 h -40 v 80 h 60 40 60 v -80 h -40 V 123.63867 Z m 286.37891,0 c -33.93725,0 -60.23305,21.77801 -75.5039,46.50195 C 298.14299,194.44124 290.5625,224.21308 290.5625,256 c 0,31.78692 7.58049,61.55879 22.58985,85.85938 15.27085,24.72393 41.56664,46.50195 75.5039,46.50195 33.93727,0 60.23448,-21.77714 75.50586,-46.50195 C 479.17201,317.55791 486.75,287.7859 486.75,256 c 0,-31.7859 -7.57798,-61.5579 -22.58789,-85.85938 -15.27138,-24.7248 -41.56859,-46.50195 -75.50586,-46.50195 z m -278.09375,20 h 40 v 184.72266 h 40 v 40 h -40 -40 -40 v -40 h 40 V 183.63867 l -20,20 h -20 v -20 z m 278.09375,0 c 25.28188,0 45.76637,16.41335 58.49024,37.01367 C 459.87035,201.25264 466.75,227.42443 466.75,256 c 0,28.57557 -6.87965,54.74735 -19.60351,75.34766 -12.72387,20.60031 -33.20836,37.01367 -58.49024,37.01367 -25.28186,0 -45.76441,-16.41336 -58.48828,-37.01367 C 317.44411,310.74735 310.5625,284.57557 310.5625,256 c 0,-28.57557 6.88161,-54.74736 19.60547,-75.34766 12.72387,-20.60032 33.20642,-37.01367 58.48828,-37.01367 z m 0,44.09961 c -5.5254,0 -12.93337,3.80251 -20.39844,15.88867 C 360.79275,215.7131 355.1875,234.6977 355.1875,256 c 0,21.3023 5.60525,40.28689 13.07031,52.37305 7.46507,12.08616 14.87304,15.88867 20.39844,15.88867 5.52542,0 12.93338,-3.80251 20.39844,-15.88867 C 416.51975,296.28689 422.125,277.3023 422.125,256 c 0,-21.3023 -5.60525,-40.2869 -13.07031,-52.37305 -7.46506,-12.08616 -14.87302,-15.88867 -20.39844,-15.88867 z m 0.002,21.66211 c 0.86831,1.00615 1.98226,2.46878 3.38282,4.73633 4.89615,7.92701 10.08398,24.06881 10.08398,41.86328 0,17.79447 -5.18782,33.93625 -10.08398,41.86328 -1.40056,2.26755 -2.51451,3.73019 -3.38282,4.73633 -0.86828,-1.0062 -1.98128,-2.46721 -3.38281,-4.73633 C 380.37821,289.93475 375.1875,273.7931 375.1875,256 c 0,-17.7931 5.19082,-33.93477 10.08789,-41.86328 1.40153,-2.26912 2.51453,-3.73013 3.38281,-4.73633 z" />
    </clipPath>
    <clipPath
       clipPathUnits="userSpaceOnUse"
       id="clipPath3">
      <path
         style="display:inline;fill:#ff585d;fill-opacity:1;stroke-linecap:square;paint-order:fill markers stroke"
         d="m 260.57105,308.36068 c -22.03217,0 -40,17.96783 -40,40 0,22.03217 17.96783,40 40,40 22.03216,0 40,-17.96783 40,-40 0,-22.03217 -17.96784,-40 -40,-40 z m 0,10 c 16.62776,0 30,13.37223 30,30 0,16.62777 -13.37224,30 -30,30 -16.62777,0 -30,-13.37223 -30,-30 0,-16.62777 13.37223,-30 30,-30 z"
         id="path3"
         clip-path="none" />
    </clipPath>
  </defs>
  <g
     id="layer1"
     transform="matrix(0.12848467,0,0,0.1284363,0.70957745,-12.879693)">
    <circle
       style="display:none;fill:#323232;fill-opacity:1;stroke:none;stroke-width:15.118;stroke-linecap:round;stroke-linejoin:round;stroke-opacity:1;paint-order:markers fill stroke"
       id="path1"
       cx="256"
       cy="256"
       r="310" />
    <text
       xml:space="preserve"
       id="text1"
       style="font-size:213.333px;line-height:2;font-family:Arial;-inkscape-font-specification:'Arial, Normal';text-align:start;letter-spacing:0px;word-spacing:0px;writing-mode:lr-tb;direction:ltr;white-space:pre;shape-inside:url(#rect1-6);display:none;fill:#efefef;fill-opacity:1;stroke:none;stroke-width:15.1181;stroke-linecap:round;stroke-linejoin:round;stroke-opacity:1;paint-order:markers fill stroke"
       x="8.2815599"
       y="0"
       transform="translate(-6.5104069,59.203954)"><tspan
         x="141.00018"
         y="272.16051"
         id="tspan3"><tspan
           style="font-family:'Segoe UI';-inkscape-font-specification:'Segoe UI';text-align:center;text-anchor:middle;fill:#000000"
           id="tspan2">10</tspan></tspan></text>
    <ellipse
       style="display:none;fill:none;fill-opacity:1;stroke:#000000;stroke-width:40;stroke-linecap:round;stroke-linejoin:round;stroke-dasharray:none;stroke-opacity:1;paint-order:markers fill stroke"
       id="path6"
       cx="313.02832"
       cy="256"
       rx="50"
       ry="81.918365" />
    <path
       style="display:none;fill:#ffffff;stroke:#cb333b;stroke-width:80;stroke-linecap:round;stroke-linejoin:round;stroke-dasharray:none;stroke-opacity:1;paint-order:stroke markers fill"
       d="m 356.00016,131.27864 c -25.28186,0 -45.7639,16.41183 -58.48777,37.01215 -12.72386,20.6003 -19.60633,46.77296 -19.60633,75.34853 0,28.57557 6.88247,54.74822 19.60633,75.34853 C 310.23626,339.58816 330.7183,356 356.00016,356 c 25.28188,0 45.76609,-16.41184 58.48996,-37.01215 12.72386,-20.60031 19.60414,-46.77296 19.60414,-75.34853 0,-28.57557 -6.88028,-54.74823 -19.60414,-75.34853 -12.72387,-20.60032 -33.20808,-37.01215 -58.48996,-37.01215 z m 0,44.09847 c 5.52542,0 12.93442,3.80265 20.39948,15.88881 7.46506,12.08615 13.06942,31.0711 13.06942,52.3734 0,21.3023 -5.60436,40.28724 -13.06942,52.3734 -7.46506,12.08616 -14.87406,15.8888 -20.39948,15.8888 -5.5254,0 -12.93221,-3.80264 -20.39728,-15.8888 -7.46506,-12.08616 -13.07162,-31.0711 -13.07162,-52.3734 0,-21.3023 5.60656,-40.28725 13.07162,-52.3734 7.46507,-12.08616 14.87188,-15.88881 20.39728,-15.88881 z"
       id="path8" />
    <g
       id="g25"
       transform="translate(7.4739585)"
       style="display:inline">
      <path
         style="fill:#ffffff;stroke:#cb333b;stroke-width:40;stroke-linecap:round;stroke-linejoin:round;stroke-dasharray:none;stroke-opacity:1;paint-order:stroke markers fill"
         d="m 381.18199,143.63932 c -25.28186,0 -45.7639,16.41183 -58.48777,37.01215 -12.72386,20.6003 -19.60633,46.77296 -19.60633,75.34853 0,28.57557 6.88247,54.74822 19.60633,75.34853 12.72387,20.60031 33.20591,37.01215 58.48777,37.01215 25.28188,0 45.76609,-16.41184 58.48996,-37.01215 12.72386,-20.60031 19.60414,-46.77296 19.60414,-75.34853 0,-28.57557 -6.88028,-54.74823 -19.60414,-75.34853 -12.72387,-20.60032 -33.20808,-37.01215 -58.48996,-37.01215 z m 0,44.09847 c 5.52542,0 12.93442,3.80265 20.39948,15.88881 7.46506,12.08615 13.06942,31.0711 13.06942,52.3734 0,21.3023 -5.60436,40.28724 -13.06942,52.3734 -7.46506,12.08616 -14.87406,15.8888 -20.39948,15.8888 -5.5254,0 -12.93221,-3.80264 -20.39728,-15.8888 -7.46506,-12.08616 -13.07162,-31.0711 -13.07162,-52.3734 0,-21.3023 5.60656,-40.28725 13.07162,-52.3734 7.46507,-12.08616 14.87188,-15.88881 20.39728,-15.88881 z"
         id="path8-1" />
      <path
         d="m 103.08789,143.63867 -39.999999,40 v 20 h 20 l 19.999999,-20 V 328.36133 H 63.087891 v 40 h 39.999999 40 40 v -40 h -40 V 143.63867 Z"
         style="fill:#ffffff;stroke:#cb333b;stroke-width:40;stroke-linecap:square;paint-order:stroke markers fill"
         id="path42" />
    </g>
    <g
       id="g21"
       clip-path="url(#clipPath51-3)"
       style="display:inline">
      <path
         style="display:inline;fill:#418fde;fill-opacity:1;stroke-linecap:square;paint-order:stroke markers fill"
         d="M 566,-110.56836 -110.56836,566 239.87755,916.44591 916.44591,239.87755 Z"
         id="path50" />
      <path
         style="display:inline;fill:#ffffff;fill-opacity:1;stroke:#ff585d;stroke-width:80;stroke-linecap:square;stroke-linejoin:miter;stroke-dasharray:none;stroke-opacity:1;paint-order:stroke markers fill"
         d="M 566,-54 -54,566"
         id="path9" />
    </g>
    <g
       id="g24"
       transform="translate(38.39136,12.36068)"
       style="display:inline">
      <circle
         style="display:inline;fill:#ffffff;fill-opacity:1;stroke:#cb333b;stroke-width:10;stroke-linecap:square;stroke-linejoin:miter;stroke-dasharray:none;stroke-opacity:1;paint-order:fill markers stroke"
         id="path23"
         cx="222.18007"
         cy="336"
         r="35" />
      <circle
         style="display:none;fill:#418fde;fill-opacity:1;stroke:none;stroke-width:0;stroke-linecap:square;stroke-linejoin:miter;stroke-dasharray:none;stroke-opacity:1;paint-order:stroke markers fill"
         id="path24"
         cx="222.18007"
         cy="336"
         r="20" />
      <path
         id="path54-9"
         style="display:none;fill:#ff585d;fill-opacity:1;stroke:none;stroke-width:10;stroke-linecap:square;paint-order:fill markers stroke"
         d="m 262.18007,296 56.56854,56.56854 -80,80 L 182.18006,376 Z" />
      <g
         id="g3"
         transform="translate(-38.39136,-12.36068)"
         style="display:inline"
         clip-path="url(#clipPath3)">
        <rect
           style="fill:#cb333b;fill-opacity:1;stroke:none;stroke-width:10;stroke-linecap:square;paint-order:fill markers stroke"
           id="rect3"
           width="26.666666"
           height="80"
           x="390.58002"
           y="22.076372"
           transform="rotate(45)" />
        <rect
           style="fill:#ff585d;fill-opacity:1;stroke:none;stroke-width:10;stroke-linecap:square;paint-order:fill markers stroke"
           id="rect3-5"
           width="26.666666"
           height="80"
           x="417.2467"
           y="22.076372"
           transform="rotate(45)" />
        <rect
           style="fill:#418fde;fill-opacity:1;stroke:none;stroke-width:10;stroke-linecap:square;paint-order:fill markers stroke"
           id="rect3-2"
           width="26.666666"
           height="80"
           x="443.91339"
           y="22.076372"
           transform="rotate(45)" />
      </g>
    </g>
  </g>
</svg>
