<?xml version="1.0" encoding="UTF-8" standalone="no"?>
<!-- Created with Inkscape (http://www.inkscape.org/) -->

<svg
   xmlns:dc="http://purl.org/dc/elements/1.1/"
   xmlns:cc="http://creativecommons.org/ns#"
   xmlns:rdf="http://www.w3.org/1999/02/22-rdf-syntax-ns#"
   xmlns:svg="http://www.w3.org/2000/svg"
   xmlns="http://www.w3.org/2000/svg"
   xmlns:sodipodi="http://sodipodi.sourceforge.net/DTD/sodipodi-0.dtd"
   xmlns:inkscape="http://www.inkscape.org/namespaces/inkscape"
   id="svg2"
   version="1.1"
   inkscape:version="0.91 r"
   xml:space="preserve"
   width="368.75"
   height="382.5"
   viewBox="0 0 368.75 382.5"
   sodipodi:docname="Lulzbot_Logo_R_RGB.svg"><metadata
     id="metadata8"><rdf:RDF><cc:Work
         rdf:about=""><dc:format>image/svg+xml</dc:format><dc:type
           rdf:resource="http://purl.org/dc/dcmitype/StillImage" /><dc:title></dc:title></cc:Work></rdf:RDF></metadata><defs
     id="defs6"><clipPath
       clipPathUnits="userSpaceOnUse"
       id="clipPath18"><path
         d="m 0,10.0195 2950,0 0,3041.99 -2950,0 0,-3041.99 z"
         id="path20"
         inkscape:connector-curvature="0" /></clipPath></defs><sodipodi:namedview
     pagecolor="#ffffff"
     bordercolor="#666666"
     borderopacity="1"
     objecttolerance="10"
     gridtolerance="10"
     guidetolerance="10"
     inkscape:pageopacity="0"
     inkscape:pageshadow="2"
     inkscape:window-width="1879"
     inkscape:window-height="1022"
     id="namedview4"
     showgrid="false"
     showguides="true"
     inkscape:guide-bbox="true"
     inkscape:zoom="1.2339869"
     inkscape:cx="138.95414"
     inkscape:cy="85.732578"
     inkscape:window-x="41"
     inkscape:window-y="0"
     inkscape:window-maximized="1"
     inkscape:current-layer="g10" /><g
     id="g10"
     inkscape:groupmode="layer"
     inkscape:label="ink_ext_XXXXXX"
     transform="matrix(1.25,0,0,-1.25,0,382.5)"><g
       id="g4259"><g
         transform="scale(0.1,0.1)"
         id="g12"><g
           id="g14"><g
             clip-path="url(#clipPath18)"
             id="g16"><path
               inkscape:connector-curvature="0"
               id="path22"
               style="fill:#000000;fill-opacity:1;fill-rule:nonzero;stroke:none"
               d="M 1427.81,2873.77 178.75,710.988 l 2498.05,0 -1248.99,2162.782" /><path
               inkscape:connector-curvature="0"
               id="path24"
               style="fill:#000000;fill-opacity:1;fill-rule:nonzero;stroke:none"
               d="m 398.09,342.602 c 2.57,0 4.68,-0.903 6.32,-2.704 1.61,-1.796 2.391,-3.976 2.391,-6.558 l 0,-64.18 c 0,-2.621 -0.781,-4.808 -2.391,-6.601 -1.64,-1.797 -3.75,-2.7 -6.32,-2.7 l -210.078,0 c -6.211,0 -9.262,3.129 -9.262,9.301 l 0,321.91 c 0,6.129 3.051,9.258 9.262,9.258 l 67.109,0 c 6.129,0 9.219,-3.129 9.219,-9.258 l 0,-239.761 c 0,-2.579 0.89,-4.649 2.691,-6.289 1.758,-1.641 3.949,-2.418 6.559,-2.418 l 124.5,0" /><path
               inkscape:connector-curvature="0"
               id="path26"
               style="fill:#000000;fill-opacity:1;fill-rule:nonzero;stroke:none"
               d="m 785.898,597.629 c 1.762,-1.789 2.653,-3.938 2.653,-6.559 l 0,-266.992 -0.461,0 c 0,-2.578 -0.32,-5.348 -0.981,-8.277 -0.66,-2.891 -1.449,-5.313 -2.418,-7.313 l -44.73,-44.718 c -2.262,-1.25 -5.121,-2.27 -8.512,-2.891 -3.398,-0.668 -6.41,-1.02 -9.027,-1.02 l -154.141,0 c -2.621,0 -5.511,0.352 -8.75,1.02 -3.242,0.621 -6.011,1.641 -8.281,2.891 l -44.73,44.718 c -1.29,2.313 -2.301,5.043 -2.93,8.321 -0.66,3.211 -0.969,6.14 -0.969,8.75 l 0,265.511 c 0,2.621 0.899,4.77 2.688,6.559 1.761,1.801 3.953,2.699 6.57,2.699 l 67.101,0 c 2.579,0 4.77,-0.898 6.571,-2.699 1.789,-1.789 2.687,-3.938 2.687,-6.559 l 0,-239.761 c 0,-2.579 0.864,-4.809 2.66,-6.528 1.762,-1.793 3.981,-2.691 6.563,-2.691 l 96.289,0 c 2.578,0 4.73,0.898 6.328,2.691 1.602,1.719 2.422,3.949 2.422,6.528 l 0,239.761 c 0,2.621 0.898,4.77 2.66,6.559 1.789,1.801 3.981,2.699 6.602,2.699 l 67.578,0 c 2.57,0 4.801,-0.898 6.558,-2.699" /><path
               inkscape:connector-curvature="0"
               id="path28"
               style="fill:#000000;fill-opacity:1;fill-rule:nonzero;stroke:none"
               d="m 1133.36,342.602 c 2.58,0 4.69,-0.903 6.33,-2.704 1.64,-1.796 2.42,-3.976 2.42,-6.558 l 0,-64.18 c 0,-2.621 -0.78,-4.808 -2.42,-6.601 -1.64,-1.797 -3.75,-2.7 -6.33,-2.7 l -210.079,0 c -6.172,0 -9.222,3.129 -9.222,9.301 l 0,321.91 c 0,6.129 3.05,9.258 9.222,9.258 l 67.11,0 c 6.168,0 9.257,-3.129 9.257,-9.258 l 0,-239.761 c 0,-2.579 0.862,-4.649 2.652,-6.289 1.8,-1.641 3.95,-2.418 6.57,-2.418 l 124.49,0" /><path
               inkscape:connector-curvature="0"
               id="path30"
               style="fill:#000000;fill-opacity:1;fill-rule:nonzero;stroke:none"
               d="m 1497.66,529.781 c 0,-2.582 -0.67,-5.351 -2,-8.281 -1.28,-2.891 -2.77,-5.309 -4.33,-7.262 l -158.09,-178.008 155.16,0 c 2.58,0 4.76,-0.859 6.52,-2.66 1.8,-1.789 2.74,-3.98 2.74,-6.558 l 0,-57.852 c 0,-2.621 -0.94,-4.808 -2.74,-6.601 -1.76,-1.797 -3.94,-2.7 -6.52,-2.7 l -241.72,0 c -6.13,0 -9.26,3.129 -9.26,9.301 l 0,60.781 c 0,2.579 0.59,5.43 1.72,8.481 1.13,3.078 2.5,5.617 4.14,7.527 l 161.45,178.012 -155.12,0 c -2.62,0 -4.81,0.898 -6.56,2.699 -1.8,1.762 -2.7,3.942 -2.7,6.52 l 0,57.89 c 0,2.621 0.9,4.77 2.7,6.559 1.75,1.801 3.94,2.699 6.56,2.699 l 238.79,0 c 2.58,0 4.76,-0.898 6.52,-2.699 1.8,-1.789 2.74,-3.938 2.74,-6.559 l 0,-61.289" /><path
               inkscape:connector-curvature="0"
               id="path32"
               style="fill:#000000;fill-opacity:1;fill-rule:nonzero;stroke:none"
               d="m 1700.9,334.281 130.82,0 0,66.168 -130.82,0 0,-66.168 z m 0,131.321 130.82,0 0,60.777 -130.82,0 0,-60.777 z m 204.72,86.097 c 0.98,-2.269 1.88,-5.121 2.66,-8.519 0.82,-3.399 1.25,-6.399 1.25,-8.981 l 0,-53.988 c 0,-2.609 -0.58,-5.473 -1.72,-8.512 -1.13,-3.129 -2.5,-5.629 -4.14,-7.539 l -20.9,-26.762 c -1.64,-1.949 -2.38,-4.378 -2.18,-7.296 0.15,-2.93 1.01,-5.161 2.69,-6.801 l 19.92,-24.34 c 1.6,-1.91 3.09,-4.449 4.38,-7.539 1.29,-3.043 1.95,-5.902 1.95,-8.512 l 0,-57.351 c 0,-2.61 -0.43,-5.539 -1.25,-8.75 -0.78,-3.278 -1.68,-6.008 -2.66,-8.321 L 1860.9,263.77 c -2.31,-1.25 -5.12,-2.27 -8.52,-2.891 -3.43,-0.668 -6.4,-1.02 -8.98,-1.02 l -210.59,0 c -6.17,0 -9.26,3.129 -9.26,9.301 l 0,321.91 c 0,2.621 0.9,4.77 2.7,6.559 1.8,1.801 3.95,2.699 6.56,2.699 l 210.59,0 c 2.58,0 5.55,-0.43 8.98,-1.207 3.4,-0.82 6.21,-1.723 8.52,-2.699 l 44.72,-44.723" /><path
               inkscape:connector-curvature="0"
               id="path34"
               style="fill:#000000;fill-opacity:1;fill-rule:nonzero;stroke:none"
               d="m 2118.12,342.09 114.3,0 0,175.512 -114.3,0 0,-175.512 z m 196.53,209.609 c 0.97,-2.269 1.83,-5.039 2.65,-8.277 0.82,-3.25 1.25,-6.184 1.25,-8.75 l 0,-209.113 c 0,-2.61 -0.43,-5.539 -1.25,-8.75 -0.82,-3.278 -1.68,-6.008 -2.65,-8.321 l -44.77,-44.718 c -2.26,-1.25 -5.11,-2.27 -8.51,-2.891 -3.36,-0.668 -6.41,-1.02 -8.99,-1.02 l -154.18,0 c -2.58,0 -5.5,0.352 -8.75,1.02 -3.24,0.621 -5.97,1.641 -8.24,2.891 l -44.76,44.718 c -1.25,2.313 -2.27,5.043 -2.9,8.321 -0.66,3.211 -0.97,6.14 -0.97,8.75 l 0,209.113 c 0,2.566 0.31,5.5 0.97,8.75 0.63,3.238 1.65,6.008 2.9,8.277 l 44.76,44.723 c 2.27,0.976 5,1.879 8.24,2.699 3.25,0.777 6.17,1.207 8.75,1.207 l 154.18,0 c 2.58,0 5.63,-0.43 8.99,-1.207 3.4,-0.82 6.25,-1.723 8.51,-2.699 l 44.77,-44.723" /><path
               inkscape:connector-curvature="0"
               id="path36"
               style="fill:#000000;fill-opacity:1;fill-rule:nonzero;stroke:none"
               d="m 2676.91,526.852 c 0,-2.571 -0.89,-4.723 -2.65,-6.524 -1.84,-1.797 -3.99,-2.726 -6.56,-2.726 l -69.07,0 c -2.58,0 -4.76,-0.793 -6.6,-2.391 -1.76,-1.602 -2.65,-3.75 -2.65,-6.332 l 0,-239.719 c 0,-2.621 -0.83,-4.808 -2.43,-6.601 -1.64,-1.797 -3.75,-2.7 -6.33,-2.7 l -67.57,0 c -2.66,0 -4.81,0.903 -6.6,2.7 -1.76,1.793 -2.66,3.98 -2.66,6.601 l 0,239.719 c 0,2.582 -0.82,4.73 -2.42,6.332 -1.6,1.598 -3.75,2.391 -6.29,2.391 l -69.1,0 c -2.58,0 -4.77,0.929 -6.57,2.726 -1.75,1.801 -2.65,3.953 -2.65,6.524 l 0,64.218 c 0,6.129 3.04,9.258 9.22,9.258 l 241.72,0 c 2.57,0 4.72,-0.898 6.56,-2.699 1.76,-1.789 2.65,-3.938 2.65,-6.559 l 0,-64.218" /><path
               inkscape:connector-curvature="0"
               id="path38"
               style="fill:#c1d82f;fill-opacity:1;fill-rule:nonzero;stroke:none"
               d="m 1427.81,2750.84 294.81,-510.47 -589.61,0 294.8,510.47" /><path
               inkscape:connector-curvature="0"
               id="path40"
               style="fill:#c1d82f;fill-opacity:1;fill-rule:nonzero;stroke:none"
               d="m 285.898,773.609 294.301,509.571 294.289,-509.571 -588.59,0" /><path
               inkscape:connector-curvature="0"
               id="path42"
               style="fill:#c1d82f;fill-opacity:1;fill-rule:nonzero;stroke:none"
               d="m 945.469,773.609 -329.77,571.061 481.181,833.12 661.91,0 479.33,-830.16 -331.52,-574.021 -961.131,0" /><path
               inkscape:connector-curvature="0"
               id="path44"
               style="fill:#c1d82f;fill-opacity:1;fill-rule:nonzero;stroke:none"
               d="m 1977.62,773.609 296.01,512.581 296.06,-512.581 -592.07,0" /><path
               inkscape:connector-curvature="0"
               id="path46"
               style="fill:#000000;fill-opacity:1;fill-rule:nonzero;stroke:none"
               d="m 1438.75,841.66 c -3.48,-3.051 -7.66,-4.57 -11.84,-4.57 -4.21,0 -8.39,1.519 -11.87,4.609 -3.48,3.039 -6.88,12.93 -11.45,24.141 -4.57,11.25 -10.39,23.789 -18.71,32.148 -8.4,8.364 -18.24,13.321 -28.63,14.641 -10.31,1.371 -21.17,-0.82 -31.41,-6.711 -10.23,-5.938 -19.14,-16.609 -26.52,-26.25 -7.42,-9.648 -13.28,-18.398 -17.46,-20.43 -4.14,-2.07 -8.59,-2.457 -12.62,-1.367 -4.06,1.051 -7.73,3.629 -10.27,7.457 -2.58,3.871 -3.2,14.34 -4.69,26.41 -1.44,12.071 -3.79,25.742 -9.69,35.973 -5.89,10.277 -14.18,17.578 -23.82,21.598 -9.65,4.031 -20.67,4.652 -32.07,1.64 -11.45,-3.039 -23.01,-11.281 -32.86,-18.937 -9.84,-7.703 -17.96,-14.813 -22.5,-15.703 -4.53,-0.899 -8.94,-0.118 -12.57,1.953 -3.64,2.148 -6.49,5.547 -8.01,9.918 -1.45,4.422 0.86,14.879 2.73,27.191 1.88,12.231 3.36,26.25 0.35,37.649 -3.04,11.45 -9.14,20.71 -17.42,27.04 -8.28,6.32 -18.79,9.88 -30.62,9.88 -11.8,0 -25.39,-5.39 -37.15,-10.66 -11.8,-5.28 -21.76,-10.47 -26.41,-10.16 -4.611,0.27 -8.67,2.19 -11.599,5.16 -3.012,2.92 -4.84,6.99 -5.161,11.64 -0.269,4.6 4.93,14.6 10.239,26.32 5.271,11.8 10.621,25.39 10.661,37.19 0.04,11.88 -3.47,22.35 -9.841,30.67 -6.328,8.28 -15.551,14.33 -26.988,17.42 -11.41,3.04 -25.473,1.56 -37.699,-0.35 -12.262,-1.88 -22.774,-4.15 -27.192,-2.62 -4.332,1.44 -7.769,4.33 -9.879,7.97 -2.07,3.67 -2.89,8 -1.953,12.58 0.902,4.57 8.051,12.65 15.742,22.5 7.66,9.8 15.899,21.36 18.95,32.81 3.082,11.4 2.421,22.42 -1.571,32.11 -3.98,9.65 -11.328,17.93 -21.558,23.83 -10.231,5.89 -23.911,8.24 -35.981,9.68 -12.031,1.53 -22.5,2.19 -26.359,4.73 -3.871,2.62 -6.41,6.25 -7.5,10.31 -1.102,4.03 -0.672,8.48 1.359,12.66 2.07,4.14 10.789,10.04 20.469,17.38 9.691,7.34 20.351,16.29 26.293,26.49 5.937,10.23 8.129,21.09 6.797,31.4 -1.367,10.39 -6.289,20.28 -14.688,28.63 -8.359,8.36 -20.859,14.18 -32.07,18.75 -11.211,4.65 -21.09,8.01 -24.141,11.49 -3.09,3.48 -4.609,7.65 -4.57,11.87 0,4.18 1.48,8.36 4.57,11.88 3.09,3.48 12.969,6.8 24.18,11.4 11.211,4.58 23.75,10.4 32.109,18.76 8.36,8.35 13.321,18.24 14.653,28.59 1.398,10.35 -0.821,21.17 -6.723,31.44 -5.937,10.24 -16.598,19.14 -26.25,26.53 -9.687,7.38 -18.398,13.28 -20.469,17.42 -2.031,4.18 -2.422,8.59 -1.332,12.66 1.102,4.02 3.641,7.69 7.5,10.27 3.832,2.58 14.34,3.2 26.41,4.69 12.071,1.44 25.743,3.79 35.973,9.68 10.238,5.86 17.578,14.14 21.57,23.79 4.02,9.69 4.688,20.71 1.637,32.11 -3.09,11.45 -11.289,22.97 -18.949,32.82 -7.649,9.84 -14.758,17.96 -15.699,22.5 -0.899,4.57 -0.121,8.98 1.949,12.57 2.152,3.64 5.551,6.53 9.922,7.97 4.418,1.53 14.929,-0.78 27.148,-2.65 12.27,-1.92 26.289,-3.4 37.742,-0.39 11.399,3.04 20.618,9.17 26.989,17.46 6.41,8.28 9.88,18.75 9.88,30.58 0,11.8 -5.35,25.39 -10.619,37.19 -5.281,11.76 -10.511,21.76 -10.203,26.37 0.313,4.64 2.192,8.67 5.16,11.64 2.973,2.97 7.032,4.84 11.642,5.11 4.61,0.32 14.61,-4.92 26.37,-10.19 11.79,-5.27 25.35,-10.66 37.14,-10.66 11.88,-0.04 22.35,3.47 30.63,9.84 8.32,6.37 14.41,15.55 17.46,26.95 3.05,11.45 1.56,25.43 -0.31,37.74 -1.88,12.22 -4.14,22.73 -2.7,27.11 1.53,4.41 4.38,7.85 8.01,9.92 3.67,2.11 8.05,2.89 12.58,1.95 4.57,-0.9 12.65,-8.05 22.5,-15.7 9.84,-7.7 21.41,-15.9 32.81,-18.99 11.41,-3.04 22.42,-2.42 32.07,1.57 9.69,4.02 17.97,11.32 23.91,21.56 5.86,10.27 8.2,23.9 9.69,35.97 1.48,12.08 2.14,22.5 4.68,26.37 2.62,3.87 6.25,6.41 10.32,7.5 4.06,1.1 8.51,0.71 12.61,-1.37 4.18,-2.03 10.04,-10.78 17.42,-20.46 7.39,-9.73 16.29,-20.36 26.53,-26.25 10.19,-5.94 21.05,-8.21 31.4,-6.84 10.36,1.37 20.28,6.29 28.64,14.69 8.36,8.36 14.18,20.9 18.75,32.11 4.61,11.21 7.97,21.05 11.44,24.14 3.48,3.04 7.7,4.57 11.88,4.57 4.22,-0.04 8.4,-1.53 11.87,-4.61 3.48,-3.05 6.84,-12.93 11.45,-24.14 4.57,-11.21 10.39,-23.75 18.71,-32.11 8.36,-8.36 18.2,-13.32 28.59,-14.73 10.35,-1.37 21.21,0.86 31.45,6.76 10.23,5.94 19.18,16.56 26.52,26.29 7.38,9.65 13.28,18.36 17.42,20.43 4.14,2.03 8.64,2.42 12.7,1.37 3.98,-1.14 7.65,-3.68 10.23,-7.54 2.58,-3.83 3.21,-14.34 4.69,-26.37 1.48,-12.07 3.79,-25.7 9.69,-36.02 5.9,-10.23 14.18,-17.54 23.83,-21.56 9.61,-4.02 20.62,-4.69 32.11,-1.6 11.4,3.05 22.92,11.25 32.81,18.91 9.84,7.69 17.97,14.8 22.5,15.74 4.57,0.9 8.94,0.08 12.58,-1.99 3.63,-2.11 6.44,-5.55 7.96,-9.93 1.49,-4.37 -0.82,-14.88 -2.69,-27.14 -1.88,-12.23 -3.4,-26.25 -0.35,-37.74 3.04,-11.4 9.14,-20.62 17.42,-26.99 8.24,-6.37 18.79,-9.84 30.59,-9.88 11.79,0.04 25.39,5.39 37.18,10.62 11.76,5.31 21.76,10.51 26.41,10.2 4.61,-0.32 8.63,-2.15 11.6,-5.16 2.97,-2.97 4.84,-6.99 5.16,-11.64 0.31,-4.61 -4.93,-14.57 -10.2,-26.37 -5.27,-11.76 -10.66,-25.35 -10.7,-37.15 0,-11.83 3.47,-22.3 9.8,-30.62 6.41,-8.28 15.63,-14.41 27,-17.46 11.44,-3.01 25.46,-1.56 37.73,0.31 12.27,1.88 22.73,4.14 27.15,2.66 4.37,-1.49 7.77,-4.34 9.88,-7.97 2.11,-3.67 2.89,-8.05 1.95,-12.58 -0.89,-4.53 -8,-12.66 -15.7,-22.46 -7.66,-9.84 -15.9,-21.41 -18.94,-32.81 -3.09,-11.45 -2.47,-22.46 1.56,-32.11 3.98,-9.69 11.33,-17.97 21.52,-23.87 10.28,-5.9 23.95,-8.2 36.02,-9.73 12.07,-1.44 22.54,-2.15 26.36,-4.68 3.87,-2.58 6.41,-6.25 7.5,-10.32 1.1,-4.06 0.71,-8.47 -1.36,-12.65 -2.07,-4.1 -10.78,-10 -20.47,-17.39 -9.73,-7.38 -20.35,-16.25 -26.29,-26.48 -5.9,-10.23 -8.16,-21.05 -6.8,-31.45 1.37,-10.35 6.33,-20.23 14.61,-28.59 8.4,-8.4 20.98,-14.18 32.15,-18.79 11.17,-4.61 21.09,-7.97 24.1,-11.44 3.09,-3.48 4.61,-7.7 4.61,-11.88 0,-4.18 -1.52,-8.36 -4.61,-11.87 -3.04,-3.48 -12.93,-6.84 -24.14,-11.41 -11.17,-4.61 -23.75,-10.43 -32.11,-18.75 -8.36,-8.36 -13.32,-18.2 -14.69,-28.59 -1.36,-10.36 0.82,-21.18 6.72,-31.41 5.94,-10.23 16.6,-19.18 26.29,-26.56 9.65,-7.39 18.36,-13.24 20.43,-17.42 2.03,-4.18 2.46,-8.6 1.37,-12.66 -1.09,-4.02 -3.67,-7.7 -7.5,-10.23 -3.87,-2.58 -14.38,-3.25 -26.41,-4.69 -12.07,-1.49 -25.7,-3.79 -35.93,-9.73 -10.32,-5.86 -17.58,-14.14 -21.61,-23.79 -3.98,-9.69 -4.68,-20.66 -1.64,-32.11 3.09,-11.4 11.29,-23 18.95,-32.81 7.65,-9.8 14.76,-17.97 15.7,-22.54 0.9,-4.53 0.12,-8.91 -1.95,-12.54 -2.11,-3.63 -5.55,-6.52 -9.92,-8.01 -4.42,-1.44 -14.93,0.82 -27.15,2.7 -12.31,1.91 -26.29,3.44 -37.74,0.35 -11.4,-3.01 -20.62,-9.1 -26.99,-17.38 -6.37,-8.28 -9.88,-18.79 -9.88,-30.63 0.04,-11.79 5.35,-25.39 10.62,-37.14 5.32,-11.8 10.47,-21.8 10.2,-26.41 -0.27,-4.61 -2.23,-8.67 -5.16,-11.6 -2.97,-2.97 -7.03,-4.89 -11.64,-5.2 -4.61,-0.27 -14.61,4.92 -26.36,10.2 -11.76,5.35 -25.36,10.74 -37.15,10.7 -11.84,0.08 -22.35,-3.48 -30.63,-9.8 -8.32,-6.37 -14.41,-15.63 -17.5,-26.998 -3.05,-11.442 -1.52,-25.473 0.35,-37.692 1.88,-12.269 4.14,-22.812 2.66,-27.191 -1.49,-4.371 -4.38,-7.769 -8.01,-9.879 -3.63,-2.07 -8.01,-2.89 -12.54,-1.961 -4.57,0.903 -12.65,8.012 -22.5,15.711 -9.8,7.692 -21.36,15.942 -32.81,18.981 -11.41,3.089 -22.42,2.418 -32.11,-1.563 -9.65,-3.976 -17.93,-11.328 -23.87,-21.558 -5.89,-10.239 -8.2,-23.911 -9.68,-35.981 -1.49,-12.07 -2.15,-22.539 -4.73,-26.41 -2.58,-3.82 -6.21,-6.359 -10.27,-7.457 -4.07,-1.051 -8.48,-0.703 -12.66,1.367 -4.14,2.07 -10,10.781 -17.38,20.473 -7.39,9.687 -16.25,20.308 -26.53,26.289 -10.19,5.898 -21.05,8.121 -31.4,6.758 -10.35,-1.329 -20.28,-6.25 -28.64,-14.61 -8.36,-8.398 -14.18,-20.898 -18.75,-32.109 -4.61,-11.211 -8,-21.141 -11.48,-24.18" /><path
               inkscape:connector-curvature="0"
               id="path48"
               style="fill:#ffffff;fill-opacity:1;fill-rule:nonzero;stroke:none"
               d="m 1210.9,1295.45 c -2.58,3.47 -4.53,7.46 -5.74,11.44 -1.18,4.14 -1.72,8.24 -1.76,12.35 -0.08,4.02 0.31,7.93 1.13,11.95 0.16,0.98 0.47,1.95 0.7,3.01 0.12,0.47 0.51,1.48 0.67,1.91 l 0.58,1.49 c 0.82,1.95 1.72,3.75 2.74,5.54 3.9,6.96 9.61,13.48 17.11,17.93 0.94,0.59 1.91,1.1 2.85,1.6 l 1.56,0.75 1.41,0.62 c 1.37,0.59 2.69,1.13 4.14,1.88 2.81,1.4 6.01,3.12 9.84,4.64 3.75,1.53 8.01,2.62 12.07,3.25 4.1,0.58 8.05,0.78 11.92,0.78 7.61,-0.16 14.8,-1.02 21.83,-2.07 3.44,-0.51 7,-1.17 10.32,-1.84 l 1.21,-0.16 0.93,-0.11 2.07,-0.31 c 1.33,-0.12 2.66,-0.24 3.99,-0.32 8.01,-0.23 15.86,1.41 23.4,4.65 0,0 0.08,0 0.08,0.08 0.03,0.04 0.11,0 0.15,0.08 2.5,1.05 4.88,2.26 7.31,3.67 4.8,2.77 9.41,6.25 13.67,10.12 l 0.12,0.07 c 4.64,3.72 8.71,7.74 10.74,11.57 3.28,6.05 3.79,8.32 0.39,8.79 -2.81,0.31 -8.32,-0.63 -17.19,-1.68 -0.74,-0.08 -1.52,-0.2 -2.38,-0.32 -0.04,0 -0.04,0 -0.04,0 -7.23,-0.82 -14.34,-1.68 -21.45,-2.42 -7.73,-0.66 -15.27,-1.79 -23.63,-2.42 -4.18,-0.19 -8.59,-0.08 -13.2,0.82 -4.53,0.94 -9.26,2.77 -13.48,5.78 -4.14,2.97 -7.66,6.84 -10,11.1 -1.17,2.07 -2.15,4.25 -2.93,6.4 -0.82,2.35 -1.17,3.75 -1.68,5.35 -1.76,6.57 -4.18,12.82 -6.68,18.99 -2.58,6.05 -5.15,12.07 -8.2,17.58 -2.97,5.43 -6.29,10.43 -10.24,13.67 -3.75,3.24 -8.94,5.35 -14.21,5.78 -5.32,0.47 -11.14,-0.66 -16.33,-3.01 -0.63,-0.27 -1.33,-0.62 -1.76,-0.86 -0.47,-0.19 -1.02,-0.58 -1.56,-0.97 -1.1,-0.75 -2.15,-1.65 -3.21,-2.62 -2.03,-1.88 -3.75,-4.03 -5.07,-6.45 -2.74,-4.68 -3.75,-10.19 -3.09,-15.9 0.27,-2.89 1.02,-5.7 2.03,-8.63 l 0.43,-1.01 0,-0.28 c 0.04,-0.11 0.12,-0.15 0.12,-0.15 l 0.19,-0.51 c 0.24,-0.51 0.32,-0.63 0.51,-0.94 0.08,-0.19 0.24,-0.51 0.39,-0.78 0.67,-1.09 1.41,-2.19 2.27,-3.13 3.44,-3.75 8.83,-5.66 14.53,-5.46 5.66,0.04 11.52,2.07 16.17,5.43 4.65,3.43 7.81,8.43 8.48,13.9 0.04,0.28 0.11,0.71 0.19,1.02 0.86,2.3 3.4,3.43 5.71,2.61 2.3,-0.85 3.55,-3.28 2.73,-5.5 -0.43,-3.71 -1.68,-7.35 -3.55,-10.47 -2.04,-3.52 -4.73,-6.56 -7.78,-8.99 -6.17,-4.92 -13.63,-7.81 -21.56,-8.24 -3.98,-0.19 -8.09,0.24 -11.99,1.49 -3.99,1.29 -7.74,3.51 -10.75,6.56 -1.52,1.4 -2.89,3.12 -4.06,4.84 -0.23,0.47 -0.51,0.9 -0.82,1.41 -0.31,0.51 -0.54,1.05 -0.74,1.37 l -0.31,0.58 -0.31,0.82 -0.55,1.29 c -1.45,3.52 -2.62,7.19 -3.24,11.09 -1.29,7.82 -0.2,16.41 3.55,23.72 1.84,3.67 4.18,6.99 6.99,9.84 1.37,1.44 2.89,2.85 4.49,4.06 0.83,0.67 1.68,1.29 2.74,1.92 0.98,0.62 1.84,1.05 2.69,1.56 7.04,3.47 14.77,5.7 23.13,5.55 8.4,-0.2 16.64,-2.82 23.59,-7.9 6.92,-5.03 11.64,-11.48 15.59,-17.57 3.98,-6.21 7.23,-12.5 10.35,-18.79 3.09,-6.29 5.94,-12.54 9.38,-18.6 1.79,-3.43 2.85,-5.04 4.33,-6.44 1.45,-1.49 2.81,-2.46 4.38,-3.2 1.44,-0.86 3.16,-1.65 5.15,-2.31 2.03,-0.66 4.46,-1.09 7.03,-1.33 5.36,-0.47 11.25,0.9 16.64,3.79 3.36,1.8 6.57,3.91 9.65,6.29 0,0 6.06,3.75 11.45,11.52 -10.7,19.93 -12.62,42.86 -5.51,62.5 -4.92,5.94 -9.76,12.15 -14.14,18.87 -4.65,7.11 -8.98,14.85 -12.03,23.63 -1.49,4.42 -2.74,9.03 -3.4,13.95 -0.62,4.88 -0.62,10.08 0.2,15.16 0.46,2.5 1.09,5 1.91,7.42 0.2,0.58 0.43,1.21 0.66,1.76 l 0.2,0.43 c 0,0.07 0.04,0.23 0.12,0.31 l 0.31,0.62 1.13,2.42 c 1.53,3.25 2.85,6.53 3.95,9.85 2.15,6.56 3.43,13.44 3.59,19.18 0.16,2.93 -0.08,5.35 -0.59,7.11 -0.23,0.9 -0.62,1.75 -1.32,3.01 -0.63,1.17 -1.6,2.53 -2.62,4.33 -5.7,7.46 -15.35,12.93 -24.84,13.79 -9.77,0.9 -17.97,-3.28 -22.19,-12.54 -0.55,-1.05 -1.02,-2.26 -1.45,-3.51 -0.23,-0.59 -0.43,-1.22 -0.58,-1.84 l -0.67,-2.31 c -0.66,-2.22 -1.09,-4.88 -1.05,-7.07 0,-4.61 1.68,-8.12 5.27,-10.78 3.6,-2.69 8.99,-4.1 14.45,-4.1 5.36,-0.08 11.02,1.21 15.32,3.99 l 0.08,-0.08 c 1.36,0.9 3.51,0.58 5,-0.86 1.6,-1.68 1.83,-4.14 0.39,-5.59 -0.04,-0.08 -0.08,-0.11 -0.2,-0.15 -2.81,-2.58 -6.09,-4.34 -9.45,-5.71 -3.4,-1.29 -6.92,-2.18 -10.51,-2.57 -7.15,-0.79 -14.84,0 -22.03,4.06 -3.52,2.03 -6.8,5.08 -9.06,8.83 -2.31,3.75 -3.52,7.96 -3.91,11.99 -0.39,4.06 -0.08,7.77 0.59,11.64 l 0.54,2.46 c 0.16,0.86 0.39,1.76 0.63,2.66 0.51,1.75 1.05,3.63 1.79,5.35 2.7,7.07 7.82,14.1 14.89,18.55 7.07,4.49 15.43,6.17 23.24,5.9 7.85,-0.35 15.27,-2.5 22.03,-5.94 6.8,-3.43 12.97,-8.16 17.93,-14.33 l 0.04,-0.12 0.55,-0.66 c 0.82,-1.22 1.91,-2.62 3.16,-4.57 1.29,-1.88 2.62,-4.3 3.59,-6.84 1.96,-5.2 2.39,-10.24 2.23,-14.69 -0.35,-8.87 -2.3,-16.48 -3.75,-24.14 -0.74,-3.75 -1.48,-7.54 -2.15,-11.33 l -0.43,-2.85 -0.11,-0.66 -0.04,-0.39 0,-0.24 c -0.12,-0.27 -0.08,-0.54 -0.16,-0.86 -0.12,-1.09 -0.08,-2.26 -0.04,-3.4 0.43,-4.49 2.19,-9.1 5.2,-13.67 3.08,-4.61 7.18,-9.1 11.83,-13.24 3.71,-3.2 7.66,-6.33 11.8,-9.18 27.19,18.01 65.39,14.49 92.81,-9.41 4.65,3 9.14,6.91 13.36,11.79 0.08,0.08 0.08,0.12 0.16,0.24 0.23,0.23 0.39,0.47 0.58,0.74 2.82,3.48 5.36,7.11 7.62,10.82 2.23,3.67 4.26,7.46 5.59,11.25 1.25,3.83 1.83,7.7 1.6,11.06 -0.28,3.43 -1.21,6.4 -2.89,9.1 -0.78,1.29 -1.76,2.58 -2.89,3.79 l -2.5,2.53 -2.5,2.5 c -3.32,3.33 -6.84,6.49 -10.39,9.58 -7.11,6.25 -14.65,11.83 -22.66,17.92 -4.02,3.13 -8.2,6.37 -12.34,11.02 -2.07,2.34 -3.99,5.12 -5.43,8.44 -0.75,1.56 -1.29,3.28 -1.64,5 -0.08,0.39 -0.2,0.82 -0.24,1.25 l -0.19,1.05 -0.16,1.29 -0.16,1.1 c -0.5,6.17 0.36,12.3 2.23,17.89 0.94,2.77 2.07,5.35 3.44,7.93 0.66,1.29 1.37,2.5 2.19,3.75 0.39,0.58 0.78,1.21 1.28,1.75 0.36,0.63 0.75,1.06 1.22,1.68 l 0.07,0.12 c 0,0 0.04,-0.04 0,0.04 0.08,0.08 0.12,0.12 0.16,0.19 0.16,0.24 0.31,0.36 0.43,0.55 l 0.74,0.94 c 0.51,0.59 1.02,1.09 1.52,1.64 1.06,1.05 2.11,2.07 3.25,3.09 2.22,1.91 4.68,3.55 7.3,5.07 5.2,2.89 11.33,4.65 17.38,4.73 6.18,0.08 12,-1.44 17.15,-3.83 2.58,-1.17 5.08,-2.54 7.35,-3.98 2.54,-1.68 4.72,-3.44 6.75,-5.59 4.18,-4.26 7.31,-10.04 8.21,-16.21 0.9,-6.01 -0.28,-12.15 -2.62,-17.42 -2.38,-5.23 -5.9,-9.84 -10.31,-13.52 -4.38,-3.55 -9.85,-6.36 -15.98,-6.79 l -0.08,0.11 c -0.23,-0.11 -0.47,-0.07 -0.7,-0.07 -2.27,-0.2 -4.22,1.68 -4.37,4.14 -0.12,2.42 1.64,4.49 3.86,4.61 0.2,0.03 0.47,0.03 0.47,0.03 3.75,0.43 7.46,2.5 10.55,5.28 3.05,2.81 5.51,6.4 6.95,10.23 1.49,3.83 1.95,7.97 1.21,11.53 -0.78,3.75 -2.77,6.95 -5.54,9.61 -1.45,1.28 -3.21,2.57 -4.85,3.47 -1.99,1.17 -3.9,2.11 -5.86,2.85 -3.9,1.53 -7.89,2.23 -11.68,1.96 -3.75,-0.28 -7.42,-1.49 -10.7,-3.56 -1.64,-1.05 -3.28,-2.26 -4.65,-3.59 -0.74,-0.74 -1.44,-1.49 -2.07,-2.19 -0.31,-0.39 -0.59,-0.82 -0.9,-1.17 l -0.43,-0.59 c -0.04,-0.04 -0.15,-0.27 -0.19,-0.35 l -0.16,-0.19 -0.31,-0.36 -0.59,-0.97 -0.82,-1.29 c -0.47,-0.9 -0.97,-1.8 -1.4,-2.7 -0.82,-1.87 -1.53,-3.79 -2.11,-5.7 -0.98,-3.83 -1.33,-7.69 -0.78,-11.25 l 0.07,-0.74 0.16,-0.59 0.08,-0.43 0.08,-0.23 0.15,-0.59 c 0.16,-0.66 0.43,-1.25 0.74,-1.87 0.67,-1.21 1.61,-2.42 2.86,-3.71 2.57,-2.62 6.29,-5.28 10.19,-7.97 7.97,-5.35 16.52,-10.98 24.61,-17.23 4.06,-3.08 8.01,-6.37 11.88,-9.73 l 2.89,-2.57 2.81,-2.54 c 2.34,-2.31 4.53,-4.73 6.37,-7.62 3.71,-5.62 5.66,-12.3 6.21,-18.63 0.58,-6.45 0.07,-12.46 -0.82,-18.24 -0.9,-5.75 -2.27,-11.25 -3.95,-16.61 -1.64,-5.27 -3.67,-10.39 -5.82,-15.39 -1.95,-4.57 -4.06,-9.06 -6.29,-13.43 0,0 0,-0.08 -0.08,-0.16 -0.82,-2.15 -10.39,-28.24 12.97,-8.87 0.39,0.31 0.74,0.67 1.14,0.98 0.19,0.15 0.42,0.39 0.7,0.55 1.72,1.56 3.36,3 4.96,4.6 6.44,5.98 12.34,12.5 17.42,19.38 5.12,6.84 9.14,14.18 11.64,21.76 0.67,1.91 1.13,3.71 1.6,5.78 l 1.49,7.03 2.77,14.18 2.81,14.34 c 1.02,4.8 2.03,9.72 3.6,14.68 1.48,5 3.75,10.16 6.76,14.65 1.52,2.19 3.16,4.22 4.84,6.21 1.87,2.23 3.87,4.07 5.98,5.71 4.25,3.36 8.86,5.86 13.59,7.85 2.34,1.01 4.76,1.87 7.15,2.65 2.5,0.78 4.76,1.41 7.58,1.96 l 0.58,0.15 0.47,-0.04 c 1.84,-0.07 3.13,-0.35 4.57,-0.58 1.41,-0.24 2.81,-0.55 4.22,-0.98 2.77,-0.74 5.51,-1.72 8.12,-2.97 5.24,-2.42 10,-5.97 13.83,-10.47 3.91,-4.37 6.68,-9.61 8.48,-15.03 0.78,-2.74 1.41,-5.47 1.84,-8.25 0.46,-3.01 0.54,-5.9 0.19,-8.9 -0.62,-6.06 -3.48,-12.03 -7.85,-16.25 -4.42,-4.22 -9.84,-6.96 -15.43,-8.44 -5.55,-1.52 -11.37,-1.92 -17.07,-1.13 -5.51,0.86 -11.21,2.57 -16.06,6.83 -0.15,0.12 -0.31,0.28 -0.43,0.43 l -0.03,0 c -2.04,1.99 -2.19,5 -0.43,6.72 1.68,1.76 4.64,1.52 6.64,-0.39 0.04,-0.04 0.04,-0.04 0.04,-0.04 l 0.03,-0.08 c 2.66,-2.61 6.96,-4.37 11.45,-5.08 4.53,-0.62 9.3,-0.35 13.79,0.82 4.41,1.18 8.59,3.25 11.68,6.26 3.05,3.04 4.88,6.99 5.27,11.24 0.31,2.15 0.16,4.5 -0.15,6.61 -0.43,2.38 -0.98,4.65 -1.76,6.95 -1.6,4.37 -3.83,8.44 -6.92,11.8 -3.04,3.32 -6.87,5.9 -11.13,7.73 -2.07,0.98 -4.26,1.68 -6.52,2.23 -1.13,0.19 -2.31,0.51 -3.44,0.62 -0.78,0.16 -1.76,0.24 -2.54,0.28 -1.8,-0.43 -3.83,-1.1 -5.7,-1.76 -2.07,-0.78 -4.14,-1.64 -6.1,-2.62 -4.02,-1.87 -7.69,-4.1 -10.85,-6.8 -1.61,-1.32 -3.05,-2.89 -4.22,-4.29 -1.25,-1.72 -2.5,-3.52 -3.52,-5.35 -2.11,-3.6 -3.44,-7.35 -4.34,-11.61 -1.75,-8.47 -2.14,-17.96 -2.34,-27.42 -0.04,-4.72 0,-9.45 0.04,-14.26 l 0.16,-7.18 c 0,-2.66 -0.2,-5.59 -0.51,-8.32 -1.29,-11.14 -4.85,-21.53 -9.14,-31.21 -4.38,-9.73 -9.61,-18.75 -15.28,-27.47 -5.7,-8.75 -11.79,-16.99 -18.28,-25.03 -0.43,-0.55 -0.9,-1.1 -1.29,-1.64 5.47,3.2 11.14,6.24 17.11,8.98 5.08,2.23 10.32,4.37 15.9,6.13 5.71,1.72 11.76,3.13 18.6,3.52 6.71,0.39 14.53,-0.35 22.03,-3.91 3.67,-1.72 7.03,-4.14 9.76,-6.87 2.78,-2.74 5.04,-5.86 6.56,-8.71 0.59,-1.1 1.06,-2.23 1.57,-3.36 0.58,-1.14 1.17,-2.15 1.79,-3.25 l 3.52,-6.4 6.84,-12.81 c 4.37,-8.52 8.78,-17 13.63,-24.54 2.38,-3.78 5.04,-7.22 7.77,-10 1.45,-1.32 2.85,-2.46 4.3,-3.36 0.66,-0.39 1.41,-0.82 2.15,-1.13 0.93,-0.27 1.72,-0.55 2.65,-0.82 3.6,-0.94 7.58,-1.09 11.53,-0.55 1.99,0.32 3.98,0.82 5.93,1.37 0.98,0.35 2,0.71 2.9,1.1 l 1.4,0.58 1.13,0.55 0.82,0.39 -0.31,-0.16 c 0.16,0.08 0.71,0.39 1.1,0.67 0.46,0.19 0.86,0.47 1.32,0.74 0.82,0.58 1.68,1.17 2.5,1.84 1.64,1.28 3.09,2.77 4.42,4.37 2.58,3.16 4.41,6.84 5.15,10.74 0.82,3.95 0.55,8.21 -0.58,12.39 -0.55,2.14 -1.21,4.17 -2.19,6.32 -0.82,1.84 -1.84,3.83 -3.05,5.43 -2.42,3.32 -5.62,5.78 -9.37,6.99 -3.75,1.26 -8.05,1.18 -12.07,0.04 -4.06,-1.05 -7.93,-3.2 -11.13,-6.01 -3.13,-2.66 -5.43,-6.1 -6.25,-9.65 -0.04,-0.12 -0.04,-0.23 -0.08,-0.39 -0.24,-0.66 -0.59,-1.37 -1.17,-1.91 -1.76,-1.76 -4.61,-1.76 -6.33,0 -1.37,1.28 -1.64,3.39 -0.82,5.03 1.56,5.51 4.96,9.97 8.79,13.44 4.18,3.79 9.14,6.56 14.57,8.17 5.43,1.48 11.4,1.79 17.15,0.11 5.74,-1.64 10.82,-5.39 14.33,-9.96 1.8,-2.26 3.24,-4.57 4.53,-7.22 1.14,-2.39 2.15,-5 2.97,-7.58 1.6,-5.31 2.23,-11.14 1.37,-16.96 -0.74,-5.82 -3.2,-11.4 -6.6,-16.09 -1.68,-2.3 -3.68,-4.41 -5.75,-6.37 -1.09,-0.97 -2.18,-1.87 -3.35,-2.73 -0.63,-0.39 -1.22,-0.82 -1.76,-1.25 -0.63,-0.35 -1.02,-0.67 -1.8,-1.06 -0.74,-0.46 -1.25,-0.74 -1.84,-1.09 -0.62,-0.27 -1.25,-0.66 -1.83,-0.94 -1.25,-0.62 -2.5,-1.17 -3.79,-1.68 -2.5,-0.97 -5.16,-1.79 -7.89,-2.34 -5.39,-1.17 -11.25,-1.41 -16.95,-0.35 -1.49,0.27 -2.97,0.62 -4.34,1.09 -1.52,0.43 -3.05,1.06 -4.38,1.72 -2.85,1.33 -5.31,3.09 -7.5,4.81 -4.49,3.59 -7.96,7.53 -11.36,11.4 -3.36,3.83 -6.45,7.81 -9.38,11.68 l -8.79,11.6 -8.63,11.41 -4.3,5.58 c -0.78,0.94 -1.48,1.84 -2.26,2.78 -0.78,0.86 -1.64,1.72 -2.42,2.58 -2.19,2.14 -3.79,2.54 -5.32,2.54 -1.52,0.03 -3.55,-0.32 -6.25,-1.25 -5.46,-1.88 -12.3,-6.14 -18.71,-11.22 -6.44,-5.07 -12.81,-11.13 -18.82,-17.42 -0.4,-0.43 -0.79,-0.78 -1.14,-1.25 6.88,-6.09 13.64,-12.38 20.12,-19.41 3.98,-4.45 8.05,-9.14 11.6,-14.49 3.63,-5.32 6.95,-11.49 9.26,-18.6 2.19,-7.11 2.97,-15.5 1.33,-23.16 -0.82,-3.87 -2.19,-7.38 -3.75,-10.67 -0.47,-0.85 -0.67,-1.28 -1.02,-1.83 l -0.9,-1.56 -1.68,-3.13 c -4.53,-8.32 -8.82,-16.68 -12.26,-25.08 -3.56,-8.4 -6.41,-16.99 -7.07,-24.96 -0.35,-3.87 -0.16,-7.61 0.86,-11.05 0.23,-0.86 0.54,-1.68 0.93,-2.54 0.04,-0.12 0.24,-0.47 0.43,-0.78 0.16,-0.35 0.43,-0.71 0.63,-1.02 0.86,-1.4 2.11,-2.69 3.51,-4.02 5.75,-5.12 14.5,-8.99 22.58,-11.29 l -0.35,0 0.43,-0.08 c -0.04,0.08 -0.04,0.08 -0.08,0.08 l 0.24,-0.08 c 0.39,0 0.9,0 1.29,0.08 0.89,0 1.79,0.08 2.73,0.16 1.84,0.27 3.63,0.7 5.43,1.28 3.55,1.22 6.8,3.17 9.57,5.75 2.85,2.54 5.23,5.74 7.03,9.33 l 0.67,1.45 0.03,0 0,0.04 0.04,0.04 0,0.11 0.2,0.39 0.31,0.78 c 0.35,0.83 0.7,1.72 1.02,2.66 0.54,1.8 0.9,3.71 0.93,5.47 0.16,3.52 -0.74,6.84 -2.77,9.61 -2.03,2.81 -5.12,4.96 -8.59,6.33 -3.52,1.33 -7.42,2.03 -11.21,1.83 -3.75,-0.23 -7.31,-0.54 -10.78,-1.83 -2.47,-1.29 -5.47,-0.39 -6.92,2.07 -1.41,2.3 -0.86,5.35 1.25,6.91 l 0.16,0.16 c 0.47,0.15 0.82,0.39 1.25,0.55 4.8,2.42 9.84,3.32 14.76,3.32 5.35,0 10.63,-1.02 15.59,-3.13 4.84,-2.11 9.57,-5.35 12.97,-10 3.4,-4.65 5.11,-10.62 4.88,-16.17 -0.04,-2.78 -0.51,-5.47 -1.17,-8.01 -0.31,-1.29 -0.7,-2.5 -1.21,-3.87 l -0.67,-1.75 -0.82,-1.68 c -2.14,-4.61 -5,-9.14 -8.63,-13.01 -3.63,-3.83 -8.2,-6.99 -13.16,-9.18 -2.46,-1.13 -5.04,-1.95 -7.74,-2.62 -1.29,-0.23 -2.61,-0.47 -3.98,-0.62 -0.74,-0.08 -1.41,-0.2 -2.11,-0.24 l -1.13,-0.04 c -0.39,-0.04 -0.67,-0.04 -1.33,0 l -0.32,0 -0.58,0.12 c -2.93,0.59 -5.27,1.21 -7.85,1.91 -2.54,0.82 -5,1.64 -7.5,2.62 -5,1.99 -9.89,4.42 -14.65,7.93 -2.34,1.72 -4.61,3.79 -6.64,6.33 -0.59,0.62 -1.06,1.29 -1.52,1.95 -0.47,0.67 -0.9,1.33 -1.49,2.23 -0.74,1.33 -1.44,2.73 -2.07,4.14 -2.54,5.66 -3.67,11.72 -3.98,17.46 -0.36,5.78 0.11,11.29 0.82,16.6 0.74,5.31 1.75,10.47 2.96,15.47 2.39,10.08 15.9,51.06 -7.73,56.06 0,0 -0.04,0.07 -0.16,0.07 -2.81,0.9 -49.21,13.95 -111.21,-43.75 -19.45,-17.89 13.13,-46.09 13.13,-46.09 6.99,-6.99 14.14,-13.98 21.05,-22.07 3.48,-4.1 6.84,-8.48 9.57,-14.02 1.37,-2.82 2.5,-5.9 3.05,-9.3 0.31,-1.68 0.39,-3.4 0.43,-5.16 -0.04,-0.43 -0.08,-0.86 -0.08,-1.33 l -0.08,-0.54 -0.04,-0.51 -0.11,-1.21 -0.16,-1.09 c -0.98,-6.1 -3.28,-11.68 -6.4,-16.53 -1.57,-2.34 -3.25,-4.72 -5.2,-6.79 -0.86,-1.1 -1.88,-2.11 -2.93,-3.05 -0.47,-0.47 -1.05,-0.94 -1.6,-1.45 -0.55,-0.5 -1.02,-0.9 -1.84,-1.48 -0.54,-0.55 -0.93,-0.74 -1.48,-1.13 -0.63,-0.51 -1.17,-0.86 -1.8,-1.29 -1.21,-0.78 -2.5,-1.49 -3.75,-2.15 -2.54,-1.29 -5.23,-2.38 -8.08,-3.21 -5.59,-1.52 -11.72,-1.67 -17.43,-0.42 -5.74,1.21 -10.93,3.94 -15.31,7.26 -2.15,1.68 -4.26,3.56 -6.01,5.43 -2.04,2.15 -3.75,4.3 -5.24,6.76 -2.97,4.88 -4.76,10.94 -4.26,16.83 0.35,5.94 2.74,11.41 6.1,15.94 3.28,4.57 7.61,8.24 12.57,10.86 4.77,2.58 10.36,4.14 16.29,3.6 1.18,0.03 2.5,-0.43 3.48,-1.37 1.8,-1.84 1.84,-4.69 0.16,-6.37 -1.17,-1.13 -2.82,-1.48 -4.26,-1.05 -3.67,0.58 -7.89,-0.43 -11.64,-2.39 -3.79,-1.99 -7.11,-4.88 -9.65,-8.36 -2.46,-3.39 -3.95,-7.46 -4.1,-11.36 -0.16,-3.99 1.05,-7.86 3.28,-11.29 1.09,-1.76 2.58,-3.44 4.02,-4.81 1.72,-1.6 3.4,-3 5.2,-4.22 3.55,-2.5 7.5,-4.18 11.44,-4.8 3.95,-0.66 8.05,-0.16 11.88,1.21 1.95,0.63 3.79,1.56 5.55,2.62 0.85,0.54 1.71,1.17 2.53,1.76 0.43,0.35 0.82,0.66 1.22,0.93 0.31,0.32 0.82,0.74 0.86,0.86 l -0.2,-0.27 0.7,0.66 0.94,0.9 1.02,1.09 c 0.7,0.79 1.36,1.57 2.03,2.43 1.25,1.68 2.42,3.4 3.36,5.23 1.87,3.63 2.89,7.5 3.12,11.21 l 0.08,0.71 -0.04,1.17 0,0.11 -0.04,0.08 c 0.04,0.2 0.04,0.35 0,0.55 -0.08,0.74 -0.19,1.48 -0.43,2.23 -0.39,1.4 -1.09,2.93 -2.07,4.53 -1.95,3.08 -4.84,6.33 -8.12,9.49 -6.57,6.25 -14.3,12.23 -21.96,18.28 l -11.72,9.1 -5.85,4.65 -3.72,2.97 -1.01,0.86 c -0.7,0.58 -1.37,1.25 -1.95,1.83 -2.58,2.66 -4.85,5.83 -6.61,9.26 -1.71,3.4 -2.89,7.11 -3.59,10.74 -1.33,7.31 -0.66,14.18 0.47,20.32 2.5,12.38 7.15,22.73 12.07,32.58 2.46,4.8 5.04,9.41 7.69,13.86 0.04,0.04 0.04,0.12 0.08,0.24 0,0 0,0 0.08,0.07 -0.04,0 0,0.04 0,0.04 0,0 -43.24,-20.5 -59.8,-22.77 0,-0.04 -0.04,0 -0.04,0 -1.29,-0.31 -2.58,-0.62 -3.87,-0.86 -7.89,-1.56 -16.21,-1.87 -24.26,-0.9 -1.99,0.24 -3.98,0.59 -5.97,0.98 l -2.93,0.62 -2.78,0.75 c -3.24,0.86 -6.25,1.64 -9.33,2.42 -6.21,1.48 -12.39,2.69 -18.17,3.24 -2.93,0.27 -5.66,0.51 -8.28,0.2 -2.58,-0.2 -4.96,-0.47 -7.5,-1.25 -2.54,-0.79 -5.39,-2 -8.71,-3.32 -1.68,-0.63 -3.44,-1.33 -5.23,-1.88 l -0.94,-0.31 -0.78,-0.31 c -0.55,-0.24 -1.06,-0.47 -1.57,-0.79 -4.25,-2.1 -8.12,-5.78 -11.05,-10.23 -0.7,-1.17 -1.41,-2.34 -1.95,-3.52 l -0.43,-0.78 c -0.16,-0.31 -0.08,-0.07 -0.24,-0.47 -0.19,-0.5 -0.39,-1.21 -0.54,-1.83 -0.71,-2.54 -1.14,-5.31 -1.29,-8.01 -0.28,-5.39 0.82,-10.35 3.4,-14.37 2.53,-4.11 6.83,-7.23 12.14,-9.5 5.39,-2.3 11.06,-3.59 16.06,-3 5.08,0.54 9.33,3.04 12.34,7.26 5.9,8.32 6.13,22.07 -0.35,31.02 l -0.04,0 c -1.44,1.44 -1.25,3.98 0.51,5.82 1.72,1.68 4.26,1.91 5.74,0.54 l 0.04,-0.03 c 0.12,-0.08 0.2,-0.24 0.31,-0.32 5.2,-5.82 8.09,-13.12 8.87,-20.66 0.7,-7.7 -0.59,-15.78 -4.84,-22.93 -2.15,-3.56 -5.04,-6.84 -8.68,-9.22 -3.55,-2.46 -7.61,-4.1 -11.79,-4.84 -8.36,-1.45 -16.37,0.11 -23.44,2.61 -7.23,2.46 -14.77,7 -19.92,14.03" /><path
               inkscape:connector-curvature="0"
               id="path50"
               style="fill:#c1d82f;fill-opacity:1;fill-rule:nonzero;stroke:none"
               d="m 1733.12,1143.49 c -41.21,-41.25 -89.33,-73.2 -143,-94.92 -51.84,-20.97 -106.64,-31.6 -162.85,-31.6 l -0.04,0 c -56.21,0 -111.02,10.63 -162.85,31.6 -53.68,21.76 -101.8,53.67 -143.01,94.88 -168.671,168.68 -168.671,443.13 0,611.8 41.21,41.25 89.33,73.17 143.01,94.88 51.83,20.98 106.64,31.65 162.89,31.65 56.21,0 111.01,-10.67 162.89,-31.65 53.67,-21.71 101.79,-53.67 143,-94.88 41.22,-41.21 73.17,-89.33 94.89,-143.01 20.97,-51.83 31.6,-106.64 31.6,-162.89 0,-56.21 -10.67,-111.01 -31.6,-162.85 -21.76,-53.67 -53.67,-101.8 -94.93,-143.01 z m 10.59,622.31 c -84.37,84.37 -196.8,130.86 -316.44,130.86 -119.65,0 -232.07,-46.49 -316.45,-130.9 C 1026.45,1681.38 979.961,1569 980,1449.35 c 0,-119.68 46.45,-232.03 130.86,-316.4 84.37,-84.42 196.72,-130.86 316.37,-130.86 119.68,0 232.07,46.44 316.4,130.86 174.49,174.49 174.53,458.36 0.08,632.85" /><path
               inkscape:connector-curvature="0"
               id="path52"
               style="fill:#c1d82f;fill-opacity:1;fill-rule:nonzero;stroke:none"
               d="m 1647.5,1229.12 c -58.71,-58.75 -136.95,-91.1 -220.23,-91.1 -83.29,0 -161.49,32.39 -220.24,91.1 -58.75,58.75 -91.09,136.95 -91.09,220.23 0,83.28 32.34,161.53 91.05,220.24 58.75,58.75 136.99,91.09 220.28,91.09 83.32,0 161.52,-32.34 220.23,-91.09 58.75,-58.71 91.09,-136.96 91.09,-220.24 0,-83.32 -32.34,-161.52 -91.09,-220.23 z m 10.55,451.01 c -61.57,61.57 -143.48,95.43 -230.75,95.43 -87.3,0 -169.25,-33.9 -230.82,-95.46 -61.56,-61.53 -95.43,-143.48 -95.43,-230.75 0,-87.26 33.91,-169.22 95.47,-230.78 61.53,-61.52 143.48,-95.39 230.75,-95.39 87.26,0 169.21,33.87 230.74,95.39 61.52,61.56 95.47,143.52 95.47,230.78 0,87.31 -33.87,169.26 -95.43,230.78" /><path
               inkscape:connector-curvature="0"
               id="path54"
               style="fill:#ffffff;fill-opacity:1;fill-rule:nonzero;stroke:none"
               d="m 1698.79,1676.89 c -2.7,3.24 -5.47,6.41 -8.24,9.53 l 37.07,33.44 c 3.16,-3.55 6.33,-7.26 9.45,-10.94 l -38.28,-32.03 z m -44.26,44.18 15.55,19.53 16.21,19.03 c 3.87,-3.28 7.3,-6.21 10.66,-9.3 l -33.32,-37.15 c -2.97,2.66 -5.97,5.27 -9.1,7.89 z m 73.87,-85.12 c -2.23,3.6 -4.49,7.15 -6.88,10.59 l 41.49,27.81 c 2.73,-3.98 5.35,-8.04 7.89,-12.18 l -42.5,-26.22 z m -115.28,115 26.22,42.47 c 4.06,-2.5 8.04,-5.08 12.11,-7.74 l -27.62,-41.56 c -3.56,2.34 -7.11,4.61 -10.71,6.83 z m 138.72,-159.8 c -1.68,3.87 -3.44,7.73 -5.28,11.56 l 45.04,21.57 c 2.07,-4.42 4.02,-8.76 5.98,-13.17 l -45.74,-19.96 z m -183.44,183.16 19.8,45.79 c 4.42,-1.88 8.75,-3.87 13.13,-5.94 l -21.45,-45.08 c -3.79,1.8 -7.65,3.55 -11.48,5.23 z m 200.19,-230.74 c -1.13,4.03 -2.26,8.09 -3.51,12.07 l 47.62,14.96 c 1.4,-4.61 2.81,-9.25 4.1,-13.9 l -48.21,-13.13 z m -247.81,247.38 13.09,48.21 c 4.65,-1.25 9.22,-2.62 13.79,-4.06 l -14.81,-47.66 c -3.98,1.29 -8.05,2.46 -12.07,3.51 z m 257.74,-296.99 c -0.55,4.18 -1.14,8.32 -1.84,12.5 l 49.3,8.09 c 0.74,-4.77 1.44,-9.53 2.07,-14.34 l -49.53,-6.25 z m -307.31,306.76 6.13,49.53 c 4.77,-0.58 9.5,-1.25 14.26,-2.03 l -7.89,-49.26 c -4.14,0.67 -8.32,1.25 -12.5,1.76 z m 310.08,-357.19 c 0.08,4.18 0.08,8.4 0,12.58 l 49.88,1.06 c 0.12,-4.81 0.12,-9.65 0,-14.46 l -49.88,0.82 z m -360.51,359.81 -0.94,49.88 c 4.77,0.16 9.57,0.12 14.38,0.08 l -0.74,-49.92 c -4.22,0.07 -8.48,0.04 -12.7,-0.04 z m 356.13,-410.16 c 0.71,4.14 1.25,8.32 1.76,12.54 l 49.53,-6.09 c -0.54,-4.77 -1.21,-9.5 -1.95,-14.18 l -49.34,7.73 z m -406.48,405.63 -7.93,49.29 c 4.69,0.75 9.49,1.45 14.22,2.03 l 6.25,-49.53 c -4.18,-0.54 -8.36,-1.09 -12.54,-1.79 z m 446.76,-455.71 c -1.25,-4.61 -2.58,-9.18 -4.03,-13.79 l -47.65,14.69 c 1.21,4.06 2.38,8.13 3.47,12.19 l 48.21,-13.09 m -495.94,444.14 -14.84,47.62 c 4.57,1.49 9.18,2.77 13.82,4.06 l 13.17,-48.12 c -4.06,-1.13 -8.13,-2.31 -12.15,-3.56 z m 425.9,-490.15 c 1.8,3.79 3.51,7.61 5.19,11.44 l 45.78,-19.8 c -1.83,-4.42 -3.86,-8.79 -5.93,-13.17 l -45.04,21.53 z m -472.97,471.68 -21.48,45.08 c 4.41,2.07 8.75,4.06 13.2,5.97 l 19.8,-45.86 c -3.86,-1.64 -7.73,-3.4 -11.52,-5.19 z m 448.05,-515.59 c 2.34,3.52 4.61,7.03 6.79,10.63 l 42.46,-26.21 c -2.5,-4.11 -5.07,-8.13 -7.77,-12.11 l -41.48,27.69 z m -491.92,490.63 -27.73,41.48 c 3.98,2.7 8.04,5.31 12.15,7.85 l 26.21,-42.5 c -3.56,-2.22 -7.15,-4.49 -10.63,-6.83 z m 460.94,-530.63 c 2.62,2.93 5.2,5.86 7.7,8.91 l 39.06,-31.14 -0.39,-0.46 c -3.24,-3.87 -6.17,-7.23 -9.1,-10.55 l -37.27,33.24 z m -500.82,499.61 -33.4,37.07 c 3.59,3.28 7.19,6.41 10.9,9.49 l 32.07,-38.28 c -3.24,-2.69 -6.45,-5.47 -9.57,-8.28 z m 496.72,-572.97 -32.11,38.2 c 3.2,2.74 6.37,5.47 9.49,8.33 l 33.48,-37.07 c -3.56,-3.25 -7.23,-6.37 -10.86,-9.46 z m -570.08,568.6 0.23,0.23 c 3.01,3.59 6.06,7.19 9.18,10.66 l 37.15,-33.36 c -2.73,-3.04 -5.39,-6.17 -8.08,-9.33 l -0.82,-0.94 -14.07,13.01 -23.59,19.73 z m 523.28,-602.47 -26.25,42.47 c 3.6,2.18 7.15,4.49 10.67,6.83 l 27.81,-41.44 c -4.06,-2.7 -8.13,-5.36 -12.23,-7.86 z m -556.99,555.79 c 2.54,4.06 5.12,8.12 7.81,12.11 l 41.49,-27.78 c -2.35,-3.51 -4.61,-7.03 -6.84,-10.62 l -42.46,26.29 z m 505.94,-582.54 -19.92,45.78 c 3.82,1.68 7.73,3.4 11.48,5.23 l 21.56,-45.04 c -4.3,-2.07 -8.71,-4.06 -13.12,-5.97 z m -532.62,531.4 c 1.87,4.42 3.87,8.79 5.94,13.13 l 45.08,-21.53 c -1.84,-3.78 -3.6,-7.61 -5.28,-11.48 l -45.74,19.88 z m 478.28,-550.62 -13.24,48.12 c 4.06,1.14 8.08,2.35 12.15,3.6 l 14.96,-47.66 c -4.61,-1.44 -9.22,-2.77 -13.87,-4.06 z m -497.42,496.29 c 1.25,4.61 2.62,9.22 4.02,13.79 l 47.66,-14.85 c -1.21,-3.94 -2.38,-8.01 -3.52,-12.07 l -48.16,13.13 z m 440.94,-507.58 -6.37,49.49 c 4.22,0.55 8.4,1.13 12.58,1.84 l 8.04,-49.26 c -4.72,-0.78 -9.49,-1.48 -14.25,-2.07 z m -452.11,451.05 c 0.62,4.77 1.29,9.54 2.03,14.26 l 49.3,-7.89 c -0.63,-4.14 -1.25,-8.32 -1.76,-12.46 l -49.57,6.09 z m 394.61,-454.29 0.74,49.92 c 4.18,-0.08 8.44,-0.08 12.62,0.04 l 1.05,-49.89 c -4.8,-0.11 -9.61,-0.15 -14.41,-0.07 z m -397.58,396.79 c -0.12,4.85 -0.12,9.65 0,14.5 l 49.88,-0.94 c -0.08,-4.26 -0.08,-8.44 0,-12.66 l -49.88,-0.9 z m 340.23,-391.83 7.78,49.29 c 4.18,-0.7 8.32,-1.28 12.5,-1.75 l -6.06,-49.57 c -4.73,0.58 -9.53,1.25 -14.22,2.03 z m -335.15,334.49 c -0.78,4.77 -1.45,9.49 -2.03,14.3 l 49.53,6.17 c 0.5,-4.18 1.13,-8.36 1.79,-12.5 l -49.29,-7.97 z m 279.02,-321.52 14.77,47.69 c 3.98,-1.25 8,-2.38 12.07,-3.47 l -12.97,-48.21 c -4.65,1.25 -9.26,2.58 -13.87,3.99 z m -265.86,265.43 c -1.44,4.61 -2.77,9.21 -4.06,13.86 l 48.16,13.09 c 1.17,-4.02 2.31,-8.13 3.56,-12.11 l -47.66,-14.84 z m 212.19,-244.53 21.37,45.11 c 3.82,-1.79 7.65,-3.51 11.56,-5.19 l -19.85,-45.82 c -4.37,1.87 -8.75,3.86 -13.08,5.9 z m -191.17,190.85 c -2.11,4.34 -4.07,8.72 -5.98,13.17 l 45.82,19.8 c 1.64,-3.86 3.4,-7.69 5.23,-11.56 l -45.07,-21.41 z m 141.01,-162.42 27.58,41.6 c 3.55,-2.38 7.07,-4.64 10.7,-6.79 l -26.17,-42.58 c -4.02,2.54 -8.08,5.12 -12.11,7.77 z m -112.54,112.23 c -2.69,3.98 -5.27,8.08 -7.81,12.23 l 42.5,26.13 c 2.23,-3.6 4.49,-7.11 6.84,-10.67 l -41.53,-27.69 z m 65.98,-76.13 33.28,37.18 c 3.16,-2.81 6.37,-5.58 9.61,-8.32 l 1.09,-0.89 -32.22,-38.09 -0.63,0.47 c -3.98,3.36 -7.58,6.44 -11.13,9.65 z m -30.63,30.58 c -3.16,3.6 -6.32,7.23 -9.41,10.9 l 38.28,32.03 c 2.7,-3.24 5.47,-6.4 8.28,-9.53 l -37.15,-33.4" /><path
               inkscape:connector-curvature="0"
               id="path56"
               style="fill:#c1d82f;fill-opacity:1;fill-rule:nonzero;stroke:none"
               d="m 1397.77,1953.1 c 0,16.6 13.4,30 30,30 16.61,0 30,-13.4 30,-30 0,-16.56 -13.39,-29.96 -30,-29.96 -16.6,0 -30,13.4 -30,29.96 z M 1050,1784.63 c -11.72,11.79 -11.72,30.7 0,42.5 11.68,11.72 30.7,11.72 42.38,-0.08 11.72,-11.72 11.72,-30.7 0,-42.42 -5.9,-5.78 -13.47,-8.79 -21.21,-8.79 -7.69,0 -15.39,3.01 -21.17,8.79 z m 713.12,-0.2 c -11.71,11.72 -11.71,30.7 0,42.38 11.68,11.84 30.67,11.84 42.39,0.12 11.68,-11.72 11.79,-30.7 0,-42.5 -5.82,-5.78 -13.52,-8.79 -21.21,-8.79 -7.58,0 -15.32,3.01 -21.18,8.79 z M 923.398,1419.47 c -16.519,0.08 -29.918,13.48 -29.918,30.08 0,16.52 13.399,29.92 30,29.92 16.598,0 30,-13.4 30,-30 0,-16.52 -13.48,-30 -30,-30 l -0.082,0 z m 978.402,29.69 c 0,16.6 13.4,30 30,30 16.6,0.12 30,-13.4 30,-29.88 l 0,-0.12 c 0,-16.53 -13.4,-29.88 -30,-30 -16.53,0 -30,13.47 -30,30 z m -138.28,-377.78 c -11.8,11.68 -11.8,30.71 -0.12,42.39 11.72,11.72 30.7,11.79 42.38,0 11.72,-11.68 11.84,-30.71 0.12,-42.39 -5.9,-5.89 -13.6,-8.78 -21.29,-8.78 -7.62,0 -15.31,2.89 -21.09,8.78 z m -713.25,-0.89 c -0.07,0.19 -0.19,0.31 -0.27,0.39 -0.31,0.19 -0.51,0.5 -0.82,0.7 l 0.12,0 c -11.8,11.8 -11.72,30.78 0,42.5 11.68,11.72 30.7,11.6 42.38,-0.12 0.2,-0.19 0.43,-0.27 0.51,-0.51 0.19,-0.15 0.31,-0.27 0.51,-0.46 11.68,-11.72 11.79,-30.63 0.07,-42.43 -5.89,-5.89 -13.59,-8.78 -21.29,-8.78 -7.57,0 -15.31,2.89 -21.21,8.71 z M 1398.2,944.781 c 0,16.598 13.4,30 30,30 16.6,0.117 30,-13.281 30.08,-29.883 0,-16.597 -13.48,-30 -30,-30.117 -16.6,0 -30,13.399 -30.08,30" /><path
               inkscape:connector-curvature="0"
               id="path58"
               style="fill:#000000;fill-opacity:1;fill-rule:nonzero;stroke:none"
               d="m 2273.59,1113.57 149.34,-258.59 -298.67,0 149.33,258.59 z m 0,62.66 -203.63,-352.582 407.23,0 -203.6,352.582" /><path
               inkscape:connector-curvature="0"
               id="path60"
               style="fill:#000000;fill-opacity:1;fill-rule:nonzero;stroke:none"
               d="m 580.469,1113.57 149.332,-258.59 -298.672,0 149.34,258.59 z m 0,62.66 -203.59,-352.582 407.18,0 -203.59,352.582" /><path
               inkscape:connector-curvature="0"
               id="path62"
               style="fill:#000000;fill-opacity:1;fill-rule:nonzero;stroke:none"
               d="m 1427.81,2584.2 149.34,-258.6 -298.67,0 149.33,258.6 z m 0,62.65 -203.59,-352.57 407.23,0 -203.64,352.57" /></g></g></g><path
         inkscape:connector-curvature="0"
         id="path72"
         style="fill:#000000;fill-opacity:1;fill-rule:nonzero;stroke:none"
         d="m 271.69711,35.459952 c -0.594,0 -1.152,-0.1102 -1.672,-0.3281 -0.512,-0.211 -0.98,-0.5321 -1.406,-0.9688 -0.43,-0.4301 -0.75,-0.9019 -0.969,-1.4223 -0.219,-0.5226 -0.328,-1.0777 -0.328,-1.6718 0,-0.586 0.109,-1.1371 0.328,-1.6559 0.219,-0.5242 0.539,-0.9961 0.969,-1.4223 0.426,-0.4296 0.894,-0.75 1.406,-0.9687 0.52,-0.2109 1.078,-0.3121 1.672,-0.3121 0.602,0 1.16,0.1012 1.672,0.3121 0.519,0.2187 0.992,0.5391 1.422,0.9687 0.426,0.4262 0.742,0.8954 0.953,1.4063 0.219,0.5199 0.328,1.0777 0.328,1.6719 0,0.6019 -0.109,1.164 -0.328,1.6879 -0.219,0.5191 -0.539,0.9882 -0.953,1.4062 -0.43,0.4367 -0.903,0.7578 -1.422,0.9688 -0.512,0.2179 -1.07,0.3281 -1.672,0.3281 z m 0,0.7031 c 0.695,0 1.344,-0.125 1.937,-0.375 0.602,-0.25 1.149,-0.625 1.641,-1.125 0.5,-0.5 0.867,-1.0473 1.109,-1.641 0.25,-0.5941 0.376,-1.2461 0.376,-1.9531 0,-0.6871 -0.126,-1.3282 -0.376,-1.9219 -0.242,-0.5941 -0.609,-1.1402 -1.109,-1.6402 -0.492,-0.5 -1.039,-0.875 -1.641,-1.125 -0.593,-0.25 -1.242,-0.375 -1.937,-0.375 -0.687,0 -1.336,0.125 -1.937,0.375 -0.606,0.25 -1.153,0.625 -1.641,1.125 -0.5,0.5 -0.875,1.0461 -1.125,1.6402 -0.242,0.5937 -0.36,1.2348 -0.36,1.9219 0,0.707 0.118,1.359 0.36,1.9531 0.25,0.5937 0.625,1.141 1.125,1.641 0.488,0.5 1.035,0.875 1.641,1.125 0.601,0.25 1.25,0.375 1.937,0.375 z m -0.187,-2.8281 -0.844,0 0,-1.891 0.844,0 c 0.5,0 0.847,0.0672 1.046,0.2031 0.196,0.1449 0.297,0.391 0.297,0.7348 0,0.3429 -0.101,0.5863 -0.297,0.7339 -0.199,0.1454 -0.546,0.2192 -1.046,0.2192 z m 0.046,0.7031 c 0.801,0 1.399,-0.1371 1.797,-0.4062 0.395,-0.2739 0.594,-0.684 0.594,-1.2348 0,-0.3981 -0.121,-0.7262 -0.359,-0.984 -0.243,-0.25 -0.578,-0.4141 -1.016,-0.4851 0.113,-0.0418 0.242,-0.152 0.391,-0.3282 0.156,-0.1789 0.336,-0.4328 0.547,-0.7648 l 0.937,-1.516 -1.172,0 -0.875,1.4218 c -0.273,0.4372 -0.492,0.7114 -0.656,0.8282 -0.168,0.125 -0.375,0.1879 -0.625,0.1879 l -0.453,0 0,-2.4379 -1.047,0 0,5.7191 1.937,0 z" /></g></g></svg>