<?xml version="1.0" encoding="utf-8"?>
<!-- Generator: Adobe Illustrator 26.0.0, SVG Export Plug-In . SVG Version: 6.00 Build 0)  -->
<svg version="1.1" id="Layer_1" xmlns="http://www.w3.org/2000/svg" xmlns:xlink="http://www.w3.org/1999/xlink" x="0px" y="0px"
	 viewBox="0 0 909 450" enable-background="new 0 0 909 450" xml:space="preserve">
<g>
	<g>
		<polygon fill="#F43745" points="391.689,189.646 478.133,138.881 396.171,199.174 861,208.896 409.59,217.074 474.888,255.943 
			392.843,219.096 421.492,275.785 378.118,218.807 337.326,279.746 361.662,220.828 305.071,250.387 346.071,220.828 
			36.711,215.063 363.106,201.483 264.698,104.186 372.633,195.999 308.535,28.318 381.34,186.182 425.293,53.777 		"/>
	</g>
	<g>
		<path fill="#003D62" d="M133.324,265.879c6.611,0,12.085,0.553,16.43,1.65c4.342,1.105,7.777,2.918,10.306,5.445
			c2.526,2.531,4.308,5.833,5.346,9.914c1.038,4.089,1.556,9.047,1.556,14.879v18.469c0,4.151-0.908,7.034-2.722,8.651
			c-1.816,1.626-4.601,2.435-8.361,2.435H57.686v4.663c0,6.094,1.459,10.501,4.376,13.224c2.916,2.723,8.584,4.082,17.014,4.082
			h81.08c2.333,0,3.501,1.166,3.501,3.499v16.336c0,2.33-1.168,3.5-3.501,3.5H76.353c-8.817,0-16.173-0.713-22.069-2.138
			c-5.901-1.425-10.631-3.726-14.194-6.908c-3.566-3.168-6.124-7.253-7.68-12.247c-1.556-4.989-2.332-10.984-2.332-17.986V305.35
			c0-7.002,0.776-12.997,2.332-17.986c1.556-4.989,4.115-9.07,7.68-12.252c3.564-3.171,8.294-5.51,14.194-6.996
			c5.896-1.489,13.252-2.237,22.069-2.237H133.324z M57.686,310.016h78.748c2.204,0,3.307-1.102,3.307-3.307v-8.166
			c0-4.015-0.846-6.871-2.529-8.553c-1.687-1.684-4.797-2.531-9.334-2.531H79.076c-8.43,0-14.098,1.329-17.014,3.986
			c-2.917,2.659-4.376,7.098-4.376,13.32V310.016z"/>
		<path fill="#003D62" d="M293.15,265.879c8.684,0,16.008,0.747,21.972,2.237c5.961,1.487,10.725,3.825,14.292,6.996
			c3.564,3.182,6.124,7.263,7.68,12.252c1.556,4.989,2.332,10.984,2.332,17.986v27.996c0,7.002-0.775,12.997-2.332,17.986
			c-1.556,4.994-4.117,9.079-7.68,12.247c-3.566,3.182-8.33,5.483-14.292,6.908c-5.964,1.426-13.287,2.138-21.972,2.138h-72.916
			v38.692c0,2.846-1.427,4.276-4.276,4.276h-19.056c-2.984,0-4.473-1.431-4.473-4.276V305.35c0-7.002,0.779-12.997,2.335-17.986
			c1.554-4.989,4.113-9.07,7.68-12.252c3.564-3.171,8.294-5.51,14.194-6.996c5.896-1.489,13.252-2.237,22.069-2.237H293.15z
			 M220.234,349.291h70.193c4.279,0,7.777-0.32,10.5-0.969c2.723-0.646,4.892-1.815,6.514-3.502c1.62-1.684,2.751-3.889,3.404-6.609
			c0.645-2.723,0.972-6.158,0.972-10.309v-17.305c0-4.015-0.327-7.416-0.972-10.202c-0.653-2.789-1.785-4.989-3.404-6.612
			c-1.622-1.623-3.791-2.787-6.514-3.502c-2.723-0.707-6.221-1.07-10.5-1.07h-48.999c-4.15,0-7.583,0.363-10.304,1.07
			c-2.722,0.715-4.894,1.879-6.514,3.502c-1.622,1.623-2.756,3.823-3.404,6.612c-0.65,2.787-0.973,6.188-0.973,10.202V349.291z"/>
		<path fill="#003D62" d="M391.145,265.879c2.849,0,4.276,1.492,4.276,4.469v97.998c0,2.856-1.428,4.282-4.276,4.282h-19.056
			c-2.853,0-4.277-1.426-4.277-4.282v-97.998c0-2.976,1.424-4.469,4.277-4.469H391.145z"/>
		<path fill="#003D62" d="M525.499,265.879c2.334,0,3.502,1.167,3.502,3.5v16.331c0,2.336-1.168,3.499-3.502,3.499h-51.722
			c-4.149,0-7.582,0.363-10.302,1.07c-2.724,0.715-4.894,1.879-6.513,3.502c-1.624,1.623-2.757,3.823-3.402,6.612
			c-0.65,2.787-0.974,6.188-0.974,10.202v57.749c0,2.856-1.426,4.282-4.276,4.282h-19.056c-2.984,0-4.473-1.426-4.473-4.282V305.35
			c0-7.002,0.778-12.997,2.335-17.986c1.554-4.989,4.114-9.07,7.678-12.252c3.564-3.171,8.296-5.51,14.196-6.996
			c5.898-1.489,13.251-2.237,22.07-2.237H525.499z"/>
		<path fill="#003D62" d="M636.134,265.879c8.685,0,16.009,0.747,21.973,2.237c5.961,1.487,10.726,3.825,14.292,6.996
			c3.565,3.182,6.122,7.263,7.678,12.252c1.556,4.989,2.333,10.984,2.333,17.986v51.722c0,3.107-0.226,5.67-0.677,7.677
			c-0.456,2.013-1.237,3.596-2.337,4.765c-1.101,1.169-2.557,1.975-4.372,2.432c-1.817,0.454-4.15,0.681-7,0.681h-92.552
			c-5.706,0-10.471-0.55-14.292-1.655c-3.825-1.1-6.902-2.752-9.233-4.957c-2.337-2.202-3.989-5.053-4.96-8.555
			c-0.973-3.499-1.46-7.645-1.46-12.444v-9.335c0-4.015,0.487-7.61,1.46-10.792c0.97-3.171,2.623-5.859,4.96-8.064
			c2.332-2.208,5.408-3.857,9.233-4.96c3.821-1.1,8.586-1.655,14.292-1.655h79.136v-3.695c0-3.107-0.324-5.763-0.97-7.971
			c-0.654-2.202-1.75-3.985-3.306-5.347c-1.556-1.361-3.695-2.362-6.42-3.014c-2.721-0.649-6.221-0.974-10.497-0.974h-81.275
			c-2.336,0-3.5-1.164-3.5-3.499v-16.331c0-2.333,1.164-3.5,3.5-3.5H636.134z M648.968,351.234c2.07,0,3.533-0.483,4.377-1.457
			c0.838-0.969,1.263-2.688,1.263-5.152v-17.111h-71.164c-4.02,0-6.84,0.811-8.459,2.432c-1.624,1.626-2.432,3.985-2.432,7.098
			v4.082c0,3.499,0.807,6.062,2.432,7.682c1.619,1.62,4.439,2.426,8.459,2.426H648.968z"/>
		<path fill="#003D62" d="M843.989,265.879c1.424,0,2.362,0.486,2.819,1.455c0.455,0.977,0.356,2.111-0.29,3.406l-74.665,131.634
			c-2.593,4.538-6.256,7.875-10.984,10.015c-4.737,2.138-11.314,3.206-19.736,3.206h-13.611c-2.333,0-3.501-1.166-3.501-3.499
			v-15.944c0-2.33,1.168-3.5,3.501-3.5h11.472c4.922,0,8.23-1.495,9.915-4.471l10.497-18.472c-3.238-0.259-5.733-1.038-7.484-2.333
			c-1.75-1.295-3.401-3.307-4.957-6.027l-52.498-90.609c-0.654-1.295-0.747-2.429-0.294-3.406c0.451-0.969,1.391-1.455,2.82-1.455
			h22.364c2.2,0,3.756,0.905,4.663,2.723l43.164,74.857c1.037,1.818,1.85,3.016,2.43,3.598c0.583,0.582,1.328,0.876,2.238,0.876
			l45.694-79.331c0.902-1.818,2.458-2.723,4.666-2.723H843.989z"/>
	</g>
</g>
</svg>
