<?xml version="1.0" standalone="no"?>
<!DOCTYPE svg PUBLIC "-//W3C//DTD SVG 1.1//EN" "http://www.w3.org/Graphics/SVG/1.1/DTD/svg11.dtd" >
<svg xmlns="http://www.w3.org/2000/svg" xmlns:xlink="http://www.w3.org/1999/xlink" version="1.1">
<metadata>
Created by FontForge 20170731 at Tue May 24 15:05:34 2022
 By Aleksey,,,
Copyright (c) 2016 by Alex I. Kuznetsov.

This font is free software. You are allowed to distribute and/or modify it under the terms of either (or both) of the following two licenses (your choice):

1) GNU General Public License version 2 (https://gnu.org/licenses/old-licenses/gpl-2.0.txt)
2) The LaTeX Project Public License version 1.3c or (at your option) any later version (http://www.latex-project.org/lppl.txt)

Contains work kindly released to the open source community by URW++ Design and Development GmbH as "URW Gothic L" (version 001.005) with the following copyright notice: Copyright URW Software, Copyright 1996 by URW.

Original URW fonts can be obtained at the Evolventa website (https://evolventa.github.io).

</metadata>
<defs>
<font id="Evolventa-Bold" horiz-adv-x="1146" >
  <font-face
    font-family="Evolventa"
    font-weight="700"
    font-stretch="normal"
    units-per-em="2048"
    panose-1="2 11 7 2 2 2 2 2 2 4"
    ascent="1638"
    descent="-410"
    x-height="1135"
    cap-height="1513"
    bbox="-1194 -514 2560 2048"
    underline-thickness="184"
    underline-position="-374"
    unicode-range="U+0020-FB04"
  />
<missing-glyph horiz-adv-x="1558"
d="M1403 0h-1247v1513h1247v-1513zM451 129l327 487l330 -487h143v107l-368 522l368 520v106h-143l-330 -485l-327 485h-144v-106l371 -520l-371 -522v-107h144z" />
    <glyph glyph-name="f_f" unicode="ff" horiz-adv-x="1159"
d="M139 0v887h-98v227h98q10 109 31 169t66 110q105 120 278 120q35 0 68 -4v-258h-29q-78 0 -108.5 -30t-32.5 -107h284q10 109 31 169t66 110q105 120 278 120q35 0 68 -4v-258h-29q-78 0 -108.5 -30t-32.5 -107h153v-227h-153v-887h-273v887h-284v-887h-273z" />
    <glyph glyph-name="f_i" unicode="fi" horiz-adv-x="1079"
d="M139 0v887h-98v227h98q10 109 31 169t66 110q105 120 278 120q35 0 68 -4v-258h-29q-78 0 -108.5 -30t-32.5 -107h153v-227h-153v-887h-273zM696 0v1135h273v-1135h-273zM696 1257v256h273v-256h-273z" />
    <glyph glyph-name="f_l" unicode="fl" horiz-adv-x="1079"
d="M696 0v1513h273v-1513h-273zM139 0v887h-98v227h98q10 109 31 169t66 110q105 120 278 120q35 0 68 -4v-258h-29q-78 0 -108.5 -30t-32.5 -107h153v-227h-153v-887h-273z" />
    <glyph glyph-name="f_f_i" unicode="ffi" horiz-adv-x="1636"
d="M1253 0v1135h273v-1135h-273zM1253 1257v256h273v-256h-273zM139 0v887h-98v227h98q10 109 31 169t66 110q105 120 278 120q35 0 68 -4v-258h-29q-78 0 -108.5 -30t-32.5 -107h284q10 109 31 169t66 110q105 120 278 120q35 0 68 -4v-258h-29q-78 0 -108.5 -30
t-32.5 -107h153v-227h-153v-887h-273v887h-284v-887h-273z" />
    <glyph glyph-name="f_f_l" unicode="ffl" horiz-adv-x="1636"
d="M1253 0v1513h273v-1513h-273zM139 0v887h-98v227h98q10 109 31 169t66 110q105 120 278 120q35 0 68 -4v-258h-29q-78 0 -108.5 -30t-32.5 -107h284q10 109 31 169t66 110q105 120 278 120q35 0 68 -4v-258h-29q-78 0 -108.5 -30t-32.5 -107h153v-227h-153v-887h-273v887
h-284v-887h-273z" />
    <glyph glyph-name=".notdef" horiz-adv-x="1558"
d="M1403 0h-1247v1513h1247v-1513zM451 129l327 487l330 -487h143v107l-368 522l368 520v106h-143l-330 -485l-327 485h-144v-106l371 -520l-371 -522v-107h144z" />
    <glyph glyph-name=".null" horiz-adv-x="0"
 />
    <glyph glyph-name="nonmarkingreturn" horiz-adv-x="682"
 />
    <glyph glyph-name="space" unicode=" " horiz-adv-x="573"
 />
    <glyph glyph-name="exclam" unicode="!" horiz-adv-x="657"
d="M193 385v1128h272v-1128h-272zM193 0v262h272v-262h-272z" />
    <glyph glyph-name="quotedbl" unicode="&#x22;" horiz-adv-x="690"
d="M559 1051h-156v462h156v-462zM287 1051h-156v462h156v-462z" />
    <glyph glyph-name="numbersign" unicode="#"
d="M408 1513h184l-60 -446h179l59 446h184l-59 -446h182v-203h-211l-24 -182h182v-205h-209l-65 -477h-185l66 477h-178l-64 -477h-186l65 477h-198v205h225l24 182h-196v203h225zM506 864l-27 -182h178l25 182h-176z" />
    <glyph glyph-name="dollar" unicode="$"
d="M127 510h274q4 -81 51 -128.5t121 -47.5t123 48.5t49 121.5q0 50 -18 82.5t-61 60.5q-27 18 -51 28.5t-164 63.5q-265 101 -265 369q0 146 72.5 245.5t198.5 127.5v272h260v-272q104 -20 176.5 -121t77.5 -232h-258q-12 62 -46.5 94.5t-86.5 32.5q-54 0 -87.5 -36.5
t-33.5 -94.5q0 -82 59 -123q24 -20 58 -35.5t116 -45.5q90 -31 136 -55t81 -56q109 -98 109 -295q0 -158 -79.5 -269t-221.5 -151v-270h-260v270q-152 43 -241 147.5t-89 241.5v27z" />
    <glyph glyph-name="percent" unicode="%" horiz-adv-x="1761"
d="M1085 1513h211l-626 -1513h-209zM1346 713q151 0 259.5 -109t108.5 -260q0 -154 -108.5 -262.5t-262.5 -108.5q-153 0 -261.5 108.5t-108.5 260.5q0 157 108 264t265 107zM1341 496q-61 0 -104 -44.5t-43 -107.5t43.5 -107t105.5 -44q63 0 107.5 44t44.5 107t-45 107.5
t-109 44.5zM420 1540q151 0 259.5 -109t108.5 -260q0 -154 -108 -262t-262 -108t-262.5 108t-108.5 260q0 157 108 264t265 107zM416 1323q-61 0 -104.5 -44.5t-43.5 -107.5t44 -107t106 -44q63 0 107 44t44 107t-44.5 107.5t-108.5 44.5z" />
    <glyph glyph-name="ampersand" unicode="&#x26;" horiz-adv-x="1392"
d="M1044 887h306l-263 -449l271 -288l-195 -177l-215 228q-97 -129 -180.5 -178.5t-204.5 -49.5q-209 0 -351 140t-142 344q0 138 66.5 240.5t215.5 189.5q-74 82 -100.5 139.5t-26.5 138.5q0 158 110 266.5t271 108.5q168 0 279.5 -106.5t111.5 -266.5q0 -155 -96 -262
q-39 -44 -141 -108l137 -154zM590 985q84 42 115.5 80t31.5 94q0 55 -34.5 90t-90.5 35q-55 0 -91 -35.5t-36 -89.5q0 -40 22.5 -78t82.5 -96zM760 406l-236 253q-97 -44 -139.5 -95.5t-42.5 -123.5q0 -86 58 -141t147 -55q69 0 114 34.5t99 127.5z" />
    <glyph glyph-name="quotesingle" unicode="'" horiz-adv-x="417"
d="M287 1051h-156v462h156v-462z" />
    <glyph glyph-name="parenleft" unicode="(" horiz-adv-x="731"
d="M637 16v-297q-96 32 -166 80.5t-145 134.5q-121 138 -186.5 315t-65.5 365q0 221 86.5 421.5t238.5 334.5q55 48 105.5 78t132.5 65v-294q-139 -107 -213 -263t-74 -342q0 -180 80.5 -348t206.5 -250z" />
    <glyph glyph-name="parenright" unicode=")" horiz-adv-x="731"
d="M94 1217v296q96 -33 167 -81.5t145 -133.5q121 -137 186 -314.5t65 -365.5q0 -221 -86.5 -421t-238.5 -334q-55 -48 -106 -78.5t-132 -65.5v295q139 107 213 262.5t74 341.5q0 180 -80.5 348.5t-206.5 250.5z" />
    <glyph glyph-name="asterisk" unicode="*" horiz-adv-x="837"
d="M205 1446l129 65l90 -176l94 178l121 -73l-111 -170l199 12v-147l-199 10l109 -164l-117 -78l-96 180l-88 -180l-131 64l106 182l-200 -14v145l202 -10z" />
    <glyph glyph-name="plus" unicode="+" horiz-adv-x="1228"
d="M492 881v399h245v-399h393v-242h-393v-399h-245v399h-394v242h394z" />
    <glyph glyph-name="comma" unicode="," horiz-adv-x="575"
d="M152 0v262h272v-276q0 -172 -135 -244q-57 -29 -137 -29v137q64 12 92 38.5t28 74.5q0 23 -2 37h-118z" />
    <glyph glyph-name="hyphen" unicode="-" horiz-adv-x="690"
d="M61 469v242h568v-242h-568z" />
    <glyph glyph-name="period" unicode="." horiz-adv-x="575"
d="M152 0v262h272v-262h-272z" />
    <glyph glyph-name="slash" unicode="/" horiz-adv-x="942"
d="M25 -262l661 1775h193l-662 -1775h-192z" />
    <glyph glyph-name="zero" unicode="0"
d="M1079 1034v-528q0 -252 -130 -392.5t-363 -140.5q-279 0 -424 193q-96 130 -96 340v514q0 239 137 379.5t370 140.5q230 0 368 -138t138 -368zM338 1020v-506q0 -141 61.5 -216t178.5 -75q229 0 229 285v512q0 130 -60.5 200t-171.5 70q-110 0 -173.5 -72t-63.5 -198z
" />
    <glyph glyph-name="one" unicode="1"
d="M487 0v1257h-190v256h463v-1513h-273z" />
    <glyph glyph-name="two" unicode="2"
d="M84 0v240l539 510q93 87 133.5 158t40.5 145q0 101 -62.5 169t-156.5 68q-106 0 -171 -82t-65 -217h-268q0 113 20 190.5t66 147.5q66 99 176 155t239 56q212 0 353 -140t141 -351q0 -139 -63.5 -250t-229.5 -262l-309 -281h596v-256h-979z" />
    <glyph glyph-name="three" unicode="3"
d="M461 729v262q98 3 149 23q84 38 84 133q0 63 -37 103t-96 40q-57 0 -87.5 -33t-39.5 -104h-276q8 96 30.5 154t73.5 110q117 123 297 123q175 0 291.5 -116t116.5 -291q0 -88 -30.5 -151t-96.5 -110q235 -107 235 -391q0 -220 -144 -364t-364 -144q-218 0 -364 136
t-158 350h274q14 -108 80.5 -172t165.5 -64q103 0 170.5 71.5t67.5 180.5q0 116 -80.5 185t-216.5 69h-45z" />
    <glyph glyph-name="four" unicode="4"
d="M20 449l697 1064h229v-1042h160v-244h-160v-227h-272v227h-654v222zM674 471v584l-377 -584h377z" />
    <glyph glyph-name="five" unicode="5"
d="M113 723l141 790h684v-256h-479l-49 -278q58 25 99.5 34t94.5 9q207 0 343 -146.5t136 -369.5q0 -229 -146.5 -381t-367.5 -152q-140 0 -258 63t-189.5 173t-78.5 244h272q22 -111 85 -170.5t161 -59.5q110 0 180 78t70 201q0 116 -70 193t-176 77q-65 0 -112.5 -26
t-98.5 -89z" />
    <glyph glyph-name="six" unicode="6"
d="M594 1513h326l-363 -538q59 20 123 20q182 0 300 -135t118 -344q0 -238 -145.5 -390.5t-372.5 -152.5q-150 0 -272 67.5t-190.5 187.5t-68.5 268q0 111 33.5 206.5t116.5 217.5zM567 758q-107 0 -176 -76t-69 -193t72.5 -191.5t187.5 -74.5q107 0 175 74t68 192
q0 119 -71.5 194t-186.5 75z" />
    <glyph glyph-name="seven" unicode="7"
d="M164 0l573 1257h-604v256h891v-256l-553 -1257h-307z" />
    <glyph glyph-name="eight" unicode="8"
d="M287 842q-71 75 -98 136t-27 146q0 173 121.5 294.5t294.5 121.5q178 0 295.5 -117.5t117.5 -294.5q0 -185 -127 -286q49 -30 74 -48.5t47 -43.5q92 -106 92 -275q0 -215 -143.5 -358.5t-358.5 -143.5t-360 144t-145 356q0 158 86 264q24 31 51.5 53.5t79.5 51.5z
M575 1290q-64 0 -108.5 -48.5t-44.5 -117.5t45.5 -116t110.5 -47t109 48.5t44 118.5q0 69 -45 115.5t-111 46.5zM571 698q-95 0 -162 -69.5t-67 -167.5q0 -100 68 -169t168 -69q97 0 162 68.5t65 171.5q0 99 -67.5 167t-166.5 68z" />
    <glyph glyph-name="nine" unicode="9"
d="M551 0h-326l365 539q-68 -25 -123 -25q-178 0 -297 138.5t-119 344.5q0 238 144 390.5t370 152.5q229 0 380 -149t151 -375q0 -108 -34 -203t-116 -219zM561 1290q-104 0 -170.5 -74.5t-66.5 -191.5q0 -118 70.5 -193t180.5 -75q108 0 178 75t70 193q0 119 -72.5 192.5
t-189.5 73.5z" />
    <glyph glyph-name="colon" unicode=":" horiz-adv-x="575"
d="M152 0v262h272v-262h-272zM152 756v272h272v-272h-272z" />
    <glyph glyph-name="semicolon" unicode=";" horiz-adv-x="575"
d="M152 0v262h272v-276q0 -75 -20.5 -123t-67.5 -88q-71 -62 -184 -62v137q66 12 93 39t27 80v31h-120zM152 756v272h272v-272h-272z" />
    <glyph glyph-name="less" unicode="&#x3c;" horiz-adv-x="1228"
d="M1133 1192v-240l-699 -321l699 -326v-237l-1043 460v201z" />
    <glyph glyph-name="equal" unicode="=" horiz-adv-x="1228"
d="M1130 1071v-242h-1032v242h1032zM1130 672v-242h-1032v242h1032z" />
    <glyph glyph-name="greater" unicode="&#x3e;" horiz-adv-x="1228"
d="M96 68v237l701 322l-701 325v240l1043 -463v-201z" />
    <glyph glyph-name="question" unicode="?" horiz-adv-x="1062"
d="M649 383h-272q0 192 48.5 294.5t201.5 227.5q92 76 92 174q0 83 -55 137t-140 54q-83 0 -128.5 -50t-59.5 -155h-273q7 103 32 174.5t73 130.5q66 82 160.5 126t201.5 44q198 0 329.5 -134t131.5 -335q0 -103 -45 -182t-164 -184q-85 -72 -109 -130.5t-24 -191.5zM377 0
v262h272v-262h-272z" />
    <glyph glyph-name="at" unicode="@" horiz-adv-x="1667"
d="M1255 1174l-67 -605q-2 -8 -2 -26q0 -31 13 -44.5t42 -13.5q82 0 142.5 107.5t60.5 253.5q0 257 -160 416t-418 159q-184 0 -332 -84.5t-231.5 -234t-83.5 -334.5q0 -144 58 -274t161 -220q83 -72 202 -111.5t249 -39.5q175 0 305 96l94 -123q-85 -66 -178.5 -94.5
t-224.5 -28.5q-403 0 -633 285q-86 106 -132 238.5t-46 275.5q0 223 103 406t283 287t400 104q219 0 395 -102t263 -277q75 -153 75 -377q0 -222 -119.5 -360t-312.5 -138q-162 0 -203 111q-39 -58 -93.5 -84.5t-137.5 -26.5q-155 0 -246.5 105.5t-91.5 284.5
q0 204 118 340.5t296 136.5q83 0 136.5 -26.5t104.5 -92.5l15 111h196zM842 952q-85 0 -146 -66.5t-61 -158.5q0 -91 43.5 -143t118.5 -52q89 0 145.5 65.5t56.5 168.5q0 89 -41 137.5t-116 48.5z" />
    <glyph glyph-name="A" unicode="A" horiz-adv-x="1515"
d="M14 0l631 1513h221l635 -1513h-309l-162 391h-538l-168 -391h-310zM594 659h324l-162 459z" />
    <glyph glyph-name="B" unicode="B" horiz-adv-x="1202"
d="M145 0v1513h312q173 0 260.5 -16.5t156.5 -62.5q78 -53 121 -137.5t43 -186.5q0 -107 -38.5 -172.5t-129.5 -112.5q76 -31 116.5 -59t72.5 -72q69 -94 69 -243q0 -120 -54 -218t-152 -155q-135 -78 -373 -78h-404zM426 268h139q147 0 214 45.5t67 145.5t-70.5 148
t-216.5 48h-133v-387zM426 930h90q128 0 185 36.5t57 118.5q0 154 -217 154h-115v-309z" />
    <glyph glyph-name="C" unicode="C" horiz-adv-x="1642"
d="M1239 422h330q-89 -207 -277.5 -328t-421.5 -121q-109 0 -212.5 28t-190.5 79t-160.5 123.5t-124.5 159t-79.5 189t-28.5 210.5q0 158 62 302t166 248t248 166t302 62q143 0 275.5 -47.5t238.5 -136.5q72 -62 116 -122t87 -155h-314q-77 100 -171 145.5t-226 45.5
q-237 0 -377 -166q-58 -67 -91.5 -159t-33.5 -185q0 -139 68 -258t185 -188.5t255 -69.5q109 0 195.5 41t179.5 137z" />
    <glyph glyph-name="D" unicode="D" horiz-adv-x="1431"
d="M145 0v1513h347q371 0 552 -118q151 -97 232.5 -263.5t81.5 -377.5q0 -234 -101.5 -412.5t-281.5 -263.5q-92 -42 -201.5 -60t-275.5 -18h-353zM426 268h61q242 0 369 68q101 55 160 168t59 250q0 149 -64 264.5t-177 171.5q-64 31 -143 43t-210 12h-55v-977z" />
    <glyph glyph-name="E" unicode="E" horiz-adv-x="1073"
d="M145 0v1513h813v-268h-532v-356h510v-268h-510v-353h532v-268h-813z" />
    <glyph glyph-name="F" unicode="F" horiz-adv-x="1013"
d="M145 0v1513h770v-268h-489v-356h467v-268h-467v-621h-281z" />
    <glyph glyph-name="G" unicode="G" horiz-adv-x="1755"
d="M698 510v262h990v-37q0 -146 -56.5 -282.5t-161.5 -245.5q-228 -234 -573 -234q-172 0 -324.5 61t-262 165.5t-173 250.5t-63.5 310q0 161 62.5 305.5t168.5 248.5t253.5 165t311.5 61q163 0 315 -60t264.5 -168t160.5 -243h-330q-70 98 -177 149.5t-239 51.5
q-109 0 -204.5 -38.5t-161.5 -109.5q-65 -69 -103.5 -168.5t-38.5 -197.5q0 -218 151 -365t374 -147q150 0 266 70t178 196h-627z" />
    <glyph glyph-name="H" unicode="H" horiz-adv-x="1392"
d="M145 0v1513h281v-610h541v610h280v-1513h-280v635h-541v-635h-281z" />
    <glyph glyph-name="I" unicode="I" horiz-adv-x="571"
d="M145 0v1513h281v-1513h-281z" />
    <glyph glyph-name="J" unicode="J" horiz-adv-x="1011"
d="M586 1513h280v-1079q0 -214 -109.5 -337.5t-299.5 -123.5q-98 0 -184.5 38t-145.5 106q-43 50 -63 102t-27 139h280q27 -114 134 -114q135 0 135 198v1071z" />
    <glyph glyph-name="K" unicode="K" horiz-adv-x="1257"
d="M145 0v1513h281v-653l469 653h338l-569 -743l569 -770h-338l-469 666v-666h-281z" />
    <glyph glyph-name="L" unicode="L" horiz-adv-x="929"
d="M145 0v1513h281v-1245h463v-268h-744z" />
    <glyph glyph-name="M" unicode="M" horiz-adv-x="1871"
d="M145 0v1513h385l408 -1146l403 1146h385v-1513h-280v1135l-395 -1135h-230l-395 1135v-1135h-281z" />
    <glyph glyph-name="N" unicode="N" horiz-adv-x="1517"
d="M145 0v1513h320l627 -1101v1101h280v-1513h-313l-633 1100v-1100h-281z" />
    <glyph glyph-name="O" unicode="O" horiz-adv-x="1724"
d="M874 1540q158 0 302 -62t248 -166.5t165.5 -249.5t61.5 -304q0 -218 -103 -398t-282 -283.5t-396 -103.5q-164 0 -311.5 61t-253.5 165.5t-168.5 250t-62.5 306.5q0 163 62 308.5t168 249.5t254.5 165t315.5 61zM856 1270q-207 0 -353.5 -149.5t-146.5 -362.5
q0 -107 40 -202t108 -163.5t163 -108.5t201 -40q215 0 357.5 145t142.5 365q0 223 -145.5 369.5t-366.5 146.5z" />
    <glyph glyph-name="P" unicode="P" horiz-adv-x="1173"
d="M145 0v1513h375q155 0 243.5 -17t156.5 -60q92 -60 142 -161t50 -228q0 -135 -56.5 -245t-154.5 -165q-62 -34 -147 -48t-238 -14h-90v-575h-281zM426 844h82q128 0 192 20q60 17 94.5 64t34.5 112q0 72 -35 123t-96 68q-60 14 -178 14h-94v-401z" />
    <glyph glyph-name="Q" unicode="Q" horiz-adv-x="1769"
d="M1708 225v-254q-16 -2 -39 -2q-96 0 -177.5 28.5t-178.5 94.5q-82 -56 -193 -87.5t-225 -31.5q-169 0 -321.5 61.5t-262 166.5t-173.5 250t-64 307t62.5 307t169.5 249t256.5 165t316.5 61q170 0 319 -60t255 -164.5t167 -251.5t61 -314q0 -295 -182 -486q86 -45 152 -45
q17 0 57 6zM1075 283q-131 105 -245.5 151.5t-239.5 46.5q-62 0 -146 -16q88 -114 197 -167.5t252 -53.5q59 0 97 8t85 31zM1276 418q123 126 123 327q0 226 -149 375.5t-373 149.5t-373.5 -147.5t-149.5 -368.5q0 -35 4 -70q108 27 234 27q181 0 363.5 -78t320.5 -215z" />
    <glyph glyph-name="R" unicode="R" horiz-adv-x="1236"
d="M145 0v1513h437q161 0 255 -26.5t169 -93.5q149 -134 149 -365q0 -232 -164 -364q-47 -38 -96.5 -60.5t-134.5 -44.5l409 -559h-346l-397 580v-580h-281zM426 791h137q163 0 236 54.5t73 174.5q0 117 -77 176q-63 49 -244 49h-125v-454z" />
    <glyph glyph-name="S" unicode="S" horiz-adv-x="1073"
d="M39 432h293q18 -188 205 -188q91 0 147.5 51t56.5 133q0 101 -75 158q-34 25 -70.5 41t-185.5 71q-153 57 -234.5 163t-81.5 249q0 180 128 305t313 125q109 0 205 -45.5t157 -126.5q41 -56 61.5 -115.5t24.5 -142.5h-291q-6 76 -48 118t-112 42q-69 0 -112 -43t-43 -111
q0 -85 88 -139q19 -13 164 -66q113 -43 162.5 -69.5t93.5 -67.5q135 -123 135 -315q0 -205 -139.5 -345.5t-343.5 -140.5q-125 0 -232.5 51t-173.5 142q-44 60 -65 120t-27 146z" />
    <glyph glyph-name="T" unicode="T" horiz-adv-x="870"
d="M295 0v1245h-281v268h842v-268h-281v-1245h-280z" />
    <glyph glyph-name="U" unicode="U" horiz-adv-x="1312"
d="M145 1513h281v-958q0 -85 7.5 -128.5t29.5 -80.5q29 -48 80 -75t112 -27q63 0 114.5 27t80.5 75q22 37 29.5 80.5t7.5 128.5v958h280v-958q0 -136 -25.5 -228.5t-82.5 -166.5q-69 -88 -176.5 -137.5t-227.5 -49.5q-136 0 -252.5 63.5t-181.5 172.5q-76 129 -76 346v958z
" />
    <glyph glyph-name="V" unicode="V" horiz-adv-x="1421"
d="M598 0l-590 1513h295l408 -1151l407 1151h295l-586 -1513h-229z" />
    <glyph glyph-name="W" unicode="W" horiz-adv-x="1873"
d="M469 0l-444 1513h286l267 -1056l258 1056h204l254 -1056l269 1056h286l-442 -1513h-223l-244 1001l-250 -1001h-221z" />
    <glyph glyph-name="X" unicode="X" horiz-adv-x="1402"
d="M14 0l521 754l-521 759h334l352 -528l363 528h326l-525 -759l525 -754h-326l-363 522l-352 -522h-334z" />
    <glyph glyph-name="Y" unicode="Y" horiz-adv-x="1304"
d="M512 0v559l-498 954h303l336 -696l334 696h303l-497 -954v-559h-281z" />
    <glyph glyph-name="Z" unicode="Z" horiz-adv-x="1069"
d="M61 238l574 1007h-543v268h877v-251l-570 -994h609v-268h-947v238z" />
    <glyph glyph-name="bracketleft" unicode="[" horiz-adv-x="641"
d="M565 1513v-301q-55 -23 -83.5 -47t-45.5 -61q-41 -90 -41 -246v-522q0 -125 41 -209q19 -38 47 -61.5t82 -45.5v-301q-124 28 -208 86.5t-146 159.5q-92 157 -92 418v530q0 288 166 451q54 55 113 86.5t167 62.5z" />
    <glyph glyph-name="backslash" unicode="\" horiz-adv-x="985"
d="M922 0h-193l-666 1513h193z" />
    <glyph glyph-name="bracketright" unicode="]" horiz-adv-x="641"
d="M76 -281v301q55 23 83 47.5t46 61.5q41 90 41 246v522q0 125 -41 209q-19 38 -47 61t-82 45v301q125 -28 209 -86t145 -159q92 -157 92 -418v-531q0 -286 -164 -450q-55 -55 -115.5 -87.5t-166.5 -62.5z" />
    <glyph glyph-name="asciicircum" unicode="^" horiz-adv-x="1228"
d="M336 641l-213 102l366 770h250l367 -770l-213 -102l-279 565z" />
    <glyph glyph-name="underscore" unicode="_" horiz-adv-x="1024"
d="M0 -98h1024v-185h-1024v185z" />
    <glyph glyph-name="grave" unicode="`" horiz-adv-x="833"
d="M131 1509l117 181l454 -273l-108 -162z" />
    <glyph glyph-name="a" unicode="a" horiz-adv-x="1366"
d="M1255 1135v-1135h-249v147q-82 -93 -169.5 -133.5t-207.5 -40.5q-164 0 -294.5 75.5t-204 210.5t-73.5 304q0 171 74 307.5t206 213.5t298 77q123 0 212 -42.5t159 -135.5v152h249zM659 911q-142 0 -234.5 -100t-92.5 -254q0 -149 93.5 -241.5t242.5 -92.5
q148 0 238.5 94t90.5 246q0 154 -94.5 251t-243.5 97z" />
    <glyph glyph-name="b" unicode="b" horiz-adv-x="1363"
d="M111 0v1513h272v-483q80 79 160.5 112.5t191.5 33.5q162 0 293 -78t205 -215.5t74 -307.5q0 -231 -133 -403q-156 -199 -420 -199q-126 0 -216 39t-178 133v-145h-249zM692 926q-142 0 -233.5 -100t-91.5 -255q0 -153 94 -250.5t241 -97.5q146 0 238 96.5t92 251.5
q0 157 -94.5 256t-245.5 99z" />
    <glyph glyph-name="c" unicode="c" horiz-adv-x="1280"
d="M920 373h307q-71 -191 -217.5 -295.5t-345.5 -104.5q-124 0 -236.5 47t-193.5 126t-129 189t-48 232q0 164 79 300.5t216.5 215t302.5 78.5q122 0 232.5 -43.5t193.5 -124.5q54 -53 85.5 -103.5t60.5 -133.5h-307q-80 155 -265 155q-142 0 -232.5 -95.5t-90.5 -246.5
q0 -149 94.5 -247.5t235.5 -98.5q84 0 145.5 36t112.5 114z" />
    <glyph glyph-name="d" unicode="d" horiz-adv-x="1361"
d="M1251 1513v-1513h-250v147q-83 -92 -171 -133t-203 -41q-159 0 -289.5 78t-205.5 215t-75 303q0 167 75.5 307t206 220t286.5 80q107 0 200.5 -38t153.5 -104v479h272zM659 926q-138 0 -232.5 -100t-94.5 -248q0 -149 98.5 -252t239.5 -103q138 0 233.5 101t95.5 247
q0 154 -96 254.5t-244 100.5z" />
    <glyph glyph-name="e" unicode="e" horiz-adv-x="1298"
d="M1231 446h-879q25 -103 109 -163t205 -60q84 0 140 25.5t109 87.5h297q-24 -77 -90 -158q-176 -205 -450 -205q-128 0 -242 46t-195.5 124.5t-129.5 188t-48 231.5q0 164 79.5 301.5t217 217t301.5 79.5q167 0 301 -78.5t209.5 -218t75.5 -313.5q0 -56 -10 -105zM344 686
h629q-26 109 -107 167t-207 58q-122 0 -202.5 -57.5t-112.5 -167.5z" />
    <glyph glyph-name="f" unicode="f" horiz-adv-x="602"
d="M139 0v887h-98v227h98q10 109 31 169t66 110q105 120 278 120q35 0 68 -4v-258h-29q-78 0 -108.5 -30t-32.5 -107h153v-227h-153v-887h-273z" />
    <glyph glyph-name="g" unicode="g" horiz-adv-x="1357"
d="M987 1135h260v-920q0 -169 -29.5 -280.5t-95.5 -190.5q-162 -197 -463 -197q-208 0 -361 95t-222 266h309q60 -66 125 -93.5t160 -27.5q152 0 231 90t86 273q-80 -94 -166.5 -135.5t-206.5 -41.5q-160 0 -287.5 77t-198.5 214.5t-71 310.5q0 252 159 419t400 167
q244 0 371 -170v144zM643 911q-140 0 -225.5 -95.5t-85.5 -252.5q0 -155 86.5 -247.5t232.5 -92.5q148 0 236 93.5t88 250.5q0 154 -91.5 249t-240.5 95z" />
    <glyph glyph-name="h" unicode="h" horiz-adv-x="1222"
d="M111 0v1513h272v-456q117 106 289 106q125 0 222.5 -48.5t152.5 -139.5q38 -63 53.5 -138t15.5 -196v-641h-272v580q0 180 -50.5 255.5t-170.5 75.5q-145 0 -203 -114q-37 -67 -37 -222v-575h-272z" />
    <glyph glyph-name="i" unicode="i" horiz-adv-x="493"
d="M111 0v1135h272v-1135h-272zM111 1257v256h272v-256h-272z" />
    <glyph glyph-name="j" unicode="j" horiz-adv-x="522"
d="M139 1135h273v-1059q0 -127 -29 -212.5t-92 -144.5q-106 -98 -264 -98v264q41 7 61 15t33 31t15.5 54.5t2.5 96.5v1053zM139 1257v256h273v-256h-273z" />
    <glyph glyph-name="k" unicode="k" horiz-adv-x="1140"
d="M111 0v1513h272v-913l362 535h326l-405 -555l471 -580h-367l-387 530v-530h-272z" />
    <glyph glyph-name="l" unicode="l" horiz-adv-x="493"
d="M111 0v1513h272v-1513h-272z" />
    <glyph glyph-name="m" unicode="m" horiz-adv-x="1918"
d="M111 0v1135h249v-107q60 72 127.5 102.5t167.5 30.5q119 0 197.5 -41t136.5 -135q69 92 156 134t207 42q134 0 236.5 -49.5t156.5 -140.5q67 -118 67 -316v-655h-272v623q0 87 -13 139t-42 84q-56 65 -158 65q-137 0 -194 -114q-35 -71 -35 -238v-559h-273v623
q0 158 -51 221q-58 67 -168 67q-145 0 -196 -123q-27 -67 -27 -229v-559h-272z" />
    <glyph glyph-name="n" unicode="n" horiz-adv-x="1224"
d="M111 0v1135h251v-109q75 73 148 104t172 31q248 0 362 -174q41 -66 57.5 -149t16.5 -230v-608h-272v555q0 220 -58 289q-55 67 -159 67q-140 0 -203 -110q-25 -39 -34 -97t-9 -169v-535h-272z" />
    <glyph glyph-name="o" unicode="o" horiz-adv-x="1320"
d="M666 1161q162 0 300 -80t218 -217.5t80 -298.5q0 -160 -80.5 -296.5t-219.5 -216t-302 -79.5q-164 0 -303.5 79.5t-220.5 216t-81 296.5q0 122 47.5 232.5t129 190t194.5 126.5t238 47zM655 911q-132 0 -227.5 -101.5t-95.5 -242.5q0 -142 96 -243t231 -101
q136 0 233 100.5t97 241.5q0 146 -97 246t-237 100z" />
    <glyph glyph-name="p" unicode="p" horiz-adv-x="1355"
d="M111 -379v1514h249v-134q135 160 373 160q162 0 291 -75.5t201.5 -210.5t72.5 -304q0 -170 -73 -306.5t-202.5 -214t-291.5 -77.5q-104 0 -187 32t-161 101v-485h-272zM692 911q-138 0 -231.5 -99.5t-93.5 -248.5q0 -145 96 -242.5t237 -97.5q137 0 230.5 98.5
t93.5 243.5q0 150 -94 248t-238 98z" />
    <glyph glyph-name="q" unicode="q" horiz-adv-x="1357"
d="M997 1135h250v-1514h-272v488q-136 -136 -342 -136q-161 0 -293 78.5t-207.5 215.5t-75.5 304q0 162 76 298t207.5 214t288.5 78q124 0 212 -41.5t156 -130.5v146zM659 911q-138 0 -232.5 -100t-94.5 -246q0 -148 94.5 -245t239.5 -97q140 0 232.5 96.5t92.5 243.5
q0 152 -93 250t-239 98z" />
    <glyph glyph-name="r" unicode="r" horiz-adv-x="675"
d="M111 0v1135h249v-111q54 79 106 108t140 29h21v-262q-244 -6 -244 -268v-631h-272z" />
    <glyph glyph-name="s" unicode="s" horiz-adv-x="897"
d="M31 360h274q20 -72 56 -104.5t96 -32.5q54 0 88.5 31.5t34.5 79.5q0 56 -52 88q-22 13 -43 22t-98 35q-170 57 -242.5 134t-72.5 202q0 146 108.5 246t268.5 100q88 0 166.5 -35t132.5 -98q37 -44 53.5 -91t19.5 -116h-266q-18 90 -106 90q-44 0 -74.5 -27.5t-30.5 -68.5
q0 -52 53 -76q29 -12 140 -47q172 -53 243.5 -128t71.5 -204q0 -163 -118 -275t-288 -112q-105 0 -197.5 44.5t-146.5 119.5q-32 46 -48 95t-23 128z" />
    <glyph glyph-name="t" unicode="t" horiz-adv-x="620"
d="M160 0v887h-133v248h133v378h272v-378h164v-248h-164v-887h-272z" />
    <glyph glyph-name="u" unicode="u" horiz-adv-x="1226"
d="M1116 1135v-1135h-252v109q-78 -75 -150.5 -105.5t-174.5 -30.5q-115 0 -206 46.5t-147 132.5q-44 69 -62 152t-18 222v609h273v-555q0 -118 13 -184.5t44 -104.5q59 -68 158 -68q71 0 126.5 28.5t84.5 80.5q22 38 30.5 98.5t8.5 169.5v535h272z" />
    <glyph glyph-name="v" unicode="v" horiz-adv-x="1142"
d="M463 0l-457 1135h303l262 -752l258 752h308l-457 -1135h-217z" />
    <glyph glyph-name="w" unicode="w" horiz-adv-x="1599"
d="M412 0l-406 1135h293l203 -693l190 693h217l187 -693l207 693h290l-409 -1135h-170l-215 735l-219 -735h-168z" />
    <glyph glyph-name="x" unicode="x" horiz-adv-x="1142"
d="M6 0l402 586l-349 549h308l204 -342l201 342h307l-346 -549l404 -586h-328l-238 389l-237 -389h-328z" />
    <glyph glyph-name="y" unicode="y" horiz-adv-x="1163"
d="M209 -379l213 485l-416 1029h311l252 -736l275 736h313l-655 -1514h-293z" />
    <glyph glyph-name="z" unicode="z" horiz-adv-x="987"
d="M61 0v244l500 647h-442v244h768v-244l-500 -647h539v-244h-865z" />
    <glyph glyph-name="braceleft" unicode="{" horiz-adv-x="686"
d="M463 1141v-252q0 -120 -40.5 -178t-143.5 -86q101 -25 142.5 -84t41.5 -179v-251q0 -47 1.5 -75.5t8.5 -53t16.5 -37t29.5 -22.5t43.5 -14t62.5 -7v-164q-33 -2 -88 -2q-152 0 -220.5 67.5t-68.5 216.5v322q0 93 -40 142t-126 59v166q86 10 126 58.5t40 141.5v322
q0 149 68.5 217t220.5 68q39 0 88 -3v-163q-39 -3 -62.5 -7t-43.5 -14t-29.5 -22.5t-16.5 -37t-8.5 -53t-1.5 -75.5z" />
    <glyph glyph-name="bar" unicode="|" horiz-adv-x="1226"
d="M735 1513v-1513h-243v1513h243z" />
    <glyph glyph-name="braceright" unicode="}" horiz-adv-x="686"
d="M223 111v251q0 120 41 178.5t144 86.5q-102 25 -143.5 83.5t-41.5 178.5v252q0 47 -1.5 75.5t-8.5 53t-16.5 37t-29.5 22.5t-43.5 14t-62.5 7v163q50 3 89 3q152 0 220 -67.5t68 -217.5v-322q0 -93 40 -141.5t126 -58.5v-166q-86 -10 -126 -59t-40 -142v-322
q0 -149 -68 -216.5t-220 -67.5q-56 0 -89 2v164q39 3 62.5 7t43.5 14t29.5 22.5t16.5 37t8.5 53t1.5 75.5z" />
    <glyph glyph-name="asciitilde" unicode="~" horiz-adv-x="1228"
d="M999 862l131 -151q-80 -131 -146.5 -185.5t-149.5 -54.5q-70 0 -187 49l-110 45q-93 39 -131 39q-58 0 -101 -49q-8 -10 -63 -96q-3 -3 -15 -21l-129 154q56 97 99 147q38 50 92 77.5t112 27.5q74 0 158 -33l137 -55q83 -34 101.5 -39.5t44.5 -5.5q36 0 77.5 40t79.5 111
z" />
    <glyph glyph-name="uni00A0" unicode="&#xa0;" horiz-adv-x="573"
 />
    <glyph glyph-name="exclamdown" unicode="&#xa1;" horiz-adv-x="657"
d="M465 750v-1129h-272v1129h272zM465 1135v-263h-272v263h272z" />
    <glyph glyph-name="cent" unicode="&#xa2;"
d="M713 80h-256v223q-77 17 -131 47.5t-105 85.5q-63 66 -97 156.5t-34 187.5q0 104 41.5 200t116.5 165q45 41 91 64t118 42v213h256v-213q132 -32 224 -125t120 -219h-291q-31 43 -82.5 68.5t-108.5 25.5q-92 0 -152.5 -64t-60.5 -161q0 -96 63 -159.5t159 -63.5
q101 0 174 82h299q-103 -269 -344 -332v-223z" />
    <glyph glyph-name="sterling" unicode="&#xa3;"
d="M84 0v256h285q41 68 41 147q0 64 -27 117t-92 115h-291v256h119q-35 77 -35 166q0 203 142 343t347 140q196 0 329.5 -120t150.5 -312h-277q-22 87 -74.5 134.5t-126.5 47.5q-92 0 -155.5 -70t-63.5 -173q0 -91 56 -156h424v-256h-220q37 -71 51.5 -120.5t14.5 -104.5
q0 -71 -27 -154q81 0 131 27q44 26 69.5 71t25.5 97q0 43 -21 110h270q23 -62 23 -106q0 -99 -41 -190t-113 -154q-72 -62 -157 -86.5t-226 -24.5h-532z" />
    <glyph glyph-name="currency" unicode="&#xa4;"
d="M55 1176l164 163l92 -90q125 74 262 74q143 0 271 -74l92 88l158 -166l-86 -88q44 -76 59.5 -131.5t15.5 -134.5t-16.5 -135.5t-60.5 -126.5l86 -88l-158 -164l-90 86q-130 -76 -269 -76q-141 0 -268 76l-90 -86l-162 166l86 88q-44 85 -58.5 136t-14.5 126
q0 76 14 126.5t59 137.5zM575 1077q-107 0 -184.5 -76t-77.5 -180q0 -108 77 -185t185 -77q107 0 183 75t76 181q0 110 -75 186t-184 76z" />
    <glyph glyph-name="yen" unicode="&#xa5;"
d="M432 0v383h-401v180h401l-115 215h-286v180h192l-289 555h306l327 -698l330 698h315l-292 -555h188v-180h-287l-116 -215h403v-180h-403v-383h-273z" />
    <glyph glyph-name="brokenbar" unicode="&#xa6;" horiz-adv-x="1228"
d="M735 1513v-618h-243v618h243zM735 618v-618h-243v618h243z" />
    <glyph glyph-name="section" unicode="&#xa7;"
d="M1008 1153h-258q-13 72 -56 104.5t-121 32.5q-65 0 -102 -26.5t-37 -73.5q0 -82 125 -141l336 -166q82 -40 130 -117t48 -168q0 -85 -39.5 -160t-113.5 -131q55 -55 78.5 -112.5t23.5 -131.5q0 -169 -123.5 -277t-316.5 -108q-242 0 -375 168q-44 57 -65.5 117t-28.5 150
h274q0 -61 14 -93q23 -43 71.5 -67.5t111.5 -24.5q77 0 127.5 37.5t50.5 95.5q0 44 -30 74t-120 76l-333 172q-207 104 -207 328q0 96 37.5 166t121.5 133q-57 85 -57 190q0 151 114.5 245.5t297.5 94.5q184 0 290.5 -98t131.5 -289zM696 694l-305 152q-43 -34 -61.5 -61.5
t-18.5 -59.5q0 -35 28.5 -65t94.5 -64l309 -156q35 25 55.5 59.5t20.5 69.5q0 37 -24.5 62t-98.5 63z" />
    <glyph glyph-name="dieresis" unicode="&#xa8;" horiz-adv-x="964"
d="M131 1290v273h272v-273h-272zM561 1290v273h273v-273h-273z" />
    <glyph glyph-name="copyright" unicode="&#xa9;" horiz-adv-x="1619"
d="M1022 655h227q-37 -150 -154.5 -241.5t-273.5 -91.5q-187 0 -316.5 127.5t-129.5 312.5q0 186 128 313t316 127q157 0 281 -97.5t149 -240.5h-227q-25 68 -80.5 108t-124.5 40q-97 0 -162 -71t-65 -177t65.5 -179t161.5 -73q137 0 205 143zM819 1540q158 0 302 -62.5
t249 -167.5t167 -250.5t62 -303.5q0 -159 -62.5 -304t-168 -250t-251.5 -167t-306 -62q-161 0 -307 62t-252 167t-169 250t-63 304q0 161 62.5 306.5t169 250t255 166t312.5 61.5zM803 1382q-124 0 -238.5 -50t-198 -133.5t-133 -199t-49.5 -241.5q0 -168 84 -311
t228 -226.5t313 -83.5q127 0 243.5 49.5t200.5 132.5t133.5 197.5t49.5 239.5q0 172 -84 316t-229.5 227t-319.5 83z" />
    <glyph glyph-name="ordfeminine" unicode="&#xaa;" horiz-adv-x="782"
d="M696 1513v-610h-135v84q-78 -104 -209 -104q-123 0 -207 95t-84 234q0 136 87.5 230t213.5 94q122 0 199 -102v79h135zM381 1384q-68 0 -116 -52.5t-48 -125.5q0 -72 48.5 -122t117.5 -50q71 0 118.5 50.5t47.5 125.5t-48 124.5t-120 49.5zM68 635v143h637v-143h-637z
" />
    <glyph glyph-name="guillemotleft" unicode="&#xab;" horiz-adv-x="942"
d="M813 221l-285 268v205l285 267v-252l-137 -117l137 -119v-252zM377 221l-285 268v205l285 267v-252l-137 -117l137 -119v-252z" />
    <glyph glyph-name="logicalnot" unicode="&#xac;" horiz-adv-x="1228"
d="M90 969h1032v-596h-233v362h-799v234z" />
    <glyph glyph-name="uni00AD" unicode="&#xad;" horiz-adv-x="690"
d="M61 469v242h568v-242h-568z" />
    <glyph glyph-name="registered" unicode="&#xae;" horiz-adv-x="1619"
d="M514 340v846h268q105 0 160 -13.5t98 -48.5q49 -38 77 -99.5t28 -129.5q0 -104 -57 -176.5t-152 -89.5l229 -289h-247l-197 274v-274h-207zM721 762h76q68 0 104.5 31t36.5 88q0 55 -35.5 84.5t-103.5 29.5h-78v-233zM819 1540q158 0 302 -62.5t249 -167.5t167 -250.5
t62 -303.5q0 -159 -62.5 -304t-168 -250t-251.5 -167t-306 -62q-161 0 -307 62t-252 167t-169 250t-63 304q0 161 62.5 306.5t169 250t255 166t312.5 61.5zM803 1382q-124 0 -238.5 -50t-198 -133.5t-133 -199t-49.5 -241.5q0 -168 84 -311t228 -226.5t313 -83.5
q127 0 243.5 49.5t200.5 132.5t133.5 197.5t49.5 239.5q0 172 -84 316t-229.5 227t-319.5 83z" />
    <glyph glyph-name="macron" unicode="&#xaf;" horiz-adv-x="829"
d="M131 1327v205h567v-205h-567z" />
    <glyph glyph-name="degree" unicode="&#xb0;" horiz-adv-x="819"
d="M418 1405q126 0 212.5 -90.5t86.5 -222.5t-89 -223t-218 -91t-218.5 92t-89.5 224q0 131 91.5 221t224.5 90zM410 1288q-79 0 -136 -58t-57 -138q0 -82 56.5 -139.5t136.5 -57.5t135 57t55 140t-55 139.5t-135 56.5z" />
    <glyph glyph-name="plusminus" unicode="&#xb1;" horiz-adv-x="1228"
d="M492 938v399h245v-399h393v-242h-393v-338h-245v338h-394v242h394zM1130 242v-242h-1032v242h1032z" />
    <glyph glyph-name="uni00B2" unicode="&#xb2;" horiz-adv-x="688"
d="M27 606v152l348 303q63 57 87.5 95t24.5 79q0 57 -39.5 95t-99.5 38q-69 0 -108.5 -46t-40.5 -130h-179q0 73 13 121t45 90q41 60 112.5 93.5t155.5 33.5q138 0 230 -85t92 -214q0 -162 -183 -307l-192 -154h371v-164h-637z" />
    <glyph glyph-name="uni00B3" unicode="&#xb3;" horiz-adv-x="688"
d="M260 1036v168q94 1 132 20.5t38 65.5q0 34 -25 56t-63 22q-40 0 -59 -18.5t-27 -63.5h-182q6 64 21 100t50 68q77 74 195 74q117 0 193.5 -70.5t76.5 -177.5q0 -98 -69 -152q65 -31 100 -90.5t35 -138.5q0 -133 -93.5 -221t-236.5 -88q-144 0 -238 83.5t-102 217.5h180
q9 -66 51.5 -102.5t108.5 -36.5t109 40t43 101q0 66 -53 104.5t-142 38.5h-43z" />
    <glyph glyph-name="acute" unicode="&#xb4;" horiz-adv-x="831"
d="M236 1255l-105 160l459 275l110 -189z" />
    <glyph glyph-name="mu" unicode="&#xb5;" horiz-adv-x="1230"
d="M383 106v-485h-272v1514h272v-535q0 -127 8.5 -175t40.5 -93q73 -109 195 -109q60 0 110 29t76 80q35 71 35 268v535h272v-1135h-252v109q-62 -74 -119.5 -105t-134.5 -31q-72 0 -126 31t-105 102z" />
    <glyph glyph-name="paragraph" unicode="&#xb6;" horiz-adv-x="1228"
d="M494 -262v938q-187 3 -302.5 118t-115.5 298q0 121 55.5 217t155.5 147q117 57 346 57h446v-1775h-207v1556h-172v-1556h-206z" />
    <glyph glyph-name="periodcentered" unicode="&#xb7;" horiz-adv-x="575"
d="M152 614v273h272v-273h-272z" />
    <glyph glyph-name="cedilla" unicode="&#xb8;" horiz-adv-x="663"
d="M223 0h107l-43 -119q41 15 59 15q76 0 131 -61t55 -146q0 -91 -54 -147t-142 -56q-78 0 -135.5 49t-69.5 125h125q27 -61 78 -61q33 0 56.5 27.5t23.5 66.5q0 37 -23 63.5t-55 26.5q-23 0 -40.5 -12t-39.5 -43l-106 53z" />
    <glyph glyph-name="uni00B9" unicode="&#xb9;" horiz-adv-x="688"
d="M287 606v744h-121v163h301v-907h-180z" />
    <glyph glyph-name="ordmasculine" unicode="&#xba;" horiz-adv-x="751"
d="M381 1536q127 0 218 -92t91 -221q0 -132 -91.5 -225t-221.5 -93t-223 94t-93 226q0 130 93 220.5t227 90.5zM373 1393q-66 0 -114 -49.5t-48 -118.5q0 -72 47 -120t119 -48q70 0 117 48t47 120q0 69 -49.5 118.5t-118.5 49.5zM61 637v143h629v-143h-629z" />
    <glyph glyph-name="guillemotright" unicode="&#xbb;" horiz-adv-x="942"
d="M129 221v252l137 119l-137 117v252l285 -267v-205zM565 221v252l137 119l-137 117v252l285 -267v-205z" />
    <glyph glyph-name="onequarter" unicode="&#xbc;" horiz-adv-x="1720"
d="M362 0l627 1513h195l-627 -1513h-195zM948 272l426 635h152v-616h98v-156h-98v-135h-180v135h-398v137zM1346 291v315l-209 -315h209zM225 606v744h-121v163h302v-907h-181z" />
    <glyph glyph-name="onehalf" unicode="&#xbd;" horiz-adv-x="1720"
d="M311 0l627 1513h195l-627 -1513h-195zM217 606v744h-121v163h301v-907h-180zM963 0v152l348 303q63 57 87.5 95t24.5 79q0 57 -39.5 95t-99.5 38q-69 0 -108.5 -46t-40.5 -130h-179q0 72 13.5 120t44.5 91q41 60 112.5 93.5t155.5 33.5q138 0 230 -85t92 -214
q0 -163 -183 -308l-192 -153h370v-164h-636z" />
    <glyph glyph-name="threequarters" unicode="&#xbe;" horiz-adv-x="1720"
d="M516 0l627 1513h194l-626 -1513h-195zM1040 272l426 635h152v-616h98v-156h-98v-135h-180v135h-398v137zM1438 291v315l-209 -315h209zM266 1036v168q94 1 132 20.5t38 65.5q0 34 -25 56t-63 22q-40 0 -59 -18.5t-27 -63.5h-182q6 63 21.5 99.5t50.5 68.5q77 74 194 74
t193.5 -70.5t76.5 -177.5q0 -98 -69 -152q65 -31 100 -90.5t35 -138.5q0 -133 -93.5 -221t-236.5 -88q-144 0 -238 83.5t-102 217.5h181q9 -66 51 -102.5t108 -36.5t109 40t43 101q0 66 -53 104.5t-142 38.5h-43z" />
    <glyph glyph-name="questiondown" unicode="&#xbf;" horiz-adv-x="1062"
d="M414 752h272v-31q0 -202 -82 -320q-31 -46 -57.5 -73.5t-110.5 -98.5q-92 -80 -92 -174q0 -83 55 -136.5t140 -53.5q164 0 188 205h272q-9 -106 -33 -177t-71 -129q-66 -81 -161.5 -125.5t-201.5 -44.5q-198 0 -329 134t-131 335q0 103 45.5 183t163.5 184
q82 71 107.5 128t25.5 167v27zM686 1135v-263h-272v263h272z" />
    <glyph glyph-name="Agrave" unicode="&#xc0;" horiz-adv-x="1515"
d="M14 0l631 1513h221l635 -1513h-309l-162 391h-538l-168 -391h-310zM594 659h324l-162 459zM403 1868l117 180l455 -272l-109 -162z" />
    <glyph glyph-name="Aacute" unicode="&#xc1;" horiz-adv-x="1515"
d="M14 0l631 1513h221l635 -1513h-309l-162 391h-538l-168 -391h-310zM594 659h324l-162 459zM645 1614l-104 160l458 274l111 -188z" />
    <glyph glyph-name="Acircumflex" unicode="&#xc2;" horiz-adv-x="1515"
d="M14 0l631 1513h221l635 -1513h-309l-162 391h-538l-168 -391h-310zM594 659h324l-162 459zM350 1649l301 282h219l297 -282h-297l-108 131l-111 -131h-301z" />
    <glyph glyph-name="Atilde" unicode="&#xc3;" horiz-adv-x="1515"
d="M14 0l631 1513h221l635 -1513h-309l-162 391h-538l-168 -391h-310zM594 659h324l-162 459zM530 1661l-110 164q54 54 100 75t111 21q34 0 56.5 -5t66.5 -24q56 -22 96 -22q76 0 137 69l111 -165q-50 -60 -94.5 -86.5t-98.5 -26.5q-41 0 -121 27q-66 24 -110 24
q-40 0 -63 -8t-81 -43z" />
    <glyph glyph-name="Adieresis" unicode="&#xc4;" horiz-adv-x="1515"
d="M14 0l631 1513h221l635 -1513h-309l-162 391h-538l-168 -391h-310zM594 659h324l-162 459zM408 1649v272h272v-272h-272zM838 1649v272h272v-272h-272z" />
    <glyph glyph-name="Aring" unicode="&#xc5;" horiz-adv-x="1515"
d="M14 0l631 1513h221l635 -1513h-309l-162 391h-538l-168 -391h-310zM594 659h324l-162 459zM760 2030q86 0 147.5 -62.5t61.5 -148.5q0 -88 -61.5 -149.5t-149.5 -61.5t-149.5 61.5t-61.5 149.5t62 149.5t151 61.5zM756 1892q-30 0 -51 -21t-21 -52t21.5 -52.5t52.5 -21.5
t52 21.5t21 52.5t-21.5 52t-53.5 21z" />
    <glyph glyph-name="AE" unicode="&#xc6;" horiz-adv-x="1810"
d="M4 0l997 1513h695v-268h-447v-356h424v-268h-424v-353h447v-268h-727v391h-398l-229 -391h-338zM733 659h236v392z" />
    <glyph glyph-name="Ccedilla" unicode="&#xc7;" horiz-adv-x="1642"
d="M829 -27l-32 -92q41 15 59 15q76 0 131 -61t55 -146q0 -91 -54 -147t-142 -56q-78 0 -135.5 49t-69.5 125h127q24 -61 76 -61q34 0 57 27t23 67q0 37 -23 63.5t-55 26.5q-23 0 -40.5 -12t-37.5 -43l-109 53l68 205q-181 27 -331 139t-236 280.5t-86 356.5q0 158 62 302
t166 248t248 166t302 62q143 0 275.5 -47.5t238.5 -136.5q72 -62 116 -122t87 -155h-314q-77 100 -171 145.5t-226 45.5q-237 0 -377 -166q-58 -67 -91.5 -159t-33.5 -185q0 -139 68 -258t185 -188.5t255 -69.5q109 0 195.5 41t179.5 137h330q-92 -210 -281.5 -329.5
t-429.5 -119.5h-29z" />
    <glyph glyph-name="Egrave" unicode="&#xc8;" horiz-adv-x="1073"
d="M145 0v1513h813v-268h-532v-356h510v-268h-510v-353h532v-268h-813zM184 1868l117 180l455 -272l-109 -162z" />
    <glyph glyph-name="Eacute" unicode="&#xc9;" horiz-adv-x="1073"
d="M145 0v1513h813v-268h-532v-356h510v-268h-510v-353h532v-268h-813zM467 1614l-105 160l459 274l111 -188z" />
    <glyph glyph-name="Ecircumflex" unicode="&#xca;" horiz-adv-x="1073"
d="M145 0v1513h813v-268h-532v-356h510v-268h-510v-353h532v-268h-813zM137 1649l301 282h219l297 -282h-297l-108 131l-111 -131h-301z" />
    <glyph glyph-name="Edieresis" unicode="&#xcb;" horiz-adv-x="1073"
d="M145 0v1513h813v-268h-532v-356h510v-268h-510v-353h532v-268h-813zM201 1649v272h272v-272h-272zM631 1649v272h272v-272h-272z" />
    <glyph glyph-name="Igrave" unicode="&#xcc;" horiz-adv-x="571"
d="M145 0v1513h281v-1513h-281zM14 1868l117 180l455 -272l-109 -162z" />
    <glyph glyph-name="Iacute" unicode="&#xcd;" horiz-adv-x="571"
d="M145 0v1513h281v-1513h-281zM119 1614l-105 160l459 274l111 -188z" />
    <glyph glyph-name="Icircumflex" unicode="&#xce;" horiz-adv-x="571"
d="M145 0v1513h281v-1513h-281zM-123 1649l301 282h219l297 -282h-297l-108 131l-111 -131h-301z" />
    <glyph glyph-name="Idieresis" unicode="&#xcf;" horiz-adv-x="571"
d="M145 0v1513h281v-1513h-281zM-66 1649v272h273v-272h-273zM365 1649v272h272v-272h-272z" />
    <glyph glyph-name="Eth" unicode="&#xd0;" horiz-adv-x="1523"
d="M238 0v645h-197v219h197v649h346q372 0 553 -118q151 -97 232 -263.5t81 -377.5q0 -235 -101 -413t-282 -263q-92 -42 -201.5 -60t-275.5 -18h-352zM518 268h62q246 0 370 68q100 55 158.5 168t58.5 250q0 149 -64 264.5t-177 171.5q-64 31 -143 43t-210 12h-55v-381h316
v-219h-316v-377z" />
    <glyph glyph-name="Ntilde" unicode="&#xd1;" horiz-adv-x="1517"
d="M145 0v1513h320l627 -1101v1101h280v-1513h-313l-633 1100v-1100h-281zM545 1661l-111 164q54 54 100 75t111 21q34 0 56.5 -5t66.5 -24q56 -22 96 -22q76 0 137 69l111 -165q-50 -60 -94 -86.5t-98 -26.5q-41 0 -121 27q-66 24 -111 24q-40 0 -62.5 -8t-80.5 -43z" />
    <glyph glyph-name="Ograve" unicode="&#xd2;" horiz-adv-x="1724"
d="M874 1540q158 0 302 -62t248 -166.5t165.5 -249.5t61.5 -304q0 -218 -103 -398t-282 -283.5t-396 -103.5q-164 0 -311.5 61t-253.5 165.5t-168.5 250t-62.5 306.5q0 163 62 308.5t168 249.5t254.5 165t315.5 61zM856 1270q-207 0 -353.5 -149.5t-146.5 -362.5
q0 -107 40 -202t108 -163.5t163 -108.5t201 -40q215 0 357.5 145t142.5 365q0 223 -145.5 369.5t-366.5 146.5zM578 1868l116 180l455 -272l-109 -162z" />
    <glyph glyph-name="Oacute" unicode="&#xd3;" horiz-adv-x="1724"
d="M874 1540q158 0 302 -62t248 -166.5t165.5 -249.5t61.5 -304q0 -218 -103 -398t-282 -283.5t-396 -103.5q-164 0 -311.5 61t-253.5 165.5t-168.5 250t-62.5 306.5q0 163 62 308.5t168 249.5t254.5 165t315.5 61zM856 1270q-207 0 -353.5 -149.5t-146.5 -362.5
q0 -107 40 -202t108 -163.5t163 -108.5t201 -40q215 0 357.5 145t142.5 365q0 223 -145.5 369.5t-366.5 146.5zM682 1614l-104 160l458 274l111 -188z" />
    <glyph glyph-name="Ocircumflex" unicode="&#xd4;" horiz-adv-x="1724"
d="M874 1540q158 0 302 -62t248 -166.5t165.5 -249.5t61.5 -304q0 -218 -103 -398t-282 -283.5t-396 -103.5q-164 0 -311.5 61t-253.5 165.5t-168.5 250t-62.5 306.5q0 163 62 308.5t168 249.5t254.5 165t315.5 61zM856 1270q-207 0 -353.5 -149.5t-146.5 -362.5
q0 -107 40 -202t108 -163.5t163 -108.5t201 -40q215 0 357.5 145t142.5 365q0 223 -145.5 369.5t-366.5 146.5zM455 1649l301 282h219l297 -282h-297l-109 131l-110 -131h-301z" />
    <glyph glyph-name="Otilde" unicode="&#xd5;" horiz-adv-x="1724"
d="M874 1540q158 0 302 -62t248 -166.5t165.5 -249.5t61.5 -304q0 -218 -103 -398t-282 -283.5t-396 -103.5q-164 0 -311.5 61t-253.5 165.5t-168.5 250t-62.5 306.5q0 163 62 308.5t168 249.5t254.5 165t315.5 61zM856 1270q-207 0 -353.5 -149.5t-146.5 -362.5
q0 -107 40 -202t108 -163.5t163 -108.5t201 -40q215 0 357.5 145t142.5 365q0 223 -145.5 369.5t-366.5 146.5zM635 1661l-111 164q54 54 100 75t111 21q34 0 56.5 -5t66.5 -24q56 -22 96 -22q77 0 138 69l110 -165q-50 -60 -94 -86.5t-98 -26.5q-42 0 -121 27
q-66 24 -111 24q-40 0 -62.5 -8t-80.5 -43z" />
    <glyph glyph-name="Odieresis" unicode="&#xd6;" horiz-adv-x="1724"
d="M874 1540q158 0 302 -62t248 -166.5t165.5 -249.5t61.5 -304q0 -218 -103 -398t-282 -283.5t-396 -103.5q-164 0 -311.5 61t-253.5 165.5t-168.5 250t-62.5 306.5q0 163 62 308.5t168 249.5t254.5 165t315.5 61zM856 1270q-207 0 -353.5 -149.5t-146.5 -362.5
q0 -107 40 -202t108 -163.5t163 -108.5t201 -40q215 0 357.5 145t142.5 365q0 223 -145.5 369.5t-366.5 146.5zM512 1649v272h272v-272h-272zM942 1649v272h272v-272h-272z" />
    <glyph glyph-name="multiply" unicode="&#xd7;" horiz-adv-x="1228"
d="M782 750l348 -349l-167 -168l-349 349l-348 -349l-168 168l348 349l-348 348l168 168l348 -348l349 348l167 -168z" />
    <glyph glyph-name="Oslash" unicode="&#xd8;" horiz-adv-x="1730"
d="M1524 1522l-125 -185q127 -115 192.5 -263t65.5 -316q0 -218 -103 -398t-282.5 -283.5t-397.5 -103.5q-179 0 -344 74l-122 -180l-197 133l121 178q-123 110 -190.5 262t-67.5 318q0 160 62 305t167.5 249.5t252 166t308.5 61.5q169 0 338 -72l127 189zM1243 1106
l-557 -830q92 -32 186 -32q215 0 358.5 146t143.5 364q0 200 -131 352zM489 412l558 827q-91 31 -183 31q-140 0 -257 -67.5t-184 -185.5t-67 -259q0 -194 133 -346z" />
    <glyph glyph-name="Ugrave" unicode="&#xd9;" horiz-adv-x="1312"
d="M145 1513h281v-958q0 -85 7.5 -128.5t29.5 -80.5q29 -48 80 -75t112 -27q63 0 114.5 27t80.5 75q22 37 29.5 80.5t7.5 128.5v958h280v-958q0 -136 -25.5 -228.5t-82.5 -166.5q-69 -88 -176.5 -137.5t-227.5 -49.5q-136 0 -252.5 63.5t-181.5 172.5q-76 129 -76 346v958z
M289 1868l117 180l454 -272l-108 -162z" />
    <glyph glyph-name="Uacute" unicode="&#xda;" horiz-adv-x="1312"
d="M145 1513h281v-958q0 -85 7.5 -128.5t29.5 -80.5q29 -48 80 -75t112 -27q63 0 114.5 27t80.5 75q22 37 29.5 80.5t7.5 128.5v958h280v-958q0 -136 -25.5 -228.5t-82.5 -166.5q-69 -88 -176.5 -137.5t-227.5 -49.5q-136 0 -252.5 63.5t-181.5 172.5q-76 129 -76 346v958z
M559 1614l-104 160l458 274l111 -188z" />
    <glyph glyph-name="Ucircumflex" unicode="&#xdb;" horiz-adv-x="1312"
d="M145 1513h281v-958q0 -85 7.5 -128.5t29.5 -80.5q29 -48 80 -75t112 -27q63 0 114.5 27t80.5 75q22 37 29.5 80.5t7.5 128.5v958h280v-958q0 -136 -25.5 -228.5t-82.5 -166.5q-69 -88 -176.5 -137.5t-227.5 -49.5q-136 0 -252.5 63.5t-181.5 172.5q-76 129 -76 346v958z
M248 1649l301 282h219l297 -282h-297l-109 131l-110 -131h-301z" />
    <glyph glyph-name="Udieresis" unicode="&#xdc;" horiz-adv-x="1312"
d="M145 1513h281v-958q0 -85 7.5 -128.5t29.5 -80.5q29 -48 80 -75t112 -27q63 0 114.5 27t80.5 75q22 37 29.5 80.5t7.5 128.5v958h280v-958q0 -136 -25.5 -228.5t-82.5 -166.5q-69 -88 -176.5 -137.5t-227.5 -49.5q-136 0 -252.5 63.5t-181.5 172.5q-76 129 -76 346v958z
M305 1649v272h273v-272h-273zM735 1649v272h273v-272h-273z" />
    <glyph glyph-name="Yacute" unicode="&#xdd;" horiz-adv-x="1304"
d="M512 0v559l-498 954h303l336 -696l334 696h303l-497 -954v-559h-281zM555 1614l-104 160l458 274l111 -188z" />
    <glyph glyph-name="Thorn" unicode="&#xde;" horiz-adv-x="1179"
d="M145 0v1513h281v-268h94q154 0 243 -17.5t157 -60.5q92 -60 142 -161t50 -228q0 -136 -56.5 -245.5t-154.5 -165.5q-62 -34 -147 -48t-238 -14h-90v-305h-281zM426 573h82q124 0 192 21q60 17 94.5 64.5t34.5 113.5q0 72 -35 123t-96 68q-60 14 -178 14h-94v-404z" />
    <glyph glyph-name="germandbls" unicode="&#xdf;" horiz-adv-x="1261"
d="M111 0v997q0 193 65 320q56 104 158.5 163.5t228.5 59.5q191 0 319 -121t128 -301q0 -101 -37.5 -169.5t-116.5 -112.5q74 -17 117.5 -36.5t87.5 -54.5q141 -114 141 -303q0 -206 -134 -337.5t-345 -131.5q-250 0 -363 189v-162h-249zM383 387h168q14 -71 68 -117.5
t124 -46.5q78 0 131.5 56.5t53.5 140.5q0 63 -31 113.5t-86 76.5q-45 21 -96.5 28t-163.5 7h-23v242h23q79 0 131.5 60t52.5 151q0 88 -47 140t-127 52q-178 0 -178 -260v-643z" />
    <glyph glyph-name="agrave" unicode="&#xe0;" horiz-adv-x="1366"
d="M1255 1135v-1135h-249v147q-82 -93 -169.5 -133.5t-207.5 -40.5q-164 0 -294.5 75.5t-204 210.5t-73.5 304q0 171 74 307.5t206 213.5t298 77q123 0 212 -42.5t159 -135.5v152h249zM659 911q-142 0 -234.5 -100t-92.5 -254q0 -149 93.5 -241.5t242.5 -92.5
q148 0 238.5 94t90.5 246q0 154 -94.5 251t-243.5 97zM344 1509l117 181l454 -273l-108 -162z" />
    <glyph glyph-name="aacute" unicode="&#xe1;" horiz-adv-x="1366"
d="M1255 1135v-1135h-249v147q-82 -93 -169.5 -133.5t-207.5 -40.5q-164 0 -294.5 75.5t-204 210.5t-73.5 304q0 171 74 307.5t206 213.5t298 77q123 0 212 -42.5t159 -135.5v152h249zM659 911q-142 0 -234.5 -100t-92.5 -254q0 -149 93.5 -241.5t242.5 -92.5
q148 0 238.5 94t90.5 246q0 154 -94.5 251t-243.5 97zM600 1255l-104 160l458 275l111 -189z" />
    <glyph glyph-name="acircumflex" unicode="&#xe2;" horiz-adv-x="1366"
d="M1255 1135v-1135h-249v147q-82 -93 -169.5 -133.5t-207.5 -40.5q-164 0 -294.5 75.5t-204 210.5t-73.5 304q0 171 74 307.5t206 213.5t298 77q123 0 212 -42.5t159 -135.5v152h249zM659 911q-142 0 -234.5 -100t-92.5 -254q0 -149 93.5 -241.5t242.5 -92.5
q148 0 238.5 94t90.5 246q0 154 -94.5 251t-243.5 97zM295 1290l301 283h219l297 -283h-297l-108 131l-111 -131h-301z" />
    <glyph glyph-name="atilde" unicode="&#xe3;" horiz-adv-x="1366"
d="M1255 1135v-1135h-249v147q-82 -93 -169.5 -133.5t-207.5 -40.5q-164 0 -294.5 75.5t-204 210.5t-73.5 304q0 171 74 307.5t206 213.5t298 77q123 0 212 -42.5t159 -135.5v152h249zM659 911q-142 0 -234.5 -100t-92.5 -254q0 -149 93.5 -241.5t242.5 -92.5
q148 0 238.5 94t90.5 246q0 154 -94.5 251t-243.5 97zM475 1303l-110 163q54 54 100 75.5t110 21.5q34 0 56.5 -5t66.5 -24q59 -23 97 -23q76 0 137 70l110 -166q-50 -60 -94 -86t-98 -26q-44 0 -121 26q-69 25 -111 25q-40 0 -62.5 -8t-80.5 -43z" />
    <glyph glyph-name="adieresis" unicode="&#xe4;" horiz-adv-x="1366"
d="M1255 1135v-1135h-249v147q-82 -93 -169.5 -133.5t-207.5 -40.5q-164 0 -294.5 75.5t-204 210.5t-73.5 304q0 171 74 307.5t206 213.5t298 77q123 0 212 -42.5t159 -135.5v152h249zM659 911q-142 0 -234.5 -100t-92.5 -254q0 -149 93.5 -241.5t242.5 -92.5
q148 0 238.5 94t90.5 246q0 154 -94.5 251t-243.5 97zM352 1290v273h273v-273h-273zM782 1290v273h273v-273h-273z" />
    <glyph glyph-name="aring" unicode="&#xe5;" horiz-adv-x="1366"
d="M1255 1135v-1135h-249v147q-82 -93 -169.5 -133.5t-207.5 -40.5q-164 0 -294.5 75.5t-204 210.5t-73.5 304q0 171 74 307.5t206 213.5t298 77q123 0 212 -42.5t159 -135.5v152h249zM659 911q-142 0 -234.5 -100t-92.5 -254q0 -149 93.5 -241.5t242.5 -92.5
q148 0 238.5 94t90.5 246q0 154 -94.5 251t-243.5 97zM707 1671q86 0 147 -62t61 -149q0 -88 -61 -149.5t-149 -61.5t-149.5 61.5t-61.5 149.5t62 149.5t151 61.5zM702 1534q-29 0 -50 -21.5t-21 -52.5t21.5 -52.5t52.5 -21.5t52 21.5t21 52.5t-22 52.5t-54 21.5z" />
    <glyph glyph-name="ae" unicode="&#xe6;" horiz-adv-x="2205"
d="M1812 336h297q-51 -156 -200.5 -259.5t-323.5 -103.5q-114 0 -196 36t-150 114v-123h-250v123q-69 -83 -145 -116.5t-193 -33.5q-255 0 -424.5 168.5t-169.5 421.5q0 167 77.5 304t212.5 215.5t300 78.5q110 0 191 -33t151 -106v113h250v-113q72 73 152.5 106t189.5 33
q156 0 286.5 -75t205.5 -206.5t75 -289.5q0 -63 -18 -141h-877q35 -106 120 -166t200 -60q77 0 133.5 26.5t105.5 86.5zM653 911q-135 0 -228 -98.5t-93 -243.5q0 -149 93 -247.5t234 -98.5q138 0 230 98t92 244q0 149 -93.5 247.5t-234.5 98.5zM1239 690h623
q-59 221 -308 221q-237 0 -315 -221z" />
    <glyph glyph-name="ccedilla" unicode="&#xe7;" horiz-adv-x="1280"
d="M649 -27l-39 -92q34 15 64 15q77 0 128.5 -58.5t51.5 -146.5q0 -94 -53 -149.5t-142 -55.5q-78 0 -135 49t-67 125h123q24 -61 77 -61q34 0 56 25t22 63q0 40 -22 65t-56 25q-41 0 -77 -49l-107 53l86 201q-220 38 -361 202.5t-141 382.5q0 164 79 300.5t216.5 215
t302.5 78.5q122 0 232.5 -43.5t193.5 -124.5q54 -53 85.5 -103.5t60.5 -133.5h-307q-80 155 -265 155q-142 0 -232.5 -95.5t-90.5 -246.5q0 -149 94.5 -247.5t235.5 -98.5q84 0 145.5 36t112.5 114h307q-66 -191 -217 -295.5t-361 -104.5z" />
    <glyph glyph-name="egrave" unicode="&#xe8;" horiz-adv-x="1298"
d="M1231 446h-879q25 -103 109 -163t205 -60q84 0 140 25.5t109 87.5h297q-24 -77 -90 -158q-176 -205 -450 -205q-128 0 -242 46t-195.5 124.5t-129.5 188t-48 231.5q0 164 79.5 301.5t217 217t301.5 79.5q167 0 301 -78.5t209.5 -218t75.5 -313.5q0 -56 -10 -105zM344 686
h629q-26 109 -107 167t-207 58q-122 0 -202.5 -57.5t-112.5 -167.5zM289 1509l117 181l454 -273l-108 -162z" />
    <glyph glyph-name="eacute" unicode="&#xe9;" horiz-adv-x="1298"
d="M1231 446h-879q25 -103 109 -163t205 -60q84 0 140 25.5t109 87.5h297q-24 -77 -90 -158q-176 -205 -450 -205q-128 0 -242 46t-195.5 124.5t-129.5 188t-48 231.5q0 164 79.5 301.5t217 217t301.5 79.5q167 0 301 -78.5t209.5 -218t75.5 -313.5q0 -56 -10 -105zM344 686
h629q-26 109 -107 167t-207 58q-122 0 -202.5 -57.5t-112.5 -167.5zM565 1255l-104 160l459 275l110 -189z" />
    <glyph glyph-name="ecircumflex" unicode="&#xea;" horiz-adv-x="1298"
d="M1231 446h-879q25 -103 109 -163t205 -60q84 0 140 25.5t109 87.5h297q-24 -77 -90 -158q-176 -205 -450 -205q-128 0 -242 46t-195.5 124.5t-129.5 188t-48 231.5q0 164 79.5 301.5t217 217t301.5 79.5q167 0 301 -78.5t209.5 -218t75.5 -313.5q0 -56 -10 -105zM344 686
h629q-26 109 -107 167t-207 58q-122 0 -202.5 -57.5t-112.5 -167.5zM254 1290l301 283h219l297 -283h-297l-108 131l-111 -131h-301z" />
    <glyph glyph-name="edieresis" unicode="&#xeb;" horiz-adv-x="1298"
d="M1231 446h-879q25 -103 109 -163t205 -60q84 0 140 25.5t109 87.5h297q-24 -77 -90 -158q-176 -205 -450 -205q-128 0 -242 46t-195.5 124.5t-129.5 188t-48 231.5q0 164 79.5 301.5t217 217t301.5 79.5q167 0 301 -78.5t209.5 -218t75.5 -313.5q0 -56 -10 -105zM344 686
h629q-26 109 -107 167t-207 58q-122 0 -202.5 -57.5t-112.5 -167.5zM313 1290v273h273v-273h-273zM743 1290v273h273v-273h-273z" />
    <glyph glyph-name="igrave" unicode="&#xec;" horiz-adv-x="493"
d="M111 0v1135h272v-1135h-272zM-33 1509l117 181l455 -273l-109 -162z" />
    <glyph glyph-name="iacute" unicode="&#xed;" horiz-adv-x="493"
d="M111 0v1135h272v-1135h-272zM72 1255l-105 160l459 275l111 -189z" />
    <glyph glyph-name="icircumflex" unicode="&#xee;" horiz-adv-x="493"
d="M111 0v1135h272v-1135h-272zM-162 1290l301 283h219l297 -283h-297l-108 131l-111 -131h-301z" />
    <glyph glyph-name="idieresis" unicode="&#xef;" horiz-adv-x="493"
d="M111 0v1135h272v-1135h-272zM-104 1290v273h272v-273h-272zM326 1290v273h272v-273h-272z" />
    <glyph glyph-name="eth" unicode="&#xf0;" horiz-adv-x="1320"
d="M342 1477l211 71q4 -3 11 -7t12.5 -7.5t9.5 -7.5l61 -47q14 -6 39 -27l178 82l84 -100l-160 -72q110 -95 162 -146t103 -114q211 -260 211 -520q0 -168 -79.5 -308t-218 -220.5t-304.5 -80.5q-164 0 -303.5 80t-220.5 217.5t-81 298.5q0 158 83.5 298t219.5 210
q51 26 121.5 44t122.5 18q49 0 139 -19q-12 11 -32.5 32.5t-24.5 25.5q-57 57 -100 94l-178 -82l-82 94l159 76q-87 73 -143 117zM655 911q-132 0 -227.5 -101.5t-95.5 -242.5q0 -142 96 -243t231 -101q136 0 233 100.5t97 241.5q0 146 -97 246t-237 100z" />
    <glyph glyph-name="ntilde" unicode="&#xf1;" horiz-adv-x="1224"
d="M111 0v1135h251v-109q75 73 148 104t172 31q248 0 362 -174q41 -66 57.5 -149t16.5 -230v-608h-272v555q0 220 -58 289q-55 67 -159 67q-140 0 -203 -110q-25 -39 -34 -97t-9 -169v-535h-272zM367 1303l-111 163q54 54 100.5 75.5t110.5 21.5q34 0 56.5 -5t66.5 -24
q59 -23 96 -23q76 0 137 70l111 -166q-50 -60 -94.5 -86t-98.5 -26q-43 0 -120 26q-69 25 -111 25q-40 0 -62.5 -8t-80.5 -43z" />
    <glyph glyph-name="ograve" unicode="&#xf2;" horiz-adv-x="1320"
d="M666 1161q162 0 300 -80t218 -217.5t80 -298.5q0 -160 -80.5 -296.5t-219.5 -216t-302 -79.5q-164 0 -303.5 79.5t-220.5 216t-81 296.5q0 122 47.5 232.5t129 190t194.5 126.5t238 47zM655 911q-132 0 -227.5 -101.5t-95.5 -242.5q0 -142 96 -243t231 -101
q136 0 233 100.5t97 241.5q0 146 -97 246t-237 100zM307 1509l117 181l455 -273l-109 -162z" />
    <glyph glyph-name="oacute" unicode="&#xf3;" horiz-adv-x="1320"
d="M666 1161q162 0 300 -80t218 -217.5t80 -298.5q0 -160 -80.5 -296.5t-219.5 -216t-302 -79.5q-164 0 -303.5 79.5t-220.5 216t-81 296.5q0 122 47.5 232.5t129 190t194.5 126.5t238 47zM655 911q-132 0 -227.5 -101.5t-95.5 -242.5q0 -142 96 -243t231 -101
q136 0 233 100.5t97 241.5q0 146 -97 246t-237 100zM549 1255l-105 160l459 275l111 -189z" />
    <glyph glyph-name="ocircumflex" unicode="&#xf4;" horiz-adv-x="1320"
d="M666 1161q162 0 300 -80t218 -217.5t80 -298.5q0 -160 -80.5 -296.5t-219.5 -216t-302 -79.5q-164 0 -303.5 79.5t-220.5 216t-81 296.5q0 122 47.5 232.5t129 190t194.5 126.5t238 47zM655 911q-132 0 -227.5 -101.5t-95.5 -242.5q0 -142 96 -243t231 -101
q136 0 233 100.5t97 241.5q0 146 -97 246t-237 100zM252 1290l301 283h219l297 -283h-297l-108 131l-111 -131h-301z" />
    <glyph glyph-name="otilde" unicode="&#xf5;" horiz-adv-x="1320"
d="M666 1161q162 0 300 -80t218 -217.5t80 -298.5q0 -160 -80.5 -296.5t-219.5 -216t-302 -79.5q-164 0 -303.5 79.5t-220.5 216t-81 296.5q0 122 47.5 232.5t129 190t194.5 126.5t238 47zM655 911q-132 0 -227.5 -101.5t-95.5 -242.5q0 -142 96 -243t231 -101
q136 0 233 100.5t97 241.5q0 146 -97 246t-237 100zM438 1303l-110 163q54 54 100.5 75.5t110.5 21.5q34 0 56.5 -5t66.5 -24q59 -23 96 -23q76 0 137 70l111 -166q-50 -60 -94.5 -86t-98.5 -26q-44 0 -121 26q-69 25 -110 25q-40 0 -63 -8t-81 -43z" />
    <glyph glyph-name="odieresis" unicode="&#xf6;" horiz-adv-x="1320"
d="M666 1161q162 0 300 -80t218 -217.5t80 -298.5q0 -160 -80.5 -296.5t-219.5 -216t-302 -79.5q-164 0 -303.5 79.5t-220.5 216t-81 296.5q0 122 47.5 232.5t129 190t194.5 126.5t238 47zM655 911q-132 0 -227.5 -101.5t-95.5 -242.5q0 -142 96 -243t231 -101
q136 0 233 100.5t97 241.5q0 146 -97 246t-237 100zM309 1290v273h273v-273h-273zM739 1290v273h273v-273h-273z" />
    <glyph glyph-name="divide" unicode="&#xf7;" horiz-adv-x="1228"
d="M752 1102h-277v268h277v-268zM752 150h-277v268h277v-268zM1130 881v-242h-1032v242h1032z" />
    <glyph glyph-name="oslash" unicode="&#xf8;" horiz-adv-x="1323"
d="M117 -20l116 172q-85 82 -130.5 189.5t-45.5 225.5q0 161 81 298t221 216.5t305 79.5q113 0 223 -43l106 158l176 -119l-102 -149q199 -184 199 -441q0 -121 -47.5 -231t-128.5 -189.5t-192.5 -126.5t-233.5 -47q-133 0 -258 58l-115 -168zM387 379l352 522
q-39 10 -77 10q-136 0 -233 -100.5t-97 -241.5q0 -99 55 -190zM918 784l-367 -540q59 -21 111 -21q136 0 232.5 100.5t96.5 241.5q0 121 -73 219z" />
    <glyph glyph-name="ugrave" unicode="&#xf9;" horiz-adv-x="1226"
d="M1116 1135v-1135h-252v109q-78 -75 -150.5 -105.5t-174.5 -30.5q-115 0 -206 46.5t-147 132.5q-44 69 -62 152t-18 222v609h273v-555q0 -118 13 -184.5t44 -104.5q59 -68 158 -68q71 0 126.5 28.5t84.5 80.5q22 38 30.5 98.5t8.5 169.5v535h272zM244 1509l116 181
l455 -273l-108 -162z" />
    <glyph glyph-name="uacute" unicode="&#xfa;" horiz-adv-x="1226"
d="M1116 1135v-1135h-252v109q-78 -75 -150.5 -105.5t-174.5 -30.5q-115 0 -206 46.5t-147 132.5q-44 69 -62 152t-18 222v609h273v-555q0 -118 13 -184.5t44 -104.5q59 -68 158 -68q71 0 126.5 28.5t84.5 80.5q22 38 30.5 98.5t8.5 169.5v535h272zM514 1255l-104 160
l458 275l111 -189z" />
    <glyph glyph-name="ucircumflex" unicode="&#xfb;" horiz-adv-x="1226"
d="M1116 1135v-1135h-252v109q-78 -75 -150.5 -105.5t-174.5 -30.5q-115 0 -206 46.5t-147 132.5q-44 69 -62 152t-18 222v609h273v-555q0 -118 13 -184.5t44 -104.5q59 -68 158 -68q71 0 126.5 28.5t84.5 80.5q22 38 30.5 98.5t8.5 169.5v535h272zM203 1290l301 283h219
l297 -283h-297l-109 131l-110 -131h-301z" />
    <glyph glyph-name="udieresis" unicode="&#xfc;" horiz-adv-x="1226"
d="M1116 1135v-1135h-252v109q-78 -75 -150.5 -105.5t-174.5 -30.5q-115 0 -206 46.5t-147 132.5q-44 69 -62 152t-18 222v609h273v-555q0 -118 13 -184.5t44 -104.5q59 -68 158 -68q71 0 126.5 28.5t84.5 80.5q22 38 30.5 98.5t8.5 169.5v535h272zM260 1290v273h272v-273
h-272zM690 1290v273h273v-273h-273z" />
    <glyph glyph-name="yacute" unicode="&#xfd;" horiz-adv-x="1163"
d="M209 -379l213 485l-416 1029h311l252 -736l275 736h313l-655 -1514h-293zM414 1255l-105 160l459 275l111 -189z" />
    <glyph glyph-name="thorn" unicode="&#xfe;" horiz-adv-x="1355"
d="M111 1513h272v-499q132 147 352 147q162 0 290.5 -76t200.5 -211.5t72 -306.5t-72 -306.5t-200.5 -211.5t-290.5 -76q-219 0 -352 148v-500h-272v1892zM692 911q-138 0 -231.5 -99t-93.5 -245q0 -148 94.5 -246t236.5 -98q138 0 232 99t94 245q0 148 -94.5 246t-237.5 98
z" />
    <glyph glyph-name="ydieresis" unicode="&#xff;" horiz-adv-x="1163"
d="M209 -379l213 485l-416 1029h311l252 -736l275 736h313l-655 -1514h-293zM231 1290v273h273v-273h-273zM662 1290v273h272v-273h-272z" />
    <glyph glyph-name="dotlessi" unicode="&#x131;" horiz-adv-x="493"
d="M111 0v1135h272v-1135h-272z" />
    <glyph glyph-name="Lslash" unicode="&#x141;" horiz-adv-x="991"
d="M231 0v559l-196 -162v254l196 162v700h281v-542l291 225v-252l-291 -227v-455h463v-262h-744z" />
    <glyph glyph-name="lslash" unicode="&#x142;" horiz-adv-x="702"
d="M223 0v649l-166 -127v203l166 129v659h273v-526l166 129v-203l-166 -129v-784h-273z" />
    <glyph glyph-name="OE" unicode="&#x152;" horiz-adv-x="2166"
d="M2052 0h-731v166q-85 -94 -205.5 -143.5t-263.5 -49.5q-164 0 -308.5 60t-247.5 163.5t-162.5 248.5t-59.5 309q0 222 99.5 402t275.5 282t393 102q309 0 479 -194v167h731v-268h-446v-356h424v-268h-424v-353h446v-268zM834 1270q-201 0 -339.5 -150.5t-138.5 -369.5
q0 -216 141 -361t351 -145t346.5 144t136.5 366q0 227 -138.5 371.5t-358.5 144.5z" />
    <glyph glyph-name="oe" unicode="&#x153;" horiz-adv-x="2199"
d="M1815 334h290q-60 -164 -206 -262.5t-330 -98.5q-145 0 -264 60t-197 172q-83 -119 -192.5 -175.5t-256.5 -56.5q-127 0 -239 45.5t-191.5 124t-125.5 188.5t-46 236q0 122 46.5 232.5t125.5 189.5t189.5 125.5t232.5 46.5q97 0 186 -28.5t156 -81.5q47 -35 115 -117
q98 120 204 173.5t244 53.5q194 0 345 -102q241 -160 241 -477q0 -67 -10 -136h-879q34 -103 118 -163t196 -60q72 0 140 30.5t108 80.5zM655 911q-135 0 -229 -99.5t-94 -242.5q0 -148 96.5 -247t241.5 -99q137 0 229 98t92 244q0 150 -95 248t-241 98zM1241 686h619
q-64 225 -308 225q-234 0 -311 -225z" />
    <glyph glyph-name="Scaron" unicode="&#x160;" horiz-adv-x="1073"
d="M39 432h293q18 -188 205 -188q91 0 147.5 51t56.5 133q0 101 -75 158q-34 25 -70.5 41t-185.5 71q-153 57 -234.5 163t-81.5 249q0 180 128 305t313 125q109 0 205 -45.5t157 -126.5q41 -56 61.5 -115.5t24.5 -142.5h-291q-6 76 -48 118t-112 42q-69 0 -112 -43t-43 -111
q0 -85 88 -139q19 -13 164 -66q113 -43 162.5 -69.5t93.5 -67.5q135 -123 135 -315q0 -205 -139.5 -345.5t-343.5 -140.5q-125 0 -232.5 51t-173.5 142q-44 60 -65 120t-27 146zM127 1931h301l111 -131l108 131h297l-297 -282h-219z" />
    <glyph glyph-name="scaron" unicode="&#x161;" horiz-adv-x="897"
d="M31 360h274q20 -72 56 -104.5t96 -32.5q54 0 88.5 31.5t34.5 79.5q0 56 -52 88q-22 13 -43 22t-98 35q-170 57 -242.5 134t-72.5 202q0 146 108.5 246t268.5 100q88 0 166.5 -35t132.5 -98q37 -44 53.5 -91t19.5 -116h-266q-18 90 -106 90q-44 0 -74.5 -27.5t-30.5 -68.5
q0 -52 53 -76q29 -12 140 -47q172 -53 243.5 -128t71.5 -204q0 -163 -118 -275t-288 -112q-105 0 -197.5 44.5t-146.5 119.5q-32 46 -48 95t-23 128zM41 1573h301l111 -131l108 131h297l-297 -283h-219z" />
    <glyph glyph-name="Ydieresis" unicode="&#x178;" horiz-adv-x="1304"
d="M512 0v559l-498 954h303l336 -696l334 696h303l-497 -954v-559h-281zM301 1649v272h272v-272h-272zM731 1649v272h273v-272h-273z" />
    <glyph glyph-name="Zcaron" unicode="&#x17d;" horiz-adv-x="1069"
d="M61 238l574 1007h-543v268h877v-251l-570 -994h609v-268h-947v238zM127 1931h301l111 -131l108 131h297l-297 -282h-219z" />
    <glyph glyph-name="zcaron" unicode="&#x17e;" horiz-adv-x="987"
d="M61 0v244l500 647h-442v244h768v-244l-500 -647h539v-244h-865zM98 1573h301l111 -131l108 131h297l-297 -283h-219z" />
    <glyph glyph-name="florin" unicode="&#x192;"
d="M786 1198h189l-39 -235h-191l-127 -746q-31 -180 -63.5 -262t-97.5 -141q-131 -119 -330 -119q-61 0 -121 14l41 238q39 -8 68 -8q131 0 184 90q37 58 66 233l122 701h-192l39 235h192l11 53q26 123 48.5 177.5t69.5 109.5q62 71 149.5 109.5t188.5 38.5q20 0 60 -7
l-41 -239h-21q-124 0 -172 -115q-18 -45 -33 -127z" />
    <glyph glyph-name="uni0237" unicode="&#x237;" horiz-adv-x="522"
d="M139 1135h273v-1059q0 -127 -29 -212.5t-92 -144.5q-106 -98 -264 -98v264q41 7 61 15t33 31t15.5 54.5t2.5 96.5v1053z" />
    <glyph glyph-name="circumflex" unicode="&#x2c6;" horiz-adv-x="1079"
d="M131 1290l301 283h219l297 -283h-297l-108 131l-111 -131h-301z" />
    <glyph glyph-name="caron" unicode="&#x2c7;" horiz-adv-x="1079"
d="M131 1573h301l111 -131l108 131h297l-297 -283h-219z" />
    <glyph glyph-name="breve" unicode="&#x2d8;" horiz-adv-x="937"
d="M131 1575h201q37 -88 139 -88q112 0 127 88h209q-4 -129 -96.5 -207t-239.5 -78q-152 0 -241.5 75t-98.5 210z" />
    <glyph glyph-name="dotaccent" unicode="&#x2d9;" horiz-adv-x="534"
d="M131 1290v273h272v-273h-272z" />
    <glyph glyph-name="ring" unicode="&#x2da;" horiz-adv-x="684"
d="M344 1671q86 0 147.5 -62.5t61.5 -148.5q0 -88 -61.5 -149.5t-149.5 -61.5t-149.5 61.5t-61.5 149.5t62 149.5t151 61.5zM340 1534q-29 0 -50.5 -21.5t-21.5 -52.5t21.5 -52.5t52.5 -21.5t52.5 21.5t21.5 52.5t-22 52.5t-54 21.5z" />
    <glyph glyph-name="ogonek" unicode="&#x2db;" horiz-adv-x="634"
d="M307 0h144q-78 -56 -106 -90.5t-28 -75.5q0 -37 29.5 -61.5t73.5 -24.5q33 0 84 21v-158q-68 -29 -135 -29q-106 0 -172 56t-66 147q0 132 176 215z" />
    <glyph glyph-name="tilde" unicode="&#x2dc;" horiz-adv-x="940"
d="M242 1303l-111 163q54 54 100.5 75.5t110.5 21.5q34 0 56.5 -5t66.5 -24q59 -23 96 -23q76 0 137 70l111 -166q-50 -60 -94.5 -86t-98.5 -26q-43 0 -120 26q-69 25 -111 25q-40 0 -62.5 -8t-80.5 -43z" />
    <glyph glyph-name="hungarumlaut" unicode="&#x2dd;" horiz-adv-x="1398"
d="M131 1397l430 293l127 -164l-455 -271zM711 1397l432 293l125 -164l-453 -271z" />
    <glyph glyph-name="gravecomb" unicode="&#x300;" horiz-adv-x="0"
d="M-1014 1509l117 181l455 -273l-109 -162z" />
    <glyph glyph-name="acutecomb" unicode="&#x301;" horiz-adv-x="0"
d="M-772 1255l-105 160l459 275l111 -189z" />
    <glyph glyph-name="uni0302" unicode="&#x302;" horiz-adv-x="0"
d="M-1069 1290l301 283h219l297 -283h-297l-108 131l-111 -131h-301z" />
    <glyph glyph-name="tildecomb" unicode="&#x303;" horiz-adv-x="0"
d="M-883 1303l-110 163q54 54 100.5 75.5t110.5 21.5q34 0 56.5 -5t66.5 -24q59 -23 96 -23q76 0 137 70l111 -166q-50 -60 -94.5 -86t-98.5 -26q-44 0 -121 26q-69 25 -110 25q-40 0 -63 -8t-81 -43z" />
    <glyph glyph-name="uni0304" unicode="&#x304;" horiz-adv-x="0"
d="M-944 1327v205h567v-205h-567z" />
    <glyph glyph-name="uni0306" unicode="&#x306;" horiz-adv-x="0"
d="M-999 1575h200q37 -88 140 -88q112 0 127 88h208q-4 -129 -96.5 -207t-238.5 -78q-152 0 -241.5 75t-98.5 210z" />
    <glyph glyph-name="uni0307" unicode="&#x307;" horiz-adv-x="0"
d="M-797 1290v273h273v-273h-273z" />
    <glyph glyph-name="uni0308" unicode="&#x308;" horiz-adv-x="0"
d="M-1012 1290v273h273v-273h-273zM-582 1290v273h273v-273h-273z" />
    <glyph glyph-name="uni030A" unicode="&#x30a;" horiz-adv-x="0"
d="M-659 1671q86 0 147 -62t61 -149q0 -88 -61.5 -149.5t-149.5 -61.5t-149 61.5t-61 149.5t62 149.5t151 61.5zM-664 1534q-29 0 -50 -21.5t-21 -52.5t21 -52.5t52 -21.5t52.5 21.5t21.5 52.5t-22 52.5t-54 21.5z" />
    <glyph glyph-name="uni030B" unicode="&#x30b;" horiz-adv-x="0"
d="M-1194 1397l430 293l127 -164l-455 -271zM-614 1397l432 293l125 -164l-453 -271z" />
    <glyph glyph-name="uni030C" unicode="&#x30c;" horiz-adv-x="0"
d="M-1069 1573h301l111 -131l108 131h297l-297 -283h-219z" />
    <glyph glyph-name="uni0400" unicode="&#x400;" horiz-adv-x="1073"
d="M145 0v1513h813v-268h-532v-356h510v-268h-510v-353h532v-268h-813zM184 1868l117 180l455 -272l-109 -162z" />
    <glyph glyph-name="uni0401" unicode="&#x401;" horiz-adv-x="1073"
d="M145 0v1513h813v-268h-532v-356h510v-268h-510v-353h532v-268h-813zM201 1649v272h272v-272h-272zM631 1649v272h272v-272h-272z" />
    <glyph glyph-name="uni0402" unicode="&#x402;" horiz-adv-x="1419"
d="M819 -27v269q101 0 181.5 60.5t80.5 162.5q0 59 -28 98t-82.5 58t-113.5 25.5t-142 6.5h-119v-653h-281v1245h-301v268h944v-268h-362v-323h100q173 0 268 -13t164 -47q110 -54 173 -162t63 -241q0 -116 -44 -210t-119.5 -153.5t-173.5 -91t-208 -31.5z" />
    <glyph glyph-name="uni0403" unicode="&#x403;" horiz-adv-x="956"
d="M432 1614l-104 160l458 274l111 -188zM942 1245h-516v-1245h-281v1513h797v-268z" />
    <glyph glyph-name="uni0404" unicode="&#x404;" horiz-adv-x="1642"
d="M1239 422h330q-89 -207 -277.5 -328t-421.5 -121q-109 0 -212.5 28t-190.5 79t-160.5 123.5t-124.5 159t-79.5 189t-28.5 210.5q0 158 62 302t166 248t248 166t302 62q143 0 275.5 -47.5t238.5 -136.5q72 -62 116 -122t87 -155h-314q-77 100 -171 145.5t-226 45.5
q-237 0 -377 -166q-75 -88 -106 -207h743v-268h-745q43 -168 179.5 -276.5t311.5 -108.5q109 0 195.5 41t179.5 137z" />
    <glyph glyph-name="uni0405" unicode="&#x405;" horiz-adv-x="1073"
d="M39 432h293q18 -188 205 -188q91 0 147.5 51t56.5 133q0 101 -75 158q-34 25 -70.5 41t-185.5 71q-153 57 -234.5 163t-81.5 249q0 180 128 305t313 125q109 0 205 -45.5t157 -126.5q41 -56 61.5 -115.5t24.5 -142.5h-291q-6 76 -48 118t-112 42q-69 0 -112 -43t-43 -111
q0 -85 88 -139q19 -13 164 -66q113 -43 162.5 -69.5t93.5 -67.5q135 -123 135 -315q0 -205 -139.5 -345.5t-343.5 -140.5q-125 0 -232.5 51t-173.5 142q-44 60 -65 120t-27 146z" />
    <glyph glyph-name="uni0406" unicode="&#x406;" horiz-adv-x="571"
d="M145 0v1513h281v-1513h-281z" />
    <glyph glyph-name="uni0407" unicode="&#x407;" horiz-adv-x="571"
d="M145 0v1513h281v-1513h-281zM-66 1649v272h273v-272h-273zM365 1649v272h272v-272h-272z" />
    <glyph glyph-name="uni0408" unicode="&#x408;" horiz-adv-x="1011"
d="M586 1513h280v-1079q0 -214 -109.5 -337.5t-299.5 -123.5q-98 0 -184.5 38t-145.5 106q-43 50 -63 102t-27 139h280q27 -114 134 -114q135 0 135 198v1071z" />
    <glyph glyph-name="uni0409" unicode="&#x409;" horiz-adv-x="2072"
d="M342 0h-338l965 1513h280v-591h101q173 0 268 -13t164 -47q110 -54 172.5 -162t62.5 -241q0 -126 -56 -225t-159 -158q-75 -43 -174.5 -59.5t-273.5 -16.5h-385v1051zM1249 653v-385h113q136 0 215 15q74 17 116 65t42 117q0 61 -42 106t-114 62q-79 20 -231 20h-99z" />
    <glyph glyph-name="uni040A" unicode="&#x40a;" horiz-adv-x="2056"
d="M145 0v1513h281v-591h526v591h281v-591h100q173 0 268 -13t164 -47q110 -54 173 -162t63 -241q0 -126 -56 -225t-159 -158q-75 -42 -175 -59t-274 -17h-385v653h-526v-653h-281zM1233 653v-385h113q136 0 215 15q74 17 115.5 65t41.5 117q0 61 -41.5 106t-113.5 62
q-79 20 -232 20h-98z" />
    <glyph glyph-name="uni040B" unicode="&#x40b;" horiz-adv-x="1437"
d="M1051 0v459q0 111 -69.5 154.5t-211.5 43.5q-117 0 -174 -8v-649h-281v1245h-301v268h944v-268h-362v-327q63 8 258 8q132 0 239.5 -53t173.5 -160.5t66 -253.5v-459h-282z" />
    <glyph glyph-name="uni040C" unicode="&#x40c;" horiz-adv-x="1257"
d="M551 1614l-105 160l459 274l111 -188zM145 0v1513h281v-653l469 653h338l-569 -743l569 -770h-338l-469 666v-666h-281z" />
    <glyph glyph-name="uni040D" unicode="&#x40d;" horiz-adv-x="1511"
d="M403 1868l117 180l455 -272l-109 -162zM1081 1513h285v-1513h-279v1049l-657 -1049h-285v1513h279v-1048z" />
    <glyph glyph-name="uni040E" unicode="&#x40e;" horiz-adv-x="1226"
d="M250 1919h235q0 -83 31 -119.5t96 -36.5t96 36.5t31 119.5h236q-24 -142 -122 -215.5t-241 -73.5t-240.5 73.5t-121.5 215.5zM584 0h-267l156 397l-465 1116h303l299 -770l305 770h304z" />
    <glyph glyph-name="uni040F" unicode="&#x40f;" horiz-adv-x="1363"
d="M1219 1513v-1513h-390l-53 -297h-188l-53 297h-390v1513h281v-1245h512v1245h281z" />
    <glyph glyph-name="uni0410" unicode="&#x410;" horiz-adv-x="1515"
d="M14 0l631 1513h221l635 -1513h-309l-162 391h-538l-168 -391h-310zM594 659h324l-162 459z" />
    <glyph glyph-name="uni0411" unicode="&#x411;" horiz-adv-x="1226"
d="M426 678v-410h102q114 0 197 17q67 17 106 68.5t39 123.5q0 65 -38.5 113t-104.5 65q-84 23 -211 23h-90zM426 1245v-299h94q166 0 255.5 -13t154.5 -48q104 -55 163.5 -166.5t59.5 -247.5q0 -129 -53 -231t-150 -162q-70 -44 -165 -61t-261 -17h-379v1513h912v-268h-631
z" />
    <glyph glyph-name="uni0412" unicode="&#x412;" horiz-adv-x="1202"
d="M145 0v1513h312q173 0 260.5 -16.5t156.5 -62.5q78 -53 121 -137.5t43 -186.5q0 -107 -38.5 -172.5t-129.5 -112.5q76 -31 116.5 -59t72.5 -72q69 -94 69 -243q0 -120 -54 -218t-152 -155q-135 -78 -373 -78h-404zM426 268h139q147 0 214 45.5t67 145.5t-70.5 148
t-216.5 48h-133v-387zM426 930h90q128 0 185 36.5t57 118.5q0 154 -217 154h-115v-309z" />
    <glyph glyph-name="uni0413" unicode="&#x413;" horiz-adv-x="956"
d="M942 1245h-516v-1245h-281v1513h797v-268z" />
    <glyph glyph-name="uni0414" unicode="&#x414;" horiz-adv-x="1720"
d="M1692 -297h-197l-57 297h-1155l-58 -297h-196v565h200l519 1245h225l518 -1245h201v-565zM520 268h680l-340 830z" />
    <glyph glyph-name="uni0415" unicode="&#x415;" horiz-adv-x="1073"
d="M145 0v1513h813v-268h-532v-356h510v-268h-510v-353h532v-268h-813z" />
    <glyph glyph-name="uni0416" unicode="&#x416;" horiz-adv-x="1869"
d="M1075 819l436 694h334l-506 -743l506 -770h-334l-436 707v-707h-280v707l-437 -707h-333l505 770l-505 743h333l437 -694v694h280v-694z" />
    <glyph glyph-name="uni0417" unicode="&#x417;" horiz-adv-x="1134"
d="M459 676v246q282 0 282 174q0 72 -52.5 124t-127.5 52t-127.5 -52t-52.5 -124h-272q0 185 131.5 314.5t320.5 129.5t321 -129.5t132 -314.5q0 -63 -21 -120t-65.5 -103t-106.5 -66q102 -36 171 -138t69 -208q0 -132 -67 -244.5t-182 -178t-251 -65.5t-251 65.5t-182 178
t-67 244.5h283q0 -91 63 -154t154 -63t154 63t63 154q0 118 -77.5 166.5t-241.5 48.5z" />
    <glyph glyph-name="uni0418" unicode="&#x418;" horiz-adv-x="1511"
d="M1081 1513h285v-1513h-279v1049l-657 -1049h-285v1513h279v-1048z" />
    <glyph glyph-name="uni0419" unicode="&#x419;" horiz-adv-x="1511"
d="M393 1919h236q0 -83 31 -119.5t96 -36.5t96 36.5t31 119.5h235q-24 -142 -121.5 -215.5t-240.5 -73.5t-241 73.5t-122 215.5zM1081 1513h285v-1513h-279v1049l-657 -1049h-285v1513h279v-1048z" />
    <glyph glyph-name="uni041A" unicode="&#x41a;" horiz-adv-x="1257"
d="M145 0v1513h281v-653l469 653h338l-569 -743l569 -770h-338l-469 666v-666h-281z" />
    <glyph glyph-name="uni041B" unicode="&#x41b;" horiz-adv-x="1515"
d="M758 1128l-441 -1128h-303l633 1513h221l633 -1513h-303z" />
    <glyph glyph-name="uni041C" unicode="&#x41c;" horiz-adv-x="1871"
d="M145 0v1513h385l408 -1146l403 1146h385v-1513h-280v1135l-395 -1135h-230l-395 1135v-1135h-281z" />
    <glyph glyph-name="uni041D" unicode="&#x41d;" horiz-adv-x="1392"
d="M145 0v1513h281v-610h541v610h280v-1513h-280v635h-541v-635h-281z" />
    <glyph glyph-name="uni041E" unicode="&#x41e;" horiz-adv-x="1724"
d="M874 1540q158 0 302 -62t248 -166.5t165.5 -249.5t61.5 -304q0 -218 -103 -398t-282 -283.5t-396 -103.5q-164 0 -311.5 61t-253.5 165.5t-168.5 250t-62.5 306.5q0 163 62 308.5t168 249.5t254.5 165t315.5 61zM856 1270q-207 0 -353.5 -149.5t-146.5 -362.5
q0 -107 40 -202t108 -163.5t163 -108.5t201 -40q215 0 357.5 145t142.5 365q0 223 -145.5 369.5t-366.5 146.5z" />
    <glyph glyph-name="uni041F" unicode="&#x41f;" horiz-adv-x="1363"
d="M145 0v1513h1074v-1513h-281v1245h-512v-1245h-281z" />
    <glyph glyph-name="uni0420" unicode="&#x420;" horiz-adv-x="1173"
d="M145 0v1513h375q155 0 243.5 -17t156.5 -60q92 -60 142 -161t50 -228q0 -135 -56.5 -245t-154.5 -165q-62 -34 -147 -48t-238 -14h-90v-575h-281zM426 844h82q128 0 192 20q60 17 94.5 64t34.5 112q0 72 -35 123t-96 68q-60 14 -178 14h-94v-401z" />
    <glyph glyph-name="uni0421" unicode="&#x421;" horiz-adv-x="1642"
d="M1239 422h330q-89 -207 -277.5 -328t-421.5 -121q-109 0 -212.5 28t-190.5 79t-160.5 123.5t-124.5 159t-79.5 189t-28.5 210.5q0 158 62 302t166 248t248 166t302 62q143 0 275.5 -47.5t238.5 -136.5q72 -62 116 -122t87 -155h-314q-77 100 -171 145.5t-226 45.5
q-237 0 -377 -166q-58 -67 -91.5 -159t-33.5 -185q0 -139 68 -258t185 -188.5t255 -69.5q109 0 195.5 41t179.5 137z" />
    <glyph glyph-name="uni0422" unicode="&#x422;" horiz-adv-x="870"
d="M295 0v1245h-281v268h842v-268h-281v-1245h-280z" />
    <glyph glyph-name="uni0423" unicode="&#x423;" horiz-adv-x="1226"
d="M584 0h-267l156 397l-465 1116h303l299 -770l305 770h304z" />
    <glyph glyph-name="uni0424" unicode="&#x424;" horiz-adv-x="1660"
d="M971 1149v-758q155 35 250.5 139t95.5 240t-95.5 240t-250.5 139zM690 391v756q-155 -36 -250.5 -139t-95.5 -238q0 -136 95.5 -240t250.5 -139zM690 1423v90h281v-90q274 -42 451 -224t177 -429t-177 -429t-451 -224v-117h-281v117q-179 27 -322 118.5t-225 231.5
t-82 303t82 303t225 231.5t322 118.5z" />
    <glyph glyph-name="uni0425" unicode="&#x425;" horiz-adv-x="1402"
d="M14 0l521 754l-521 759h334l352 -528l363 528h326l-525 -759l525 -754h-326l-363 522l-352 -522h-334z" />
    <glyph glyph-name="uni0426" unicode="&#x426;" horiz-adv-x="1468"
d="M918 1513h280v-1245h225v-565h-196l-58 297h-1024v1513h281v-1245h492v1245z" />
    <glyph glyph-name="uni0427" unicode="&#x427;" horiz-adv-x="1284"
d="M102 1513h281v-438q0 -141 50.5 -200.5t172.5 -59.5q143 0 252 23v675h281v-1513h-281v580q-191 -33 -301 -33q-81 0 -146.5 13t-124 45t-98.5 83t-63 131t-23 185v509z" />
    <glyph glyph-name="uni0428" unicode="&#x428;" horiz-adv-x="1832"
d="M1688 0h-1543v1513h281v-1245h350v1245h281v-1245h350v1245h281v-1513z" />
    <glyph glyph-name="uni0429" unicode="&#x429;" horiz-adv-x="1957"
d="M1688 268h225v-565h-197l-57 297h-1514v1513h281v-1245h350v1245h281v-1245h350v1245h281v-1245z" />
    <glyph glyph-name="uni042A" unicode="&#x42a;" horiz-adv-x="1456"
d="M633 653v-385h112q137 0 216 15q74 17 115.5 65t41.5 117q0 61 -41.5 106t-113.5 62q-79 20 -232 20h-98zM352 1245h-338v268h619v-591h100q173 0 268 -13t164 -47q110 -54 173 -162t63 -241q0 -126 -56 -225t-159 -158q-75 -42 -175 -59t-274 -17h-385v1245z" />
    <glyph glyph-name="uni042B" unicode="&#x42b;" horiz-adv-x="1771"
d="M145 1513h281v-591h100q173 0 268 -13t164 -47q110 -54 173 -162t63 -241q0 -126 -56 -225t-159 -158q-75 -42 -175 -59t-274 -17h-385v1513zM426 653v-385h113q135 0 215 15q74 17 115.5 65t41.5 117q0 61 -41.5 106t-113.5 62q-79 20 -232 20h-98zM1626 1513v-1513
h-280v1513h280z" />
    <glyph glyph-name="uni042C" unicode="&#x42c;" horiz-adv-x="1249"
d="M145 1513h281v-591h100q173 0 268 -13t164 -47q110 -54 173 -162t63 -241q0 -126 -56 -225t-159 -158q-75 -42 -175 -59t-274 -17h-385v1513zM426 653v-385h113q135 0 215 15q74 17 115.5 65t41.5 117q0 61 -41.5 106t-113.5 62q-79 20 -232 20h-98z" />
    <glyph glyph-name="uni042D" unicode="&#x42d;" horiz-adv-x="1642"
d="M403 422q93 -96 179.5 -137t195.5 -41q175 0 312 108.5t180 276.5h-746v268h744q-30 118 -107 207q-140 166 -377 166q-132 0 -226 -45.5t-171 -145.5h-313q43 96 86.5 156t115.5 121q105 89 238.5 136.5t276.5 47.5q158 0 302 -62t248 -166t166 -248t62 -302
q0 -161 -63 -307.5t-169.5 -252t-254 -167.5t-310.5 -62q-233 0 -421 121t-277 328h329z" />
    <glyph glyph-name="uni042E" unicode="&#x42e;" horiz-adv-x="2271"
d="M1391 1282q-139 0 -257 -70t-186.5 -190.5t-68.5 -263.5q0 -145 69.5 -266.5t190 -191t264.5 -69.5q220 0 366 149.5t146 373.5q0 227 -149 377.5t-375 150.5zM1409 1552q161 0 307 -63t251.5 -169.5t168 -253.5t62.5 -308q0 -166 -61.5 -313.5t-167 -253.5t-252.5 -168
t-312 -62q-202 0 -375.5 88t-285.5 241.5t-140 344.5h-178v-635h-281v1513h281v-610h182q34 186 145.5 333.5t283 231.5t372.5 84z" />
    <glyph glyph-name="uni042F" unicode="&#x42f;" horiz-adv-x="1239"
d="M813 815v430h-98q-117 0 -189 -16q-64 -17 -100.5 -72t-36.5 -131q0 -68 36.5 -119.5t98.5 -68.5q77 -23 203 -23h86zM1094 0h-281v547h-115l-329 -547h-324l358 578q-41 10 -79 32q-101 57 -159.5 170.5t-58.5 251.5q0 131 52 236t147 166q69 44 160.5 61.5t251.5 17.5
h377v-1513z" />
    <glyph glyph-name="uni0430" unicode="&#x430;" horiz-adv-x="1366"
d="M1255 1135v-1135h-249v147q-82 -93 -169.5 -133.5t-207.5 -40.5q-164 0 -294.5 75.5t-204 210.5t-73.5 304q0 171 74 307.5t206 213.5t298 77q123 0 212 -42.5t159 -135.5v152h249zM659 911q-142 0 -234.5 -100t-92.5 -254q0 -149 93.5 -241.5t242.5 -92.5
q148 0 238.5 94t90.5 246q0 154 -94.5 251t-243.5 97z" />
    <glyph glyph-name="uni0431" unicode="&#x431;" horiz-adv-x="1333"
d="M668 895q-132 0 -228 -98t-96 -236q0 -142 96 -240t232 -98q137 0 233 97.5t96 238.5t-96.5 238.5t-236.5 97.5zM676 1139q97 0 188.5 -29t165.5 -82.5t129.5 -125t86 -160t30.5 -183.5q0 -160 -80.5 -295t-219 -213t-302.5 -78q-155 0 -286.5 68.5t-211.5 198.5
q-33 54 -53.5 123t-29 156.5t-11 155t-2.5 175.5q0 345 155 530.5t472 210.5l493 39v-244l-483 -40q-219 -19 -325.5 -123.5t-108.5 -298.5l4 -2q40 78 148 147.5t241 69.5z" />
    <glyph glyph-name="uni0432" unicode="&#x432;" horiz-adv-x="1107"
d="M383 887v-203h192q84 0 127 27.5t43 74.5t-43.5 74t-126.5 27h-192zM383 485v-237h248q62 0 99.5 32.5t37.5 86.5t-37.5 86t-99.5 32h-248zM872 590q71 -27 120.5 -83.5t49.5 -139.5q0 -154 -110 -260.5t-283 -106.5h-538v1135h467q193 0 310.5 -90t117.5 -259
q0 -65 -39.5 -119t-94.5 -77z" />
    <glyph glyph-name="uni0433" unicode="&#x433;" horiz-adv-x="790"
d="M754 1135v-248h-371v-887h-272v1135h643z" />
    <glyph glyph-name="uni0434" unicode="&#x434;" horiz-adv-x="1384"
d="M1364 -270h-195l-57 270h-838l-57 -270h-197v518h175l378 887h238l379 -887h174v-518zM907 248l-215 512l-215 -512h430z" />
    <glyph glyph-name="uni0435" unicode="&#x435;" horiz-adv-x="1298"
d="M1231 446h-879q25 -103 109 -163t205 -60q84 0 140 25.5t109 87.5h297q-24 -77 -90 -158q-176 -205 -450 -205q-128 0 -242 46t-195.5 124.5t-129.5 188t-48 231.5q0 164 79.5 301.5t217 217t301.5 79.5q167 0 301 -78.5t209.5 -218t75.5 -313.5q0 -56 -10 -105zM344 686
h629q-26 109 -107 167t-207 58q-122 0 -202.5 -57.5t-112.5 -167.5z" />
    <glyph glyph-name="uni0436" unicode="&#x436;" horiz-adv-x="1677"
d="M975 606l356 529h318l-408 -564l432 -571h-332l-366 528v-528h-273v528l-366 -528h-332l432 571l-407 564h317l356 -529v529h273v-529z" />
    <glyph glyph-name="uni0437" unicode="&#x437;" horiz-adv-x="978"
d="M406 498v180q105 0 153.5 28.5t48.5 98.5q0 45 -37 77.5t-90 32.5q-56 0 -93 -31t-46 -79h-256q11 153 122 255.5t273 102.5q163 0 277 -104.5t114 -253.5q0 -70 -44.5 -130t-116.5 -77v-2q85 -22 143.5 -90.5t58.5 -147.5q0 -105 -58 -193.5t-157.5 -140t-216.5 -51.5
q-176 0 -298.5 112.5t-133.5 272.5h270q6 -59 51 -97t111 -38t112 39t46 96q0 36 -11.5 61.5t-30.5 40.5t-50.5 23.5t-63 11t-77.5 3.5z" />
    <glyph glyph-name="uni0438" unicode="&#x438;" horiz-adv-x="1275"
d="M889 1135h276v-1135h-270v750l-508 -750h-276v1135h270v-750z" />
    <glyph glyph-name="uni0439" unicode="&#x439;" horiz-adv-x="1275"
d="M301 1528h207q0 -77 31 -111.5t100 -34.5t100 34.5t31 111.5h207q-45 -266 -338 -266t-338 266zM889 1135h276v-1135h-270v750l-508 -750h-276v1135h270v-750z" />
    <glyph glyph-name="uni043A" unicode="&#x43a;" horiz-adv-x="1134"
d="M111 0v1135h272v-523l393 523h330l-453 -564l477 -571h-354l-393 522v-522h-272z" />
    <glyph glyph-name="uni043B" unicode="&#x43b;" horiz-adv-x="1171"
d="M1165 0h-291l-288 754l-289 -754h-291l473 1135h213z" />
    <glyph glyph-name="uni043C" unicode="&#x43c;" horiz-adv-x="1527"
d="M844 236h-160l-301 514v-750h-272v1135h311l342 -582l342 582h311v-1135h-272v750z" />
    <glyph glyph-name="uni043D" unicode="&#x43d;" horiz-adv-x="1265"
d="M1155 0h-272v449h-500v-449h-272v1135h272v-439h500v439h272v-1135z" />
    <glyph glyph-name="uni043E" unicode="&#x43e;" horiz-adv-x="1320"
d="M666 1161q162 0 300 -80t218 -217.5t80 -298.5q0 -160 -80.5 -296.5t-219.5 -216t-302 -79.5q-164 0 -303.5 79.5t-220.5 216t-81 296.5q0 122 47.5 232.5t129 190t194.5 126.5t238 47zM655 911q-132 0 -227.5 -101.5t-95.5 -242.5q0 -142 96 -243t231 -101
q136 0 233 100.5t97 241.5q0 146 -97 246t-237 100z" />
    <glyph glyph-name="uni043F" unicode="&#x43f;" horiz-adv-x="1265"
d="M1155 0h-272v887h-500v-887h-272v1135h1044v-1135z" />
    <glyph glyph-name="uni0440" unicode="&#x440;" horiz-adv-x="1355"
d="M111 -379v1514h249v-134q135 160 373 160q162 0 291 -75.5t201.5 -210.5t72.5 -304q0 -170 -73 -306.5t-202.5 -214t-291.5 -77.5q-104 0 -187 32t-161 101v-485h-272zM692 911q-138 0 -231.5 -99.5t-93.5 -248.5q0 -145 96 -242.5t237 -97.5q137 0 230.5 98.5
t93.5 243.5q0 150 -94 248t-238 98z" />
    <glyph glyph-name="uni0441" unicode="&#x441;" horiz-adv-x="1280"
d="M920 373h307q-71 -191 -217.5 -295.5t-345.5 -104.5q-124 0 -236.5 47t-193.5 126t-129 189t-48 232q0 164 79 300.5t216.5 215t302.5 78.5q122 0 232.5 -43.5t193.5 -124.5q54 -53 85.5 -103.5t60.5 -133.5h-307q-80 155 -265 155q-142 0 -232.5 -95.5t-90.5 -246.5
q0 -149 94.5 -247.5t235.5 -98.5q84 0 145.5 36t112.5 114z" />
    <glyph glyph-name="uni0442" unicode="&#x442;" horiz-adv-x="874"
d="M838 887h-265v-887h-272v887h-264v248h801v-248z" />
    <glyph glyph-name="uni0443" unicode="&#x443;" horiz-adv-x="1163"
d="M209 -379l213 485l-416 1029h311l252 -736l275 736h313l-655 -1514h-293z" />
    <glyph glyph-name="uni0444" unicode="&#x444;" horiz-adv-x="1595"
d="M662 1513h272v-358q310 -26 452 -175t142 -415q0 -265 -142 -412t-452 -173v-359h-272v359q-309 26 -451.5 173t-142.5 412t142.5 414t451.5 176v358zM662 903q-167 -23 -243.5 -106.5t-76.5 -231.5t76.5 -230.5t243.5 -103.5v672zM934 231q168 21 243.5 103.5
t75.5 230.5t-75.5 231.5t-243.5 106.5v-672z" />
    <glyph glyph-name="uni0445" unicode="&#x445;" horiz-adv-x="1142"
d="M6 0l402 586l-349 549h308l204 -342l201 342h307l-346 -549l404 -586h-328l-238 389l-237 -389h-328z" />
    <glyph glyph-name="uni0446" unicode="&#x446;" horiz-adv-x="1355"
d="M1112 1135v-887h217v-518h-196l-58 270h-964v1135h272v-887h457v887h272z" />
    <glyph glyph-name="uni0447" unicode="&#x447;" horiz-adv-x="1093"
d="M983 1135v-1135h-272v408q-143 -27 -250 -27q-183 0 -286 111.5t-103 312.5v330h272v-330q0 -103 39 -139.5t149 -36.5q94 0 179 18v488h272z" />
    <glyph glyph-name="uni0448" unicode="&#x448;" horiz-adv-x="1705"
d="M1595 0h-1484v1135h272v-887h334v887h272v-887h334v887h272v-1135z" />
    <glyph glyph-name="uni0449" unicode="&#x449;" horiz-adv-x="1839"
d="M1812 248v-518h-196l-57 270h-1448v1135h272v-887h334v887h272v-887h334v887h272v-887h217z" />
    <glyph glyph-name="uni044A" unicode="&#x44a;" horiz-adv-x="1269"
d="M831 745q173 0 283.5 -108.5t110.5 -263.5t-110.5 -264t-283.5 -109h-499v887h-295v248h567v-390h227zM604 498v-250h209q61 0 99 35t38 90t-38 90t-99 35h-209z" />
    <glyph glyph-name="uni044B" unicode="&#x44b;" horiz-adv-x="1488"
d="M383 498v-250h209q61 0 99 35t38 90t-38 90t-99 35h-209zM610 745q173 0 283.5 -108.5t110.5 -263.5t-110.5 -264t-283.5 -109h-499v1135h272v-390h227zM1106 0v1135h272v-1135h-272z" />
    <glyph glyph-name="uni044C" unicode="&#x44c;" horiz-adv-x="1048"
d="M383 498v-250h209q61 0 99 35t38 90t-38 90t-99 35h-209zM610 745q173 0 283.5 -108.5t110.5 -263.5t-110.5 -264t-283.5 -109h-499v1135h272v-390h227z" />
    <glyph glyph-name="uni044D" unicode="&#x44d;" horiz-adv-x="1267"
d="M371 342q91 -119 235 -119q109 0 193.5 62.5t118.5 165.5h-480v239h482q-31 102 -113.5 161.5t-194.5 59.5q-165 0 -245 -125h-314q70 170 216 272.5t343 102.5q165 0 302.5 -78.5t216.5 -215t79 -300.5q0 -162 -81 -299t-220.5 -216t-304.5 -79q-192 0 -334.5 96
t-216.5 273h318z" />
    <glyph glyph-name="uni044E" unicode="&#x44e;" horiz-adv-x="1783"
d="M1110 920q-135 0 -233.5 -104.5t-98.5 -248.5q0 -146 99 -249t237 -103q140 0 239 102.5t99 247.5q0 149 -99.5 252t-242.5 103zM1120 1169q123 0 235 -48t193.5 -129t129.5 -193t48 -234q0 -162 -82 -300.5t-222.5 -219t-305.5 -80.5q-221 0 -389.5 138t-210.5 346h-133
v-449h-272v1135h272v-439h135q45 206 213 339.5t389 133.5z" />
    <glyph glyph-name="uni044F" unicode="&#x44f;" horiz-adv-x="1050"
d="M668 641v246h-179q-61 0 -99 -34.5t-38 -88.5t38 -88.5t99 -34.5h179zM322 418q-112 41 -178 135.5t-66 210.5q0 155 110 263t283 108h469v-1135h-272v393h-66l-240 -393h-327z" />
    <glyph glyph-name="uni0450" unicode="&#x450;" horiz-adv-x="1298"
d="M1231 446h-879q25 -103 109 -163t205 -60q84 0 140 25.5t109 87.5h297q-24 -77 -90 -158q-176 -205 -450 -205q-128 0 -242 46t-195.5 124.5t-129.5 188t-48 231.5q0 164 79.5 301.5t217 217t301.5 79.5q167 0 301 -78.5t209.5 -218t75.5 -313.5q0 -56 -10 -105zM344 686
h629q-26 109 -107 167t-207 58q-122 0 -202.5 -57.5t-112.5 -167.5zM289 1509l117 181l454 -273l-108 -162z" />
    <glyph glyph-name="uni0451" unicode="&#x451;" horiz-adv-x="1298"
d="M1231 446h-879q25 -103 109 -163t205 -60q84 0 140 25.5t109 87.5h297q-24 -77 -90 -158q-176 -205 -450 -205q-128 0 -242 46t-195.5 124.5t-129.5 188t-48 231.5q0 164 79.5 301.5t217 217t301.5 79.5q167 0 301 -78.5t209.5 -218t75.5 -313.5q0 -56 -10 -105zM344 686
h629q-26 109 -107 167t-207 58q-122 0 -202.5 -57.5t-112.5 -167.5zM313 1290v273h273v-273h-273zM743 1290v273h273v-273h-273z" />
    <glyph glyph-name="uni0452" unicode="&#x452;" horiz-adv-x="1382"
d="M1276 0q0 -104 -68.5 -193t-173 -137.5t-215.5 -48.5v248q80 0 132.5 43t52.5 115v352q0 180 -51 256t-171 76q-143 0 -202 -115q-37 -67 -37 -221v-375h-273v1135h-243v239h243v139h273v-139h286v-239h-286v-279q62 56 130.5 81.5t157.5 25.5q125 0 222.5 -49
t152.5 -140q38 -63 54 -138.5t16 -195.5v-440z" />
    <glyph glyph-name="uni0453" unicode="&#x453;" horiz-adv-x="790"
d="M322 1255l-105 160l459 275l110 -189zM754 1135v-248h-371v-887h-272v1135h643z" />
    <glyph glyph-name="uni0454" unicode="&#x454;" horiz-adv-x="1267"
d="M893 342h317q-74 -177 -216.5 -273t-334.5 -96q-165 0 -304.5 79t-220.5 216t-81 299q0 164 79 300.5t216.5 215t302.5 78.5q197 0 343 -102.5t216 -272.5h-313q-80 125 -246 125q-112 0 -194 -59.5t-113 -161.5h481v-239h-479q34 -103 118 -165.5t193 -62.5
q145 0 236 119z" />
    <glyph glyph-name="uni0455" unicode="&#x455;" horiz-adv-x="897"
d="M31 360h274q20 -72 56 -104.5t96 -32.5q54 0 88.5 31.5t34.5 79.5q0 56 -52 88q-22 13 -43 22t-98 35q-170 57 -242.5 134t-72.5 202q0 146 108.5 246t268.5 100q88 0 166.5 -35t132.5 -98q37 -44 53.5 -91t19.5 -116h-266q-18 90 -106 90q-44 0 -74.5 -27.5t-30.5 -68.5
q0 -52 53 -76q29 -12 140 -47q172 -53 243.5 -128t71.5 -204q0 -163 -118 -275t-288 -112q-105 0 -197.5 44.5t-146.5 119.5q-32 46 -48 95t-23 128z" />
    <glyph glyph-name="uni0456" unicode="&#x456;" horiz-adv-x="493"
d="M111 0v1135h272v-1135h-272zM111 1257v256h272v-256h-272z" />
    <glyph glyph-name="uni0457" unicode="&#x457;" horiz-adv-x="493"
d="M111 0v1135h272v-1135h-272zM-104 1290v273h272v-273h-272zM326 1290v273h272v-273h-272z" />
    <glyph glyph-name="uni0458" unicode="&#x458;" horiz-adv-x="522"
d="M139 1135h273v-1059q0 -127 -29 -212.5t-92 -144.5q-106 -98 -264 -98v264q41 7 61 15t33 31t15.5 54.5t2.5 96.5v1053zM139 1257v256h273v-256h-273z" />
    <glyph glyph-name="uni0459" unicode="&#x459;" horiz-adv-x="1665"
d="M1227 745q173 0 283 -108.5t110 -263.5t-110 -264t-283 -109h-500v684l-412 -684h-311l723 1135h272v-390h228zM999 498v-250h209q61 0 99.5 35.5t38.5 89.5t-38.5 89.5t-99.5 35.5h-209z" />
    <glyph glyph-name="uni045A" unicode="&#x45a;" horiz-adv-x="1796"
d="M1358 745q173 0 283 -108.5t110 -263.5t-110 -264t-283 -109h-500v449h-475v-449h-272v1135h272v-439h475v439h272v-390h228zM1130 498v-250h209q61 0 99.5 35.5t38.5 89.5t-38.5 89.5t-99.5 35.5h-209z" />
    <glyph glyph-name="uni045B" unicode="&#x45b;" horiz-adv-x="1382"
d="M270 1135h-243v239h243v139h273v-139h286v-239h-286v-279q62 56 130.5 81.5t157.5 25.5q125 0 222.5 -49t152.5 -140q38 -63 54 -138.5t16 -195.5v-440h-272v379q0 180 -51 256t-171 76q-143 0 -202 -115q-37 -67 -37 -221v-375h-273v1135z" />
    <glyph glyph-name="uni045C" unicode="&#x45c;" horiz-adv-x="1134"
d="M514 1255l-104 160l458 275l111 -189zM111 0v1135h272v-523l393 523h330l-453 -564l477 -571h-354l-393 522v-522h-272z" />
    <glyph glyph-name="uni045D" unicode="&#x45d;" horiz-adv-x="1275"
d="M285 1509l116 181l455 -273l-108 -162zM889 1135h276v-1135h-270v750l-508 -750h-276v1135h270v-750z" />
    <glyph glyph-name="uni045E" unicode="&#x45e;" horiz-adv-x="1163"
d="M244 1528h207q0 -77 31 -111.5t100 -34.5t100 34.5t31 111.5h207q-45 -266 -338 -266t-338 266zM209 -379l213 485l-416 1029h311l252 -736l275 736h313l-655 -1514h-293z" />
    <glyph glyph-name="uni045F" unicode="&#x45f;" horiz-adv-x="1265"
d="M111 1135h272v-887h500v887h272v-1135h-373l-55 -285h-188l-56 285h-372v1135z" />
    <glyph glyph-name="uni0462" unicode="&#x462;" horiz-adv-x="1374"
d="M551 633v-365h113q136 0 215 15q157 37 157 172q0 120 -155 157q-82 21 -232 21h-98zM270 1513h281v-165h295v-269h-295v-178h100q175 0 269 -12.5t163 -46.5q111 -54 173.5 -158t62.5 -235q0 -124 -55.5 -219t-159.5 -154q-75 -42 -175 -59t-274 -17h-385v1079h-256v269
h256v165z" />
    <glyph glyph-name="uni0463" unicode="&#x463;" horiz-adv-x="1212"
d="M774 731q174 0 283.5 -105t109.5 -259t-110 -260.5t-283 -106.5h-500v928h-237v248h237v337h273v-337h258v-248h-258v-197h227zM547 483v-235h209q62 0 99.5 32.5t37.5 86.5t-37.5 85t-99.5 31h-209z" />
    <glyph glyph-name="uni0490" unicode="&#x490;" horiz-adv-x="956"
d="M760 1751h182v-506h-516v-1245h-281v1513h549z" />
    <glyph glyph-name="uni0491" unicode="&#x491;" horiz-adv-x="790"
d="M588 1370h166v-483h-371v-887h-272v1135h413z" />
    <glyph glyph-name="uni2000" unicode="&#x2000;" horiz-adv-x="1024"
 />
    <glyph glyph-name="uni2001" unicode="&#x2001;" horiz-adv-x="2048"
 />
    <glyph glyph-name="uni2002" unicode="&#x2002;" horiz-adv-x="1024"
 />
    <glyph glyph-name="uni2003" unicode="&#x2003;" horiz-adv-x="2048"
 />
    <glyph glyph-name="uni2004" unicode="&#x2004;" horiz-adv-x="681"
 />
    <glyph glyph-name="uni2005" unicode="&#x2005;" horiz-adv-x="512"
 />
    <glyph glyph-name="uni2006" unicode="&#x2006;" horiz-adv-x="342"
 />
    <glyph glyph-name="uni2007" unicode="&#x2007;"
 />
    <glyph glyph-name="uni2008" unicode="&#x2008;" horiz-adv-x="575"
 />
    <glyph glyph-name="uni2009" unicode="&#x2009;" horiz-adv-x="342"
 />
    <glyph glyph-name="uni200A" unicode="&#x200a;" horiz-adv-x="114"
 />
    <glyph glyph-name="uni200B" unicode="&#x200b;" horiz-adv-x="0"
 />
    <glyph glyph-name="uni200C" unicode="&#x200c;" horiz-adv-x="0"
 />
    <glyph glyph-name="uni200D" unicode="&#x200d;" horiz-adv-x="0"
 />
    <glyph glyph-name="uni2010" unicode="&#x2010;" horiz-adv-x="690"
d="M61 469v242h568v-242h-568z" />
    <glyph glyph-name="uni2011" unicode="&#x2011;" horiz-adv-x="690"
d="M61 469v242h568v-242h-568z" />
    <glyph glyph-name="figuredash" unicode="&#x2012;"
d="M61 469v242h1024v-242h-1024z" />
    <glyph glyph-name="endash" unicode="&#x2013;" horiz-adv-x="1024"
d="M0 469v242h1024v-242h-1024z" />
    <glyph glyph-name="emdash" unicode="&#x2014;" horiz-adv-x="2048"
d="M0 469v242h2048v-242h-2048z" />
    <glyph glyph-name="uni2015" unicode="&#x2015;" horiz-adv-x="2048"
d="M0 469v242h2048v-242h-2048z" />
    <glyph glyph-name="quoteleft" unicode="&#x2018;" horiz-adv-x="600"
d="M436 1227v-273h-272v287q0 74 20.5 122.5t67.5 88.5q73 61 184 61v-137q-65 -12 -93 -38.5t-28 -75.5q0 -23 2 -35h119z" />
    <glyph glyph-name="quoteright" unicode="&#x2019;" horiz-adv-x="600"
d="M164 1251v262h272v-286q0 -172 -135 -244q-57 -29 -137 -29v138q65 12 93 40t28 80q0 25 -2 39h-119z" />
    <glyph glyph-name="quotesinglbase" unicode="&#x201a;" horiz-adv-x="600"
d="M164 0v262h272v-276q0 -172 -135 -244q-57 -29 -137 -29v137q64 12 92.5 38.5t28.5 74.5q0 23 -2 37h-119z" />
    <glyph glyph-name="quotedblleft" unicode="&#x201c;" horiz-adv-x="1024"
d="M436 1227v-273h-272v287q0 74 20.5 122.5t67.5 88.5q73 61 184 61v-137q-66 -12 -93.5 -37.5t-27.5 -76.5q0 -23 2 -35h119zM860 1227v-273h-272v287q0 74 20.5 122.5t67.5 88.5q73 61 184 61v-137q-64 -12 -92.5 -38.5t-28.5 -73.5q0 -23 2 -37h119z" />
    <glyph glyph-name="quotedblright" unicode="&#x201d;" horiz-adv-x="1024"
d="M164 1251v262h272v-286q0 -172 -135 -244q-57 -29 -137 -29v138q64 12 92.5 40t28.5 80q0 25 -2 39h-119zM588 1251v262h272v-286q0 -172 -135 -244q-59 -29 -137 -29v138q65 12 93 40t28 80q0 25 -2 39h-119z" />
    <glyph glyph-name="quotedblbase" unicode="&#x201e;" horiz-adv-x="1024"
d="M164 0v262h272v-276q0 -172 -135 -244q-57 -29 -137 -29v137q64 12 92.5 38.5t28.5 74.5q0 23 -2 37h-119zM588 0v262h272v-276q0 -172 -135 -244q-57 -29 -137 -29v137q64 12 92.5 38.5t28.5 74.5q0 23 -2 37h-119z" />
    <glyph glyph-name="dagger" unicode="&#x2020;" horiz-adv-x="1140"
d="M709 1513v-378h329v-242h-329v-1155h-273v1155h-334v242h334v378h273z" />
    <glyph glyph-name="daggerdbl" unicode="&#x2021;" horiz-adv-x="1140"
d="M707 1513v-303h331v-241h-331v-195h331v-242h-331v-794h-273v794h-332v242h332v195h-332v241h332v303h273z" />
    <glyph glyph-name="bullet" unicode="&#x2022;" horiz-adv-x="1228"
d="M618 991q139 0 239.5 -101.5t100.5 -242.5q0 -144 -101.5 -245t-244.5 -101q-141 0 -242.5 101.5t-101.5 242.5q0 145 101.5 245.5t248.5 100.5z" />
    <glyph glyph-name="ellipsis" unicode="&#x2026;" horiz-adv-x="2048"
d="M205 0v262h272v-262h-272zM887 0v262h272v-262h-272zM1569 0v262h272v-262h-272z" />
    <glyph glyph-name="perthousand" unicode="&#x2030;" horiz-adv-x="2607"
d="M1085 1513h211l-626 -1513h-209zM2191 713q151 0 260 -109t109 -260q0 -154 -108.5 -262.5t-262.5 -108.5q-153 0 -261.5 108.5t-108.5 260.5q0 157 107.5 264t264.5 107zM2187 496q-61 0 -104 -44.5t-43 -107.5t43.5 -107t105.5 -44q63 0 107.5 44t44.5 107t-45 107.5
t-109 44.5zM1346 713q151 0 259.5 -109t108.5 -260q0 -154 -108.5 -262.5t-262.5 -108.5q-153 0 -261.5 108.5t-108.5 260.5q0 157 108 264t265 107zM1341 496q-61 0 -104 -44.5t-43 -107.5t43.5 -107t105.5 -44q63 0 107.5 44t44.5 107t-45 107.5t-109 44.5zM420 1540
q151 0 259.5 -109t108.5 -260q0 -154 -108 -262t-262 -108t-262.5 108t-108.5 260q0 157 108 264t265 107zM416 1323q-61 0 -104.5 -44.5t-43.5 -107.5t44 -107t106 -44q63 0 107 44t44 107t-44.5 107.5t-108.5 44.5z" />
    <glyph glyph-name="guilsinglleft" unicode="&#x2039;" horiz-adv-x="505"
d="M377 221l-285 268v205l285 267v-252l-137 -117l137 -119v-252z" />
    <glyph glyph-name="guilsinglright" unicode="&#x203a;" horiz-adv-x="505"
d="M129 221v252l137 119l-137 117v252l285 -267v-205z" />
    <glyph glyph-name="fraction" unicode="&#x2044;" horiz-adv-x="327"
d="M-248 0l627 1513h194l-626 -1513h-195z" />
    <glyph glyph-name="Euro" unicode="&#x20ac;" horiz-adv-x="1558"
d="M1446 76q-179 -103 -389 -103q-232 0 -424 123.5t-289 325.5h-309l88 252h149q-4 54 -4 82v24h-229l88 252h192q86 226 287 367t451 141q272 0 489 -170l-100 -287q-70 88 -172 137.5t-217 49.5q-131 0 -244 -64.5t-182 -173.5h799l-89 -252h-790v-24q0 -42 6 -82h746
l-89 -252h-540q70 -83 170 -130.5t213 -47.5q115 0 217 49t172 135v-352z" />
    <glyph glyph-name="uni20BD" unicode="&#x20bd;"
d="M453 868h73q118 0 174 19q54 17 84.5 61t30.5 105q0 69 -30.5 116t-86.5 64q-47 12 -161 12h-84v-377zM49 600v268h123v645h369q146 0 230 -17t147 -58q86 -59 133 -157t47 -222q0 -132 -53.5 -239t-145.5 -161q-59 -33 -138.5 -46t-223.5 -13h-84v-78h393v-268h-393
v-254h-281v254h-123v268h123v78h-123z" />
    <glyph glyph-name="uni2116" unicode="&#x2116;" horiz-adv-x="2150"
d="M1716 1540q132 0 226 -92.5t94 -222.5t-94 -223t-226 -93t-225.5 92.5t-93.5 223.5q0 130 93.5 222.5t225.5 92.5zM1716 1358q-54 0 -92.5 -39t-38.5 -94t38.5 -94t92.5 -39t92.5 39t38.5 94t-38.5 94t-92.5 39zM1401 629v207h631v-207h-631zM145 0v1513h320l539 -1036
v1036h280v-1513h-319l-539 1036v-1036h-281z" />
    <glyph glyph-name="trademark" unicode="&#x2122;" horiz-adv-x="1961"
d="M1860 1513v-806h-166v587l-271 -587h-108l-262 585v-585h-166v806h248l233 -526l250 526h242zM825 1513v-153h-278v-653h-166v653h-279v153h723z" />
    <glyph glyph-name="minus" unicode="&#x2212;" horiz-adv-x="1228"
d="M1130 881v-242h-1032v242h1032z" />
    <glyph glyph-name="zero.fitted" unicode="&#xe000;" horiz-adv-x="1161"
d="M1087 1034v-528q0 -252 -130 -392.5t-363 -140.5q-279 0 -424 193q-96 130 -96 340v514q0 239 137.5 379.5t370.5 140.5q230 0 367.5 -138t137.5 -368zM346 1020v-506q0 -141 61.5 -216t178.5 -75q229 0 229 285v512q0 130 -60 200t-171 70q-110 0 -174 -72t-64 -198z
" />
    <glyph glyph-name="one.fitted" unicode="&#xe001;" horiz-adv-x="708"
d="M264 0v1257h-190v256h463v-1513h-273z" />
    <glyph glyph-name="two.fitted" unicode="&#xe002;" horiz-adv-x="1142"
d="M84 0v240l539 510q93 87 133.5 158t40.5 145q0 101 -62.5 169t-156.5 68q-106 0 -171 -82t-65 -217h-268q0 113 20 190.5t66 147.5q66 99 176 155t239 56q212 0 353 -140t141 -351q0 -139 -63.5 -250t-229.5 -262l-309 -281h596v-256h-979z" />
    <glyph glyph-name="three.fitted" unicode="&#xe003;" horiz-adv-x="1126"
d="M455 729v262q98 3 149 23q84 38 84 133q0 63 -37 103t-96 40q-57 0 -87.5 -33t-39.5 -104h-276q8 96 30.5 154t73.5 110q117 123 297 123q175 0 291.5 -116t116.5 -291q0 -88 -30.5 -151t-96.5 -110q235 -107 235 -391q0 -220 -144 -364t-364 -144q-218 0 -364 136
t-158 350h274q14 -108 80.5 -172t165.5 -64q103 0 170.5 71.5t67.5 180.5q0 116 -80.5 185t-216.5 69h-45z" />
    <glyph glyph-name="four.fitted" unicode="&#xe004;" horiz-adv-x="1173"
d="M41 449l696 1064h230v-1042h159v-244h-159v-227h-273v227h-653v222zM694 471v584l-377 -584h377z" />
    <glyph glyph-name="five.fitted" unicode="&#xe005;"
d="M121 723l141 790h684v-256h-479l-49 -278q58 25 99.5 34t94.5 9q207 0 343.5 -146.5t136.5 -369.5q0 -229 -146.5 -381t-367.5 -152q-140 0 -258.5 63t-190 173t-78.5 244h273q22 -111 84.5 -170.5t160.5 -59.5q110 0 180 78t70 201q0 116 -70 193t-176 77
q-65 0 -112.5 -26t-98.5 -89z" />
    <glyph glyph-name="six.fitted" unicode="&#xe006;" horiz-adv-x="1159"
d="M600 1513h326l-363 -538q59 20 123 20q182 0 300 -135t118 -344q0 -238 -145.5 -390.5t-372.5 -152.5q-150 0 -272 67.5t-190.5 187.5t-68.5 268q0 111 33.5 206.5t116.5 217.5zM573 758q-107 0 -176 -76t-69 -193t72.5 -191.5t187.5 -74.5q107 0 175 74t68 192
q0 119 -71.5 194t-186.5 75z" />
    <glyph glyph-name="seven.fitted" unicode="&#xe007;" horiz-adv-x="985"
d="M80 0l573 1257h-604v256h891v-256l-553 -1257h-307z" />
    <glyph glyph-name="eight.fitted" unicode="&#xe008;" horiz-adv-x="1122"
d="M274 842q-70 75 -97 136t-27 146q0 173 121 294.5t294 121.5q178 0 296 -117.5t118 -294.5q0 -185 -127 -286q49 -30 74 -48.5t47 -43.5q92 -106 92 -275q0 -215 -143.5 -358.5t-358.5 -143.5t-360.5 144t-145.5 356q0 158 86 264q24 31 51.5 53.5t79.5 51.5zM563 1290
q-64 0 -108.5 -48.5t-44.5 -117.5t45 -116t110 -47t109.5 48.5t44.5 118.5q0 69 -45 115.5t-111 46.5zM559 698q-95 0 -162 -69.5t-67 -167.5q0 -100 68 -169t167 -69q97 0 162.5 68.5t65.5 171.5q0 99 -67.5 167t-166.5 68z" />
    <glyph glyph-name="nine.fitted" unicode="&#xe009;" horiz-adv-x="1155"
d="M555 0h-326l365 539q-68 -25 -123 -25q-178 0 -297 138.5t-119 344.5q0 238 144 390.5t370 152.5q229 0 380 -149t151 -375q0 -108 -34 -203t-116 -219zM565 1290q-104 0 -170.5 -74.5t-66.5 -191.5q0 -118 70.5 -193t181.5 -75q108 0 177.5 75t69.5 193
q0 119 -72.5 192.5t-189.5 73.5z" />
    <glyph glyph-name="breve.cyrlc" unicode="&#xe080;" horiz-adv-x="962"
d="M143 1528h207q0 -77 31 -111.5t100 -34.5t100 34.5t31 111.5h207q-45 -266 -338 -266t-338 266z" />
    <glyph glyph-name="breve.cyruc" unicode="&#xe081;" horiz-adv-x="1011"
d="M143 1919h236q0 -83 31 -119.5t96 -36.5t96 36.5t31 119.5h235q-24 -142 -121.5 -215.5t-240.5 -73.5t-241 73.5t-122 215.5z" />
    <glyph glyph-name="uni0306.cyr" unicode="&#xe082;" horiz-adv-x="0"
d="M-999 1528h206q0 -77 31 -111.5t100 -34.5t100.5 35t31.5 111h206q-45 -266 -338 -266q-292 0 -337 266z" />
    <glyph glyph-name="i.dotless" unicode="&#xe090;" horiz-adv-x="493"
d="M111 0v1135h272v-1135h-272z" />
    <glyph glyph-name="j.dotless" unicode="&#xe091;" horiz-adv-x="522"
d="M139 1135h273v-1059q0 -127 -29 -212.5t-92 -144.5q-106 -98 -264 -98v264q41 7 61 15t33 31t15.5 54.5t2.5 96.5v1053z" />
    <glyph glyph-name="uni0456.dotless" unicode="&#xe092;" horiz-adv-x="493"
d="M111 0v1135h272v-1135h-272z" />
    <glyph glyph-name="uni0458.dotless" unicode="&#xe093;" horiz-adv-x="522"
d="M139 1135h273v-1059q0 -127 -29 -212.5t-92 -144.5q-106 -98 -264 -98v264q41 7 61 15t33 31t15.5 54.5t2.5 96.5v1053z" />
    <glyph glyph-name="uni0431.serbian" unicode="&#xe0a0;" horiz-adv-x="1320"
d="M57 537q0 184 108 313t277 170v4l-129 47q-102 37 -160.5 103t-58.5 159q0 113 87.5 189.5t217.5 76.5h797v-239h-797q-23 0 -37 -12.5t-14 -32.5q0 -21 11 -33.5t40 -24.5l385 -167q55 -24 91.5 -41t91.5 -48t92 -60t79 -73t67 -90.5t42 -108.5t17 -132q0 -153 -81 -283
t-220.5 -205.5t-303.5 -75.5q-123 0 -234.5 44.5t-192 120.5t-128 180t-47.5 219zM659 852q-136 0 -231.5 -92t-95.5 -223t95.5 -222.5t231.5 -91.5q137 0 233.5 92t96.5 222t-96.5 222.5t-233.5 92.5z" />
    </font>
</defs>
</svg>
